%TF.GenerationSoftware,KiCad,Pcbnew,(5.1.9-0-10_14)*%
%TF.CreationDate,2021-01-20T14:18:15+11:00*%
%TF.ProjectId,ControlBreakout,436f6e74-726f-46c4-9272-65616b6f7574,rev?*%
%TF.SameCoordinates,Original*%
%TF.FileFunction,Soldermask,Bot*%
%TF.FilePolarity,Negative*%
%FSLAX46Y46*%
G04 Gerber Fmt 4.6, Leading zero omitted, Abs format (unit mm)*
G04 Created by KiCad (PCBNEW (5.1.9-0-10_14)) date 2021-01-20 14:18:15*
%MOMM*%
%LPD*%
G01*
G04 APERTURE LIST*
%ADD10C,0.100000*%
%ADD11O,1.700000X1.700000*%
%ADD12R,1.700000X1.700000*%
%ADD13C,3.000000*%
%ADD14R,3.000000X3.000000*%
G04 APERTURE END LIST*
D10*
G36*
X117100000Y-107600000D02*
G01*
X111100000Y-107600000D01*
X111100000Y-101600000D01*
X117100000Y-101600000D01*
X117100000Y-107600000D01*
G37*
X117100000Y-107600000D02*
X111100000Y-107600000D01*
X111100000Y-101600000D01*
X117100000Y-101600000D01*
X117100000Y-107600000D01*
G36*
X106100000Y-70000000D02*
G01*
X105100000Y-70000000D01*
X105100000Y-69000000D01*
X106100000Y-69000000D01*
X106100000Y-70000000D01*
G37*
X106100000Y-70000000D02*
X105100000Y-70000000D01*
X105100000Y-69000000D01*
X106100000Y-69000000D01*
X106100000Y-70000000D01*
D11*
%TO.C,J7*%
X120875000Y-72540000D03*
D12*
X120875000Y-70000000D03*
%TD*%
D13*
%TO.C,J6*%
X115980000Y-70375000D03*
D14*
X110900000Y-70375000D03*
%TD*%
D11*
%TO.C,J4*%
X106850000Y-79090000D03*
D12*
X106850000Y-76550000D03*
%TD*%
D11*
%TO.C,J5*%
X117050000Y-94640000D03*
D12*
X117050000Y-92100000D03*
%TD*%
%TO.C,J3*%
X112850000Y-93100000D03*
D11*
X112850000Y-90560000D03*
%TD*%
D12*
%TO.C,J2*%
X104700000Y-91300000D03*
D11*
X104700000Y-93840000D03*
X104700000Y-96380000D03*
X104700000Y-98920000D03*
X104700000Y-101460000D03*
X104700000Y-104000000D03*
X104700000Y-106540000D03*
X104700000Y-109080000D03*
X104700000Y-111620000D03*
X104700000Y-114160000D03*
X104700000Y-116700000D03*
X104700000Y-119240000D03*
%TD*%
%TO.C,J1*%
X122480000Y-119240000D03*
X122480000Y-116700000D03*
X122480000Y-114160000D03*
X122480000Y-111620000D03*
X122480000Y-109080000D03*
X122480000Y-106540000D03*
X122480000Y-104000000D03*
X122480000Y-101460000D03*
X122480000Y-98920000D03*
X122480000Y-96380000D03*
X122480000Y-93840000D03*
D12*
X122480000Y-91300000D03*
%TD*%
M02*
