M48
; DRILL file {KiCad (5.1.9-0-10_14)} date Saturday, January 09, 2021 at 10:25:49 PM
; FORMAT={-:-/ absolute / inch / decimal}
; #@! TF.CreationDate,2021-01-09T22:25:49+11:00
; #@! TF.GenerationSoftware,Kicad,Pcbnew,(5.1.9-0-10_14)
; #@! TF.FileFunction,Plated,1,2,PTH
FMAT,2
INCH
T1C0.0079
T2C0.0236
T3C0.0394
T4C0.0598
%
G90
G05
T1
X4.1225Y-3.4981
X4.1236Y-3.4755
X4.1874Y-3.4457
X4.2005Y-3.524
X4.2005Y-3.5518
X4.2005Y-3.6936
X4.2005Y-3.8478
X4.2005Y-3.8881
X4.2005Y-4.052
X4.2005Y-4.2877
X4.2005Y-4.4367
X4.2005Y-4.4806
X4.2005Y-4.5863
X4.2005Y-4.732
X4.2313Y-3.7372
X4.2333Y-3.812
X4.2333Y-3.9596
X4.2343Y-3.6644
X4.2499Y-4.0304
X4.2614Y-4.5512
X4.2614Y-4.6988
X4.2618Y-3.6654
X4.2618Y-3.8114
X4.2618Y-3.9596
X4.2624Y-4.3976
X4.271Y-3.7476
X4.2711Y-4.022
X4.2831Y-3.7283
X4.2848Y-4.4043
X4.3066Y-4.0305
X4.3114Y-4.5177
X4.3114Y-4.585
X4.3114Y-4.6654
X4.3114Y-4.7323
X4.3118Y-4.3685
X4.3143Y-3.8725
X4.3225Y-3.8513
X4.3627Y-4.0956
X4.364Y-3.722
X4.364Y-3.7448
X4.364Y-3.7675
X4.3709Y-4.1802
X4.3858Y-4.1626
X4.3861Y-4.1371
X4.3986Y-3.498
X4.4222Y-4.2546
X4.4222Y-4.4961
X4.4224Y-4.3
X4.4225Y-4.2773
X4.4262Y-4.002
X4.4301Y-3.8799
X4.4459Y-3.498
X4.4459Y-3.5285
X4.4537Y-4.2027
X4.4604Y-4.7266
X4.4659Y-4.4043
X4.4675Y-3.8839
X4.4744Y-4.0551
X4.4744Y-4.1841
X4.4818Y-4.3865
X4.4872Y-4.7264
X4.4921Y-4.4961
X4.4921Y-4.5295
X4.4963Y-4.3687
X4.5079Y-3.8012
X4.511Y-3.8969
X4.5166Y-4.6894
X4.5315Y-4.4272
X4.5326Y-4.6734
X4.5335Y-3.9116
X4.5363Y-4.3984
X4.564Y-3.3061
X4.564Y-4.0551
X4.564Y-4.1841
X4.564Y-4.4203
X4.5906Y-3.8848
X4.5929Y-4.376
X4.6055Y-4.3949
X4.6287Y-4.4181
X4.6299Y-3.1093
X4.6299Y-3.3031
X4.6466Y-4.1512
X4.6555Y-3.9961
X4.6585Y-4.7333
X4.6614Y-4.0738
X4.6624Y-4.0197
X4.6638Y-4.1364
X4.6673Y-4.0453
X4.6779Y-4.1186
X4.7254Y-3.1555
T2
X4.503Y-4.1004
X4.503Y-4.1398
X4.5394Y-4.1004
X4.5394Y-4.1398
T3
X4.122Y-3.5945
X4.122Y-3.6945
X4.122Y-3.7945
X4.122Y-3.8945
X4.122Y-3.9945
X4.122Y-4.0945
X4.122Y-4.1945
X4.122Y-4.2945
X4.122Y-4.3945
X4.122Y-4.4945
X4.122Y-4.5945
X4.122Y-4.6945
X4.1319Y-3.0138
X4.1319Y-3.1138
X4.3996Y-3.5654
X4.3996Y-3.6654
X4.565Y-3.626
X4.565Y-3.726
X4.7156Y-2.7559
X4.7156Y-2.8559
X4.722Y-3.5945
X4.722Y-3.6945
X4.722Y-3.7945
X4.722Y-3.8945
X4.722Y-3.9945
X4.722Y-4.0945
X4.722Y-4.1945
X4.722Y-4.2945
X4.722Y-4.3945
X4.722Y-4.4945
X4.722Y-4.5945
X4.722Y-4.6945
T4
X4.3228Y-2.7707
X4.5228Y-2.7707
T0
M30
