%TF.GenerationSoftware,KiCad,Pcbnew,(5.1.9-0-10_14)*%
%TF.CreationDate,2021-01-20T14:18:15+11:00*%
%TF.ProjectId,ControlBreakout,436f6e74-726f-46c4-9272-65616b6f7574,rev?*%
%TF.SameCoordinates,Original*%
%TF.FileFunction,Legend,Top*%
%TF.FilePolarity,Positive*%
%FSLAX46Y46*%
G04 Gerber Fmt 4.6, Leading zero omitted, Abs format (unit mm)*
G04 Created by KiCad (PCBNEW (5.1.9-0-10_14)) date 2021-01-20 14:18:15*
%MOMM*%
%LPD*%
G01*
G04 APERTURE LIST*
%ADD10C,0.150000*%
%ADD11C,0.120000*%
G04 APERTURE END LIST*
D10*
X108840952Y-67152380D02*
X108840952Y-67866666D01*
X108793333Y-68009523D01*
X108698095Y-68104761D01*
X108555238Y-68152380D01*
X108460000Y-68152380D01*
X109793333Y-68152380D02*
X109317142Y-68152380D01*
X109317142Y-67152380D01*
X110698095Y-68057142D02*
X110650476Y-68104761D01*
X110507619Y-68152380D01*
X110412380Y-68152380D01*
X110269523Y-68104761D01*
X110174285Y-68009523D01*
X110126666Y-67914285D01*
X110079047Y-67723809D01*
X110079047Y-67580952D01*
X110126666Y-67390476D01*
X110174285Y-67295238D01*
X110269523Y-67200000D01*
X110412380Y-67152380D01*
X110507619Y-67152380D01*
X110650476Y-67200000D01*
X110698095Y-67247619D01*
X111412380Y-67152380D02*
X111412380Y-67866666D01*
X111364761Y-68009523D01*
X111269523Y-68104761D01*
X111126666Y-68152380D01*
X111031428Y-68152380D01*
X112364761Y-68152380D02*
X111888571Y-68152380D01*
X111888571Y-67152380D01*
X113269523Y-68057142D02*
X113221904Y-68104761D01*
X113079047Y-68152380D01*
X112983809Y-68152380D01*
X112840952Y-68104761D01*
X112745714Y-68009523D01*
X112698095Y-67914285D01*
X112650476Y-67723809D01*
X112650476Y-67580952D01*
X112698095Y-67390476D01*
X112745714Y-67295238D01*
X112840952Y-67200000D01*
X112983809Y-67152380D01*
X113079047Y-67152380D01*
X113221904Y-67200000D01*
X113269523Y-67247619D01*
X113983809Y-67152380D02*
X113983809Y-67866666D01*
X113936190Y-68009523D01*
X113840952Y-68104761D01*
X113698095Y-68152380D01*
X113602857Y-68152380D01*
X114936190Y-68152380D02*
X114460000Y-68152380D01*
X114460000Y-67152380D01*
X115840952Y-68057142D02*
X115793333Y-68104761D01*
X115650476Y-68152380D01*
X115555238Y-68152380D01*
X115412380Y-68104761D01*
X115317142Y-68009523D01*
X115269523Y-67914285D01*
X115221904Y-67723809D01*
X115221904Y-67580952D01*
X115269523Y-67390476D01*
X115317142Y-67295238D01*
X115412380Y-67200000D01*
X115555238Y-67152380D01*
X115650476Y-67152380D01*
X115793333Y-67200000D01*
X115840952Y-67247619D01*
X116555238Y-67152380D02*
X116555238Y-67866666D01*
X116507619Y-68009523D01*
X116412380Y-68104761D01*
X116269523Y-68152380D01*
X116174285Y-68152380D01*
X117507619Y-68152380D02*
X117031428Y-68152380D01*
X117031428Y-67152380D01*
X118412380Y-68057142D02*
X118364761Y-68104761D01*
X118221904Y-68152380D01*
X118126666Y-68152380D01*
X117983809Y-68104761D01*
X117888571Y-68009523D01*
X117840952Y-67914285D01*
X117793333Y-67723809D01*
X117793333Y-67580952D01*
X117840952Y-67390476D01*
X117888571Y-67295238D01*
X117983809Y-67200000D01*
X118126666Y-67152380D01*
X118221904Y-67152380D01*
X118364761Y-67200000D01*
X118412380Y-67247619D01*
X109852380Y-94776190D02*
X109852380Y-94157142D01*
X110233333Y-94490476D01*
X110233333Y-94347619D01*
X110280952Y-94252380D01*
X110328571Y-94204761D01*
X110423809Y-94157142D01*
X110661904Y-94157142D01*
X110757142Y-94204761D01*
X110804761Y-94252380D01*
X110852380Y-94347619D01*
X110852380Y-94633333D01*
X110804761Y-94728571D01*
X110757142Y-94776190D01*
X110757142Y-93728571D02*
X110804761Y-93680952D01*
X110852380Y-93728571D01*
X110804761Y-93776190D01*
X110757142Y-93728571D01*
X110852380Y-93728571D01*
X109852380Y-93347619D02*
X109852380Y-92728571D01*
X110233333Y-93061904D01*
X110233333Y-92919047D01*
X110280952Y-92823809D01*
X110328571Y-92776190D01*
X110423809Y-92728571D01*
X110661904Y-92728571D01*
X110757142Y-92776190D01*
X110804761Y-92823809D01*
X110852380Y-92919047D01*
X110852380Y-93204761D01*
X110804761Y-93300000D01*
X110757142Y-93347619D01*
X109852380Y-92442857D02*
X110852380Y-92109523D01*
X109852380Y-91776190D01*
X120338095Y-74675000D02*
X120242857Y-74627380D01*
X120100000Y-74627380D01*
X119957142Y-74675000D01*
X119861904Y-74770238D01*
X119814285Y-74865476D01*
X119766666Y-75055952D01*
X119766666Y-75198809D01*
X119814285Y-75389285D01*
X119861904Y-75484523D01*
X119957142Y-75579761D01*
X120100000Y-75627380D01*
X120195238Y-75627380D01*
X120338095Y-75579761D01*
X120385714Y-75532142D01*
X120385714Y-75198809D01*
X120195238Y-75198809D01*
X120814285Y-75627380D02*
X120814285Y-74627380D01*
X121385714Y-75627380D01*
X121385714Y-74627380D01*
X121861904Y-75627380D02*
X121861904Y-74627380D01*
X122100000Y-74627380D01*
X122242857Y-74675000D01*
X122338095Y-74770238D01*
X122385714Y-74865476D01*
X122433333Y-75055952D01*
X122433333Y-75198809D01*
X122385714Y-75389285D01*
X122338095Y-75484523D01*
X122242857Y-75579761D01*
X122100000Y-75627380D01*
X121861904Y-75627380D01*
X118500000Y-89411904D02*
X118452380Y-89507142D01*
X118452380Y-89650000D01*
X118500000Y-89792857D01*
X118595238Y-89888095D01*
X118690476Y-89935714D01*
X118880952Y-89983333D01*
X119023809Y-89983333D01*
X119214285Y-89935714D01*
X119309523Y-89888095D01*
X119404761Y-89792857D01*
X119452380Y-89650000D01*
X119452380Y-89554761D01*
X119404761Y-89411904D01*
X119357142Y-89364285D01*
X119023809Y-89364285D01*
X119023809Y-89554761D01*
X119452380Y-88935714D02*
X118452380Y-88935714D01*
X119452380Y-88364285D01*
X118452380Y-88364285D01*
X119452380Y-87888095D02*
X118452380Y-87888095D01*
X118452380Y-87650000D01*
X118500000Y-87507142D01*
X118595238Y-87411904D01*
X118690476Y-87364285D01*
X118880952Y-87316666D01*
X119023809Y-87316666D01*
X119214285Y-87364285D01*
X119309523Y-87411904D01*
X119404761Y-87507142D01*
X119452380Y-87650000D01*
X119452380Y-87888095D01*
X105738095Y-73500000D02*
X105642857Y-73452380D01*
X105500000Y-73452380D01*
X105357142Y-73500000D01*
X105261904Y-73595238D01*
X105214285Y-73690476D01*
X105166666Y-73880952D01*
X105166666Y-74023809D01*
X105214285Y-74214285D01*
X105261904Y-74309523D01*
X105357142Y-74404761D01*
X105500000Y-74452380D01*
X105595238Y-74452380D01*
X105738095Y-74404761D01*
X105785714Y-74357142D01*
X105785714Y-74023809D01*
X105595238Y-74023809D01*
X106214285Y-74452380D02*
X106214285Y-73452380D01*
X106785714Y-74452380D01*
X106785714Y-73452380D01*
X107261904Y-74452380D02*
X107261904Y-73452380D01*
X107500000Y-73452380D01*
X107642857Y-73500000D01*
X107738095Y-73595238D01*
X107785714Y-73690476D01*
X107833333Y-73880952D01*
X107833333Y-74023809D01*
X107785714Y-74214285D01*
X107738095Y-74309523D01*
X107642857Y-74404761D01*
X107500000Y-74452380D01*
X107261904Y-74452380D01*
X120138095Y-67000000D02*
X120042857Y-66952380D01*
X119900000Y-66952380D01*
X119757142Y-67000000D01*
X119661904Y-67095238D01*
X119614285Y-67190476D01*
X119566666Y-67380952D01*
X119566666Y-67523809D01*
X119614285Y-67714285D01*
X119661904Y-67809523D01*
X119757142Y-67904761D01*
X119900000Y-67952380D01*
X119995238Y-67952380D01*
X120138095Y-67904761D01*
X120185714Y-67857142D01*
X120185714Y-67523809D01*
X119995238Y-67523809D01*
X120614285Y-67952380D02*
X120614285Y-66952380D01*
X121185714Y-67952380D01*
X121185714Y-66952380D01*
X121661904Y-67952380D02*
X121661904Y-66952380D01*
X121900000Y-66952380D01*
X122042857Y-67000000D01*
X122138095Y-67095238D01*
X122185714Y-67190476D01*
X122233333Y-67380952D01*
X122233333Y-67523809D01*
X122185714Y-67714285D01*
X122138095Y-67809523D01*
X122042857Y-67904761D01*
X121900000Y-67952380D01*
X121661904Y-67952380D01*
X107471428Y-72061904D02*
X107471428Y-71300000D01*
X107852380Y-71680952D02*
X107090476Y-71680952D01*
X107852380Y-70300000D02*
X107852380Y-70871428D01*
X107852380Y-70585714D02*
X106852380Y-70585714D01*
X106995238Y-70680952D01*
X107090476Y-70776190D01*
X107138095Y-70871428D01*
X106947619Y-69919047D02*
X106900000Y-69871428D01*
X106852380Y-69776190D01*
X106852380Y-69538095D01*
X106900000Y-69442857D01*
X106947619Y-69395238D01*
X107042857Y-69347619D01*
X107138095Y-69347619D01*
X107280952Y-69395238D01*
X107852380Y-69966666D01*
X107852380Y-69347619D01*
X106852380Y-69061904D02*
X107852380Y-68728571D01*
X106852380Y-68395238D01*
D11*
%TO.C,U1*%
X115920000Y-120615000D02*
X118120000Y-120615000D01*
X115920000Y-120615000D02*
X113720000Y-120615000D01*
X115920000Y-113845000D02*
X118120000Y-113845000D01*
X115920000Y-113845000D02*
X112320000Y-113845000D01*
%TO.C,U4*%
X110490000Y-107760000D02*
X110490000Y-108210000D01*
X110490000Y-108210000D02*
X110940000Y-108210000D01*
X110490000Y-101440000D02*
X110490000Y-100990000D01*
X110490000Y-100990000D02*
X110940000Y-100990000D01*
X117710000Y-107760000D02*
X117710000Y-108210000D01*
X117710000Y-108210000D02*
X117260000Y-108210000D01*
X117710000Y-101440000D02*
X117710000Y-100990000D01*
X117710000Y-100990000D02*
X117260000Y-100990000D01*
X117260000Y-100990000D02*
X117260000Y-99700000D01*
%TO.C,R9*%
X117162742Y-111277500D02*
X117637258Y-111277500D01*
X117162742Y-112322500D02*
X117637258Y-112322500D01*
%TO.C,C9*%
X121110000Y-108484420D02*
X121110000Y-108765580D01*
X120090000Y-108484420D02*
X120090000Y-108765580D01*
%TO.C,R1*%
X120077500Y-102637258D02*
X120077500Y-102162742D01*
X121122500Y-102637258D02*
X121122500Y-102162742D01*
%TO.C,C8*%
X107211252Y-83610000D02*
X105788748Y-83610000D01*
X107211252Y-81790000D02*
X105788748Y-81790000D01*
%TO.C,C7*%
X107211252Y-86010000D02*
X105788748Y-86010000D01*
X107211252Y-84190000D02*
X105788748Y-84190000D01*
%TO.C,C5*%
X120090000Y-105640580D02*
X120090000Y-105359420D01*
X121110000Y-105640580D02*
X121110000Y-105359420D01*
%TO.C,C3*%
X119510000Y-109359420D02*
X119510000Y-109640580D01*
X118490000Y-109359420D02*
X118490000Y-109640580D01*
%TO.C,D6*%
X105800000Y-105850000D02*
X108200000Y-105850000D01*
X108200000Y-105850000D02*
X108200000Y-102750000D01*
X108200000Y-102750000D02*
X105800000Y-102750000D01*
X105800000Y-102750000D02*
X105800000Y-105850000D01*
X108200000Y-103250000D02*
X107700000Y-102750000D01*
%TO.C,D3*%
X108200000Y-92025000D02*
X107700000Y-91525000D01*
X105800000Y-91525000D02*
X105800000Y-94625000D01*
X108200000Y-91525000D02*
X105800000Y-91525000D01*
X108200000Y-94625000D02*
X108200000Y-91525000D01*
X105800000Y-94625000D02*
X108200000Y-94625000D01*
%TO.C,J7*%
X119545000Y-73870000D02*
X122205000Y-73870000D01*
X119545000Y-71270000D02*
X119545000Y-73870000D01*
X122205000Y-71270000D02*
X122205000Y-73870000D01*
X119545000Y-71270000D02*
X122205000Y-71270000D01*
X119545000Y-70000000D02*
X119545000Y-68670000D01*
X119545000Y-68670000D02*
X120875000Y-68670000D01*
%TO.C,J6*%
X118520000Y-72915000D02*
X108360000Y-72915000D01*
X118520000Y-74185000D02*
X118520000Y-66565000D01*
X118520000Y-66565000D02*
X108360000Y-66565000D01*
X108360000Y-66565000D02*
X108360000Y-74185000D01*
X108360000Y-74185000D02*
X118520000Y-74185000D01*
%TO.C,J4*%
X105520000Y-80420000D02*
X108180000Y-80420000D01*
X105520000Y-77820000D02*
X105520000Y-80420000D01*
X108180000Y-77820000D02*
X108180000Y-80420000D01*
X105520000Y-77820000D02*
X108180000Y-77820000D01*
X105520000Y-76550000D02*
X105520000Y-75220000D01*
X105520000Y-75220000D02*
X106850000Y-75220000D01*
%TO.C,J5*%
X115720000Y-95970000D02*
X118380000Y-95970000D01*
X115720000Y-93370000D02*
X115720000Y-95970000D01*
X118380000Y-93370000D02*
X118380000Y-95970000D01*
X115720000Y-93370000D02*
X118380000Y-93370000D01*
X115720000Y-92100000D02*
X115720000Y-90770000D01*
X115720000Y-90770000D02*
X117050000Y-90770000D01*
%TO.C,C6*%
X117840000Y-87788748D02*
X117840000Y-88311252D01*
X116370000Y-87788748D02*
X116370000Y-88311252D01*
%TO.C,C4*%
X120260000Y-78238748D02*
X120260000Y-79661252D01*
X118440000Y-78238748D02*
X118440000Y-79661252D01*
%TO.C,U3*%
X119385000Y-84805000D02*
X119385000Y-83045000D01*
X116315000Y-83045000D02*
X116315000Y-85475000D01*
%TO.C,R8*%
X116462742Y-96777500D02*
X116937258Y-96777500D01*
X116462742Y-97822500D02*
X116937258Y-97822500D01*
%TO.C,R7*%
X121767258Y-87852500D02*
X121292742Y-87852500D01*
X121767258Y-88897500D02*
X121292742Y-88897500D01*
%TO.C,R6*%
X121292742Y-86252500D02*
X121767258Y-86252500D01*
X121292742Y-87297500D02*
X121767258Y-87297500D01*
%TO.C,R5*%
X121767258Y-85697500D02*
X121292742Y-85697500D01*
X121767258Y-84652500D02*
X121292742Y-84652500D01*
%TO.C,R4*%
X121762258Y-83847500D02*
X121287742Y-83847500D01*
X121762258Y-82802500D02*
X121287742Y-82802500D01*
%TO.C,R3*%
X122785000Y-79422936D02*
X122785000Y-80877064D01*
X120965000Y-79422936D02*
X120965000Y-80877064D01*
%TO.C,R2*%
X114577258Y-113392500D02*
X114102742Y-113392500D01*
X114577258Y-112347500D02*
X114102742Y-112347500D01*
%TO.C,Q1*%
X110090000Y-74820000D02*
X110090000Y-75750000D01*
X110090000Y-77980000D02*
X110090000Y-77050000D01*
X110090000Y-77980000D02*
X112250000Y-77980000D01*
X110090000Y-74820000D02*
X111550000Y-74820000D01*
%TO.C,L1*%
X114900000Y-87100000D02*
X109300000Y-87100000D01*
X114900000Y-81700000D02*
X109300000Y-81700000D01*
X114900000Y-87100000D02*
X114900000Y-85950000D01*
X114900000Y-81700000D02*
X114900000Y-82850000D01*
X109300000Y-87100000D02*
X109300000Y-85950000D01*
X109300000Y-81700000D02*
X109300000Y-82850000D01*
%TO.C,J3*%
X114180000Y-94430000D02*
X112850000Y-94430000D01*
X114180000Y-93100000D02*
X114180000Y-94430000D01*
X114180000Y-91830000D02*
X111520000Y-91830000D01*
X111520000Y-91830000D02*
X111520000Y-89230000D01*
X114180000Y-91830000D02*
X114180000Y-89230000D01*
X114180000Y-89230000D02*
X111520000Y-89230000D01*
%TO.C,FB1*%
X117774622Y-76035000D02*
X116975378Y-76035000D01*
X117774622Y-74915000D02*
X116975378Y-74915000D01*
%TO.C,F1*%
X115110000Y-76322936D02*
X115110000Y-77527064D01*
X113290000Y-76322936D02*
X113290000Y-77527064D01*
%TO.C,D12*%
X112700000Y-96535000D02*
X114985000Y-96535000D01*
X114985000Y-96535000D02*
X114985000Y-95065000D01*
X114985000Y-95065000D02*
X112700000Y-95065000D01*
%TO.C,D11*%
X105800000Y-120900000D02*
X108200000Y-120900000D01*
X108200000Y-120900000D02*
X108200000Y-117800000D01*
X108200000Y-117800000D02*
X105800000Y-117800000D01*
X105800000Y-117800000D02*
X105800000Y-120900000D01*
X108200000Y-118300000D02*
X107700000Y-117800000D01*
%TO.C,D10*%
X105800000Y-117150000D02*
X108200000Y-117150000D01*
X108200000Y-117150000D02*
X108200000Y-114050000D01*
X108200000Y-114050000D02*
X105800000Y-114050000D01*
X105800000Y-114050000D02*
X105800000Y-117150000D01*
X108200000Y-114550000D02*
X107700000Y-114050000D01*
%TO.C,D9*%
X115780000Y-81250000D02*
X117780000Y-81250000D01*
X117780000Y-81250000D02*
X117780000Y-77350000D01*
X115780000Y-81250000D02*
X115780000Y-77350000D01*
%TO.C,D8*%
X108200000Y-110800000D02*
X107700000Y-110300000D01*
X105800000Y-110300000D02*
X105800000Y-113400000D01*
X108200000Y-110300000D02*
X105800000Y-110300000D01*
X108200000Y-113400000D02*
X108200000Y-110300000D01*
X105800000Y-113400000D02*
X108200000Y-113400000D01*
%TO.C,D7*%
X105800000Y-109650000D02*
X108200000Y-109650000D01*
X108200000Y-109650000D02*
X108200000Y-106550000D01*
X108200000Y-106550000D02*
X105800000Y-106550000D01*
X105800000Y-106550000D02*
X105800000Y-109650000D01*
X108200000Y-107050000D02*
X107700000Y-106550000D01*
%TO.C,D5*%
X105800000Y-102125000D02*
X108200000Y-102125000D01*
X108200000Y-102125000D02*
X108200000Y-99025000D01*
X108200000Y-99025000D02*
X105800000Y-99025000D01*
X105800000Y-99025000D02*
X105800000Y-102125000D01*
X108200000Y-99525000D02*
X107700000Y-99025000D01*
%TO.C,D4*%
X105800000Y-98375000D02*
X108200000Y-98375000D01*
X108200000Y-98375000D02*
X108200000Y-95275000D01*
X108200000Y-95275000D02*
X105800000Y-95275000D01*
X105800000Y-95275000D02*
X105800000Y-98375000D01*
X108200000Y-95775000D02*
X107700000Y-95275000D01*
%TO.C,D2*%
X106850000Y-90950000D02*
X109250000Y-90950000D01*
X109250000Y-90950000D02*
X109250000Y-87850000D01*
X109250000Y-87850000D02*
X106850000Y-87850000D01*
X106850000Y-87850000D02*
X106850000Y-90950000D01*
X109250000Y-88350000D02*
X108750000Y-87850000D01*
%TO.C,D1*%
X106700000Y-88950000D02*
X106700000Y-86550000D01*
X106700000Y-86550000D02*
X103600000Y-86550000D01*
X103600000Y-86550000D02*
X103600000Y-88950000D01*
X103600000Y-88950000D02*
X106700000Y-88950000D01*
X104100000Y-86550000D02*
X103600000Y-87050000D01*
%TO.C,C2*%
X116712164Y-112770000D02*
X116927836Y-112770000D01*
X116712164Y-113490000D02*
X116927836Y-113490000D01*
%TO.C,C1*%
X118712164Y-112770000D02*
X118927836Y-112770000D01*
X118712164Y-113490000D02*
X118927836Y-113490000D01*
%TO.C,C8*%
D10*
X106333333Y-84907142D02*
X106285714Y-84954761D01*
X106142857Y-85002380D01*
X106047619Y-85002380D01*
X105904761Y-84954761D01*
X105809523Y-84859523D01*
X105761904Y-84764285D01*
X105714285Y-84573809D01*
X105714285Y-84430952D01*
X105761904Y-84240476D01*
X105809523Y-84145238D01*
X105904761Y-84050000D01*
X106047619Y-84002380D01*
X106142857Y-84002380D01*
X106285714Y-84050000D01*
X106333333Y-84097619D01*
X106904761Y-84430952D02*
X106809523Y-84383333D01*
X106761904Y-84335714D01*
X106714285Y-84240476D01*
X106714285Y-84192857D01*
X106761904Y-84097619D01*
X106809523Y-84050000D01*
X106904761Y-84002380D01*
X107095238Y-84002380D01*
X107190476Y-84050000D01*
X107238095Y-84097619D01*
X107285714Y-84192857D01*
X107285714Y-84240476D01*
X107238095Y-84335714D01*
X107190476Y-84383333D01*
X107095238Y-84430952D01*
X106904761Y-84430952D01*
X106809523Y-84478571D01*
X106761904Y-84526190D01*
X106714285Y-84621428D01*
X106714285Y-84811904D01*
X106761904Y-84907142D01*
X106809523Y-84954761D01*
X106904761Y-85002380D01*
X107095238Y-85002380D01*
X107190476Y-84954761D01*
X107238095Y-84907142D01*
X107285714Y-84811904D01*
X107285714Y-84621428D01*
X107238095Y-84526190D01*
X107190476Y-84478571D01*
X107095238Y-84430952D01*
%TO.C,C7*%
X106333333Y-87307142D02*
X106285714Y-87354761D01*
X106142857Y-87402380D01*
X106047619Y-87402380D01*
X105904761Y-87354761D01*
X105809523Y-87259523D01*
X105761904Y-87164285D01*
X105714285Y-86973809D01*
X105714285Y-86830952D01*
X105761904Y-86640476D01*
X105809523Y-86545238D01*
X105904761Y-86450000D01*
X106047619Y-86402380D01*
X106142857Y-86402380D01*
X106285714Y-86450000D01*
X106333333Y-86497619D01*
X106666666Y-86402380D02*
X107333333Y-86402380D01*
X106904761Y-87402380D01*
%TO.C,D3*%
X105452380Y-93813095D02*
X104452380Y-93813095D01*
X104452380Y-93575000D01*
X104500000Y-93432142D01*
X104595238Y-93336904D01*
X104690476Y-93289285D01*
X104880952Y-93241666D01*
X105023809Y-93241666D01*
X105214285Y-93289285D01*
X105309523Y-93336904D01*
X105404761Y-93432142D01*
X105452380Y-93575000D01*
X105452380Y-93813095D01*
X104452380Y-92908333D02*
X104452380Y-92289285D01*
X104833333Y-92622619D01*
X104833333Y-92479761D01*
X104880952Y-92384523D01*
X104928571Y-92336904D01*
X105023809Y-92289285D01*
X105261904Y-92289285D01*
X105357142Y-92336904D01*
X105404761Y-92384523D01*
X105452380Y-92479761D01*
X105452380Y-92765476D01*
X105404761Y-92860714D01*
X105357142Y-92908333D01*
%TD*%
M02*
