%TF.GenerationSoftware,KiCad,Pcbnew,(5.1.9-0-10_14)*%
%TF.CreationDate,2021-01-20T14:18:15+11:00*%
%TF.ProjectId,ControlBreakout,436f6e74-726f-46c4-9272-65616b6f7574,rev?*%
%TF.SameCoordinates,Original*%
%TF.FileFunction,Copper,L2,Bot*%
%TF.FilePolarity,Positive*%
%FSLAX46Y46*%
G04 Gerber Fmt 4.6, Leading zero omitted, Abs format (unit mm)*
G04 Created by KiCad (PCBNEW (5.1.9-0-10_14)) date 2021-01-20 14:18:15*
%MOMM*%
%LPD*%
G01*
G04 APERTURE LIST*
%TA.AperFunction,ComponentPad*%
%ADD10O,1.700000X1.700000*%
%TD*%
%TA.AperFunction,ComponentPad*%
%ADD11R,1.700000X1.700000*%
%TD*%
%TA.AperFunction,ComponentPad*%
%ADD12C,3.000000*%
%TD*%
%TA.AperFunction,ComponentPad*%
%ADD13R,3.000000X3.000000*%
%TD*%
%TA.AperFunction,ViaPad*%
%ADD14C,1.500000*%
%TD*%
%TA.AperFunction,ViaPad*%
%ADD15C,0.450000*%
%TD*%
%TA.AperFunction,ViaPad*%
%ADD16C,2.000000*%
%TD*%
%TA.AperFunction,ViaPad*%
%ADD17C,0.800000*%
%TD*%
%TA.AperFunction,Conductor*%
%ADD18C,0.500000*%
%TD*%
%TA.AperFunction,Conductor*%
%ADD19C,0.250000*%
%TD*%
%TA.AperFunction,Conductor*%
%ADD20C,0.200000*%
%TD*%
%TA.AperFunction,Conductor*%
%ADD21C,0.254000*%
%TD*%
%TA.AperFunction,Conductor*%
%ADD22C,0.100000*%
%TD*%
G04 APERTURE END LIST*
D10*
%TO.P,J7,2*%
%TO.N,GND*%
X120875000Y-72540000D03*
D11*
%TO.P,J7,1*%
X120875000Y-70000000D03*
%TD*%
D12*
%TO.P,J6,2*%
%TO.N,GND*%
X115980000Y-70375000D03*
D13*
%TO.P,J6,1*%
%TO.N,+12V*%
X110900000Y-70375000D03*
%TD*%
D10*
%TO.P,J4,2*%
%TO.N,GND*%
X106850000Y-79090000D03*
D11*
%TO.P,J4,1*%
X106850000Y-76550000D03*
%TD*%
D10*
%TO.P,J5,2*%
%TO.N,GND*%
X117050000Y-94640000D03*
D11*
%TO.P,J5,1*%
X117050000Y-92100000D03*
%TD*%
%TO.P,J3,1*%
%TO.N,+3V3*%
X112850000Y-93100000D03*
D10*
%TO.P,J3,2*%
%TO.N,Net-(C7-Pad1)*%
X112850000Y-90560000D03*
%TD*%
D11*
%TO.P,J2,1*%
%TO.N,GND*%
X104700000Y-91300000D03*
D10*
%TO.P,J2,2*%
X104700000Y-93840000D03*
%TO.P,J2,3*%
X104700000Y-96380000D03*
%TO.P,J2,4*%
X104700000Y-98920000D03*
%TO.P,J2,5*%
X104700000Y-101460000D03*
%TO.P,J2,6*%
X104700000Y-104000000D03*
%TO.P,J2,7*%
X104700000Y-106540000D03*
%TO.P,J2,8*%
X104700000Y-109080000D03*
%TO.P,J2,9*%
X104700000Y-111620000D03*
%TO.P,J2,10*%
%TO.N,I2C_INT_1*%
X104700000Y-114160000D03*
%TO.P,J2,11*%
%TO.N,I2C_SDA_1*%
X104700000Y-116700000D03*
%TO.P,J2,12*%
%TO.N,I2C_SCL_1*%
X104700000Y-119240000D03*
%TD*%
%TO.P,J1,12*%
%TO.N,I2C_INT_4*%
X122480000Y-119240000D03*
%TO.P,J1,11*%
%TO.N,I2C_SDA_4*%
X122480000Y-116700000D03*
%TO.P,J1,10*%
%TO.N,I2C_SCL_4*%
X122480000Y-114160000D03*
%TO.P,J1,9*%
%TO.N,I2C_INT_IN*%
X122480000Y-111620000D03*
%TO.P,J1,8*%
%TO.N,I2C_SCL_IN*%
X122480000Y-109080000D03*
%TO.P,J1,7*%
%TO.N,I2C_SDA_IN*%
X122480000Y-106540000D03*
%TO.P,J1,6*%
%TO.N,GND*%
X122480000Y-104000000D03*
%TO.P,J1,5*%
X122480000Y-101460000D03*
%TO.P,J1,4*%
X122480000Y-98920000D03*
%TO.P,J1,3*%
%TO.N,+3V3*%
X122480000Y-96380000D03*
%TO.P,J1,2*%
X122480000Y-93840000D03*
D11*
%TO.P,J1,1*%
%TO.N,GND*%
X122480000Y-91300000D03*
%TD*%
D14*
%TO.N,GND*%
X112500000Y-106200000D03*
D15*
X119500000Y-78975000D03*
X121925000Y-80150000D03*
X119500000Y-83900000D03*
X117825000Y-83975000D03*
D14*
X115600000Y-103100000D03*
X115500000Y-106100000D03*
D16*
X114100000Y-104600000D03*
D14*
X112500000Y-103000000D03*
D17*
X111500000Y-114950000D03*
X111500000Y-120150000D03*
X115591922Y-111891922D03*
X119725000Y-111875000D03*
X121125000Y-97475000D03*
X120200000Y-100300000D03*
D15*
X108300000Y-98600000D03*
X108800000Y-99100000D03*
X109400000Y-99700000D03*
X108500000Y-99700000D03*
X105500000Y-115400000D03*
X109900000Y-95100000D03*
X111200000Y-96400000D03*
X110500000Y-95800000D03*
X115100000Y-95500000D03*
X115900000Y-96300000D03*
X120200000Y-95700000D03*
X121100000Y-94800000D03*
X121100000Y-95700000D03*
X111200000Y-107500000D03*
X117100000Y-107600000D03*
X117100000Y-101600000D03*
X111100000Y-101600000D03*
X120600000Y-116900000D03*
X121100000Y-116500000D03*
X123300000Y-115400000D03*
X123300000Y-112900000D03*
X123300000Y-110300000D03*
X123300000Y-118000000D03*
X123300000Y-120500000D03*
X120100000Y-113200000D03*
X112600000Y-113300000D03*
X114400000Y-117000000D03*
X114800000Y-118500000D03*
X117300000Y-119000000D03*
X117300000Y-120400000D03*
X120200000Y-119000000D03*
X120200000Y-120400000D03*
X121300000Y-120400000D03*
X121100000Y-119000000D03*
X111500000Y-118700000D03*
X111500000Y-119300000D03*
X109700000Y-120500000D03*
X110300000Y-119900000D03*
X110800000Y-119300000D03*
X110800000Y-120500000D03*
X109700000Y-117000000D03*
X110600000Y-116100000D03*
X109400000Y-111200000D03*
X109400000Y-109300000D03*
X110500000Y-109300000D03*
X110500000Y-110100000D03*
X109400000Y-110200000D03*
X110000000Y-108600000D03*
X110500000Y-108100000D03*
X117700000Y-100900000D03*
X117600000Y-100300000D03*
X118200000Y-101200000D03*
X119300000Y-99400000D03*
X118800000Y-94600000D03*
X118800000Y-93600000D03*
X118800000Y-92700000D03*
X118800000Y-91800000D03*
X119600000Y-93100000D03*
X119600000Y-92200000D03*
X119600000Y-94000000D03*
X120100000Y-91400000D03*
X120700000Y-90700000D03*
X120300000Y-92700000D03*
X120700000Y-92000000D03*
X121100000Y-93000000D03*
X114600000Y-92600000D03*
X115300000Y-91900000D03*
X115200000Y-93300000D03*
X111500000Y-92800000D03*
X111100000Y-86500000D03*
X113100000Y-86500000D03*
X111900000Y-87500000D03*
X112900000Y-88500000D03*
X113800000Y-89500000D03*
X114600000Y-90400000D03*
X114000000Y-87500000D03*
X115000000Y-88500000D03*
X115700000Y-89700000D03*
X119000000Y-87000000D03*
X119000000Y-88000000D03*
X119000000Y-89100000D03*
X118400000Y-90100000D03*
X112100000Y-85300000D03*
X112100000Y-83500000D03*
X110000000Y-81900000D03*
X110000000Y-80200000D03*
X110000000Y-78300000D03*
X112100000Y-81900000D03*
X112000000Y-80200000D03*
X113900000Y-80200000D03*
X113900000Y-81900000D03*
X116300000Y-79100000D03*
X115600000Y-81900000D03*
X108200000Y-80800000D03*
X104800000Y-80200000D03*
X104600000Y-78200000D03*
X104600000Y-76300000D03*
X104600000Y-74400000D03*
X106800000Y-73700000D03*
X108200000Y-72300000D03*
X105500000Y-72300000D03*
X104500000Y-70500000D03*
X106900000Y-70500000D03*
X108200000Y-68900000D03*
X106900000Y-67300000D03*
X110000000Y-67300000D03*
X112500000Y-67300000D03*
X115000000Y-67300000D03*
X117500000Y-67300000D03*
X118600000Y-68600000D03*
X119900000Y-67300000D03*
X122000000Y-67300000D03*
X123000000Y-68800000D03*
X123000000Y-71000000D03*
X123000000Y-72800000D03*
X121900000Y-74600000D03*
X123100000Y-75300000D03*
X121000000Y-75800000D03*
X119900000Y-74500000D03*
X113300000Y-69100000D03*
X113300000Y-70900000D03*
X111500000Y-73400000D03*
X113300000Y-73400000D03*
X115400000Y-73400000D03*
X117500000Y-73400000D03*
X118600000Y-72100000D03*
X112500000Y-78800000D03*
X115300000Y-79800000D03*
X119700000Y-109600000D03*
X106600000Y-82700000D03*
X123200000Y-84300000D03*
X123200000Y-86000000D03*
X123200000Y-87600000D03*
X121800000Y-89500000D03*
X123200000Y-89500000D03*
X116800000Y-117600000D03*
X115800000Y-114300000D03*
X115800000Y-115100000D03*
X115800000Y-115900000D03*
X117500000Y-114200000D03*
X117500000Y-115100000D03*
X117500000Y-115900000D03*
X114500000Y-114300000D03*
X123300000Y-95100000D03*
X113000000Y-87500000D03*
X114000000Y-88500000D03*
X104200000Y-89400000D03*
X105300000Y-89400000D03*
X106400000Y-90200000D03*
X106900000Y-87700000D03*
D17*
X118600000Y-98300000D03*
D15*
X109300000Y-92000000D03*
X111800000Y-78400000D03*
X115100000Y-76900000D03*
X108200000Y-74400000D03*
X105800000Y-68300000D03*
X106600000Y-81100000D03*
X106600000Y-81900000D03*
X106600000Y-83600000D03*
X106600000Y-84400000D03*
X106600000Y-85200000D03*
X104100000Y-80800000D03*
X109000000Y-79200000D03*
X116800000Y-78500000D03*
X115700000Y-78600000D03*
X114000000Y-72500000D03*
X118800000Y-70300000D03*
X117600000Y-72400000D03*
X114400000Y-68300000D03*
X117600000Y-68300000D03*
X119600000Y-88400000D03*
X117200000Y-104600000D03*
X111100000Y-104600000D03*
X115000000Y-110300000D03*
X117600000Y-108500000D03*
X120700000Y-119700000D03*
D17*
X114700000Y-120100000D03*
D15*
X120300000Y-93500000D03*
D17*
%TO.N,+3V3*%
X106948042Y-94925431D03*
X107000000Y-91200000D03*
X107000000Y-98700000D03*
X107000000Y-102400000D03*
X107000000Y-106200000D03*
X107000000Y-110000000D03*
X107000000Y-113700000D03*
X107000000Y-117500000D03*
X106100000Y-117500000D03*
X120800000Y-98800000D03*
D15*
X121200000Y-107200000D03*
X121200000Y-105600000D03*
D17*
X117400000Y-110800000D03*
D15*
%TO.N,G1*%
X108508002Y-87223000D03*
X119248000Y-101464437D03*
%TO.N,B1*%
X116060779Y-98432740D03*
X108100000Y-87700000D03*
%TO.N,R1*%
X108630627Y-86659179D03*
X119398452Y-102035454D03*
%TO.N,G2*%
X115111806Y-99088194D03*
X109761602Y-89953799D03*
%TO.N,B2*%
X108600000Y-91802000D03*
X109300000Y-90300000D03*
%TO.N,R2*%
X115575093Y-98744252D03*
X110223203Y-89607597D03*
%TO.N,I2C_SCL_4*%
X119400034Y-102612453D03*
X116361657Y-116927766D03*
%TO.N,I2C_SDA_4*%
X119301887Y-103306177D03*
X117600000Y-117500000D03*
%TO.N,I2C_SCL_1*%
X111500000Y-117600000D03*
%TO.N,I2C_SDA_1*%
X111500000Y-117000000D03*
%TO.N,I2C_INT_1*%
X104500000Y-118000000D03*
X109500000Y-118629001D03*
%TD*%
D18*
%TO.N,GND*%
X118600000Y-96190000D02*
X117050000Y-94640000D01*
X118600000Y-98300000D02*
X118600000Y-96190000D01*
%TO.N,+3V3*%
X107000000Y-117500000D02*
X106100000Y-117500000D01*
X120800000Y-99365685D02*
X121252999Y-99818684D01*
X120800000Y-98800000D02*
X120800000Y-99365685D01*
X121252999Y-102048961D02*
X121200000Y-102101960D01*
X121252999Y-99818684D02*
X121252999Y-102048961D01*
X121200000Y-110000000D02*
X120800000Y-110400000D01*
X120800000Y-110400000D02*
X119500000Y-110400000D01*
X121200000Y-102101960D02*
X121200000Y-105600000D01*
X121200000Y-107200000D02*
X121200000Y-110000000D01*
X121200000Y-105600000D02*
X121200000Y-107200000D01*
X118200000Y-111700000D02*
X119500000Y-110400000D01*
X118200000Y-111600000D02*
X118200000Y-111700000D01*
X117400000Y-110800000D02*
X118200000Y-111600000D01*
X107000000Y-91200000D02*
X107000000Y-91900000D01*
X106948042Y-94925431D02*
X106948042Y-95648042D01*
X106948042Y-98648042D02*
X107000000Y-98700000D01*
X106948042Y-94925431D02*
X106948042Y-98648042D01*
X107000000Y-98700000D02*
X107000000Y-102400000D01*
X107000000Y-102400000D02*
X107000000Y-106200000D01*
X107000000Y-106200000D02*
X107000000Y-110000000D01*
X107000000Y-110000000D02*
X107000000Y-113700000D01*
X107000000Y-94873473D02*
X106948042Y-94925431D01*
X107000000Y-91200000D02*
X107000000Y-94873473D01*
X107000000Y-113700000D02*
X107000000Y-117500000D01*
D19*
%TO.N,G1*%
X116052931Y-97750311D02*
X116851310Y-98548690D01*
X115373439Y-97750311D02*
X116052931Y-97750311D01*
X108508002Y-87223000D02*
X108607992Y-87322990D01*
X108607992Y-87322990D02*
X109177730Y-87322990D01*
X110908031Y-93284903D02*
X115373439Y-97750311D01*
X111202221Y-89347481D02*
X111202222Y-90661971D01*
X110908031Y-90956162D02*
X110908031Y-93284903D01*
X119248000Y-100910024D02*
X119248000Y-101464437D01*
X109177730Y-87322990D02*
X111202221Y-89347481D01*
X116886666Y-98548690D02*
X119248000Y-100910024D01*
X111202222Y-90661971D02*
X110908031Y-90956162D01*
X116851310Y-98548690D02*
X116886666Y-98548690D01*
%TO.N,B1*%
X110531021Y-93441065D02*
X110531021Y-90800000D01*
X116060779Y-98432740D02*
X115755360Y-98127321D01*
X115217277Y-98127321D02*
X110531021Y-93441065D01*
X115755360Y-98127321D02*
X115217277Y-98127321D01*
X110825212Y-89503644D02*
X109021568Y-87700000D01*
X110825212Y-90505809D02*
X110825212Y-89503644D01*
X110531021Y-90800000D02*
X110825212Y-90505809D01*
X109021568Y-87700000D02*
X108100000Y-87700000D01*
%TO.N,R1*%
X109047091Y-86659179D02*
X108630627Y-86659179D01*
X111579230Y-89191318D02*
X109047091Y-86659179D01*
X111579230Y-91778830D02*
X111579230Y-89191318D01*
X113901601Y-91997999D02*
X111798399Y-91997999D01*
X113952001Y-92048399D02*
X113901601Y-91997999D01*
X116907481Y-98071689D02*
X116209093Y-97373301D01*
X113952001Y-95647999D02*
X113952001Y-92048399D01*
X113878150Y-95721850D02*
X113952001Y-95647999D01*
X115529601Y-97373301D02*
X113878150Y-95721850D01*
X111798399Y-91997999D02*
X111579230Y-91778830D01*
X116942837Y-98071689D02*
X116907481Y-98071689D01*
X119725001Y-101708905D02*
X119725001Y-100853853D01*
X119725001Y-100853853D02*
X116942837Y-98071689D01*
X116209093Y-97373301D02*
X115529601Y-97373301D01*
X119398452Y-102035454D02*
X119725001Y-101708905D01*
%TO.N,G2*%
X109777001Y-89969198D02*
X109761602Y-89953799D01*
X109777001Y-93753389D02*
X109777001Y-89969198D01*
X115111806Y-99088194D02*
X109777001Y-93753389D01*
%TO.N,B2*%
X108600000Y-91000000D02*
X109300000Y-90300000D01*
X108600000Y-91802000D02*
X108600000Y-91000000D01*
%TO.N,R2*%
X115078392Y-98521608D02*
X115352449Y-98521608D01*
X110154011Y-90345989D02*
X110154011Y-93597227D01*
X110223203Y-89607597D02*
X110448202Y-89832596D01*
X110448202Y-90051798D02*
X110154011Y-90345989D01*
X110154011Y-93597227D02*
X115078392Y-98521608D01*
X115352449Y-98521608D02*
X115575093Y-98744252D01*
X110448202Y-89832596D02*
X110448202Y-90051798D01*
%TO.N,I2C_SCL_4*%
X118824886Y-102869403D02*
X118824886Y-103524886D01*
X118824886Y-103524886D02*
X118924877Y-103624877D01*
X119081836Y-102612453D02*
X118824886Y-102869403D01*
X119400034Y-102612453D02*
X119081836Y-102612453D01*
X118924877Y-103624877D02*
X118924877Y-108241951D01*
X118924877Y-108241951D02*
X117395839Y-109770989D01*
X116370989Y-110330877D02*
X116370989Y-112013918D01*
X116930876Y-109770990D02*
X116370989Y-110330877D01*
X117395839Y-109770989D02*
X116930876Y-109770990D01*
X116370989Y-116918434D02*
X116361657Y-116927766D01*
X116370989Y-112013918D02*
X116370989Y-116918434D01*
%TO.N,I2C_SDA_4*%
X119301887Y-103306177D02*
X119301887Y-108398113D01*
X116747999Y-110487039D02*
X116747999Y-112170080D01*
X117087039Y-110147999D02*
X116747999Y-110487039D01*
X117552001Y-110147999D02*
X117087039Y-110147999D01*
X119301887Y-108398113D02*
X117552001Y-110147999D01*
X116747999Y-116647999D02*
X117600000Y-117500000D01*
X116747999Y-112170080D02*
X116747999Y-116647999D01*
D20*
%TO.N,I2C_SCL_1*%
X111500000Y-117668962D02*
X111500000Y-117600000D01*
X108516961Y-120652001D02*
X111500000Y-117668962D01*
X106112001Y-120652001D02*
X108516961Y-120652001D01*
X104700000Y-119240000D02*
X106112001Y-120652001D01*
D19*
%TO.N,I2C_SDA_1*%
X111394038Y-117000000D02*
X111500000Y-117000000D01*
X104700000Y-116900000D02*
X105447999Y-117647999D01*
X105447999Y-117647999D02*
X105447999Y-117812961D01*
X104700000Y-116700000D02*
X104700000Y-116900000D01*
X110242037Y-118152001D02*
X110347019Y-118047019D01*
X105787039Y-118152001D02*
X110242037Y-118152001D01*
X105447999Y-117812961D02*
X105787039Y-118152001D01*
X110347019Y-118047019D02*
X111394038Y-117000000D01*
%TO.N,I2C_INT_1*%
X105101866Y-118000000D02*
X105630877Y-118529011D01*
X104500000Y-118000000D02*
X105101866Y-118000000D01*
X109400010Y-118529011D02*
X109500000Y-118629001D01*
X105630877Y-118529011D02*
X109400010Y-118529011D01*
%TD*%
D21*
%TO.N,GND*%
X123417881Y-66709700D02*
X123435078Y-66714892D01*
X123450943Y-66723328D01*
X123464861Y-66734680D01*
X123476317Y-66748528D01*
X123484861Y-66764330D01*
X123490173Y-66781489D01*
X123494000Y-66817901D01*
X123494000Y-89836176D01*
X123454482Y-89824188D01*
X123330000Y-89811928D01*
X122765750Y-89815000D01*
X122607000Y-89973750D01*
X122607000Y-91173000D01*
X122627000Y-91173000D01*
X122627000Y-91427000D01*
X122607000Y-91427000D01*
X122607000Y-91447000D01*
X122353000Y-91447000D01*
X122353000Y-91427000D01*
X121153750Y-91427000D01*
X120995000Y-91585750D01*
X120991928Y-92150000D01*
X121004188Y-92274482D01*
X121040498Y-92394180D01*
X121099463Y-92504494D01*
X121178815Y-92601185D01*
X121275506Y-92680537D01*
X121385820Y-92739502D01*
X121505518Y-92775812D01*
X121630000Y-92788072D01*
X121840294Y-92786927D01*
X121695283Y-92883820D01*
X121523820Y-93055283D01*
X121389102Y-93256903D01*
X121296307Y-93480931D01*
X121249000Y-93718757D01*
X121249000Y-93961243D01*
X121296307Y-94199069D01*
X121389102Y-94423097D01*
X121523820Y-94624717D01*
X121695283Y-94796180D01*
X121896903Y-94930898D01*
X122120931Y-95023693D01*
X122358757Y-95071000D01*
X122601243Y-95071000D01*
X122839069Y-95023693D01*
X123063097Y-94930898D01*
X123264717Y-94796180D01*
X123436180Y-94624717D01*
X123494001Y-94538182D01*
X123494001Y-95681818D01*
X123436180Y-95595283D01*
X123264717Y-95423820D01*
X123063097Y-95289102D01*
X122839069Y-95196307D01*
X122601243Y-95149000D01*
X122358757Y-95149000D01*
X122120931Y-95196307D01*
X121896903Y-95289102D01*
X121695283Y-95423820D01*
X121523820Y-95595283D01*
X121389102Y-95796903D01*
X121296307Y-96020931D01*
X121249000Y-96258757D01*
X121249000Y-96501243D01*
X121296307Y-96739069D01*
X121389102Y-96963097D01*
X121523820Y-97164717D01*
X121695283Y-97336180D01*
X121896903Y-97470898D01*
X122011168Y-97518228D01*
X121848748Y-97575843D01*
X121598645Y-97724822D01*
X121382412Y-97919731D01*
X121218078Y-98140050D01*
X121169942Y-98107887D01*
X121027809Y-98049013D01*
X120876922Y-98019000D01*
X120723078Y-98019000D01*
X120572191Y-98049013D01*
X120430058Y-98107887D01*
X120302141Y-98193358D01*
X120193358Y-98302141D01*
X120107887Y-98430058D01*
X120049013Y-98572191D01*
X120019000Y-98723078D01*
X120019000Y-98876922D01*
X120049013Y-99027809D01*
X120107887Y-99169942D01*
X120169000Y-99261405D01*
X120169000Y-99334695D01*
X120165948Y-99365685D01*
X120169000Y-99396675D01*
X120169000Y-99396683D01*
X120178130Y-99489383D01*
X120214211Y-99608327D01*
X120272804Y-99717946D01*
X120351658Y-99814028D01*
X120375732Y-99833785D01*
X120621999Y-100080053D01*
X120622000Y-101844747D01*
X120614211Y-101859319D01*
X120578130Y-101978263D01*
X120569000Y-102070963D01*
X120569000Y-102070970D01*
X120565948Y-102101960D01*
X120569000Y-102132950D01*
X120569001Y-105568993D01*
X120569000Y-105569003D01*
X120569001Y-107168993D01*
X120569000Y-107169003D01*
X120569001Y-109738632D01*
X120538632Y-109769000D01*
X119530998Y-109769000D01*
X119500000Y-109765947D01*
X119376302Y-109778130D01*
X119257358Y-109814211D01*
X119147739Y-109872804D01*
X119051657Y-109951657D01*
X119031899Y-109975732D01*
X118250000Y-110757632D01*
X118172447Y-110680079D01*
X118150987Y-110572191D01*
X118092113Y-110430058D01*
X118049423Y-110366168D01*
X119642107Y-108773485D01*
X119661414Y-108757640D01*
X119724646Y-108680592D01*
X119771632Y-108592688D01*
X119800565Y-108497306D01*
X119807887Y-108422967D01*
X119810335Y-108398113D01*
X119807887Y-108373259D01*
X119807887Y-103639665D01*
X119838917Y-103593226D01*
X119884599Y-103482941D01*
X119907887Y-103365863D01*
X119907887Y-103246491D01*
X119884599Y-103129413D01*
X119842272Y-103027228D01*
X119870745Y-102998755D01*
X119937064Y-102899502D01*
X119982746Y-102789217D01*
X120006034Y-102672139D01*
X120006034Y-102552767D01*
X119982746Y-102435689D01*
X119937064Y-102325404D01*
X119935304Y-102322770D01*
X119935482Y-102322503D01*
X119981164Y-102212218D01*
X119992061Y-102157436D01*
X120065216Y-102084281D01*
X120084528Y-102068432D01*
X120147760Y-101991384D01*
X120194746Y-101903480D01*
X120223679Y-101808098D01*
X120231001Y-101733759D01*
X120231001Y-101733752D01*
X120233448Y-101708906D01*
X120231001Y-101684060D01*
X120231001Y-100878698D01*
X120233448Y-100853852D01*
X120231001Y-100829006D01*
X120231001Y-100828999D01*
X120223679Y-100754660D01*
X120194746Y-100659278D01*
X120147760Y-100571374D01*
X120084528Y-100494326D01*
X120065221Y-100478481D01*
X117318213Y-97731474D01*
X117302364Y-97712162D01*
X117225316Y-97648930D01*
X117171604Y-97620220D01*
X116584469Y-97033086D01*
X116568620Y-97013774D01*
X116491572Y-96950542D01*
X116403668Y-96903556D01*
X116308286Y-96874623D01*
X116233947Y-96867301D01*
X116233939Y-96867301D01*
X116209093Y-96864854D01*
X116184247Y-96867301D01*
X115739193Y-96867301D01*
X114458001Y-95586110D01*
X114458001Y-94996890D01*
X115608524Y-94996890D01*
X115653175Y-95144099D01*
X115778359Y-95406920D01*
X115952412Y-95640269D01*
X116168645Y-95835178D01*
X116418748Y-95984157D01*
X116693109Y-96081481D01*
X116923000Y-95960814D01*
X116923000Y-94767000D01*
X117177000Y-94767000D01*
X117177000Y-95960814D01*
X117406891Y-96081481D01*
X117681252Y-95984157D01*
X117931355Y-95835178D01*
X118147588Y-95640269D01*
X118321641Y-95406920D01*
X118446825Y-95144099D01*
X118491476Y-94996890D01*
X118370155Y-94767000D01*
X117177000Y-94767000D01*
X116923000Y-94767000D01*
X115729845Y-94767000D01*
X115608524Y-94996890D01*
X114458001Y-94996890D01*
X114458001Y-92950000D01*
X115561928Y-92950000D01*
X115574188Y-93074482D01*
X115610498Y-93194180D01*
X115669463Y-93304494D01*
X115748815Y-93401185D01*
X115845506Y-93480537D01*
X115955820Y-93539502D01*
X116036466Y-93563966D01*
X115952412Y-93639731D01*
X115778359Y-93873080D01*
X115653175Y-94135901D01*
X115608524Y-94283110D01*
X115729845Y-94513000D01*
X116923000Y-94513000D01*
X116923000Y-92227000D01*
X117177000Y-92227000D01*
X117177000Y-94513000D01*
X118370155Y-94513000D01*
X118491476Y-94283110D01*
X118446825Y-94135901D01*
X118321641Y-93873080D01*
X118147588Y-93639731D01*
X118063534Y-93563966D01*
X118144180Y-93539502D01*
X118254494Y-93480537D01*
X118351185Y-93401185D01*
X118430537Y-93304494D01*
X118489502Y-93194180D01*
X118525812Y-93074482D01*
X118538072Y-92950000D01*
X118535000Y-92385750D01*
X118376250Y-92227000D01*
X117177000Y-92227000D01*
X116923000Y-92227000D01*
X115723750Y-92227000D01*
X115565000Y-92385750D01*
X115561928Y-92950000D01*
X114458001Y-92950000D01*
X114458001Y-92073244D01*
X114460448Y-92048398D01*
X114458001Y-92023552D01*
X114458001Y-92023545D01*
X114450679Y-91949206D01*
X114421746Y-91853824D01*
X114374760Y-91765920D01*
X114311528Y-91688872D01*
X114292216Y-91673023D01*
X114276977Y-91657784D01*
X114261128Y-91638472D01*
X114184080Y-91575240D01*
X114096176Y-91528254D01*
X114000794Y-91499321D01*
X113926455Y-91491999D01*
X113926447Y-91491999D01*
X113901601Y-91489552D01*
X113876755Y-91491999D01*
X113658898Y-91491999D01*
X113806180Y-91344717D01*
X113869467Y-91250000D01*
X115561928Y-91250000D01*
X115565000Y-91814250D01*
X115723750Y-91973000D01*
X116923000Y-91973000D01*
X116923000Y-90773750D01*
X117177000Y-90773750D01*
X117177000Y-91973000D01*
X118376250Y-91973000D01*
X118535000Y-91814250D01*
X118538072Y-91250000D01*
X118525812Y-91125518D01*
X118489502Y-91005820D01*
X118430537Y-90895506D01*
X118351185Y-90798815D01*
X118254494Y-90719463D01*
X118144180Y-90660498D01*
X118024482Y-90624188D01*
X117900000Y-90611928D01*
X117335750Y-90615000D01*
X117177000Y-90773750D01*
X116923000Y-90773750D01*
X116764250Y-90615000D01*
X116200000Y-90611928D01*
X116075518Y-90624188D01*
X115955820Y-90660498D01*
X115845506Y-90719463D01*
X115748815Y-90798815D01*
X115669463Y-90895506D01*
X115610498Y-91005820D01*
X115574188Y-91125518D01*
X115561928Y-91250000D01*
X113869467Y-91250000D01*
X113940898Y-91143097D01*
X114033693Y-90919069D01*
X114081000Y-90681243D01*
X114081000Y-90450000D01*
X120991928Y-90450000D01*
X120995000Y-91014250D01*
X121153750Y-91173000D01*
X122353000Y-91173000D01*
X122353000Y-89973750D01*
X122194250Y-89815000D01*
X121630000Y-89811928D01*
X121505518Y-89824188D01*
X121385820Y-89860498D01*
X121275506Y-89919463D01*
X121178815Y-89998815D01*
X121099463Y-90095506D01*
X121040498Y-90205820D01*
X121004188Y-90325518D01*
X120991928Y-90450000D01*
X114081000Y-90450000D01*
X114081000Y-90438757D01*
X114033693Y-90200931D01*
X113940898Y-89976903D01*
X113806180Y-89775283D01*
X113634717Y-89603820D01*
X113433097Y-89469102D01*
X113209069Y-89376307D01*
X112971243Y-89329000D01*
X112728757Y-89329000D01*
X112490931Y-89376307D01*
X112266903Y-89469102D01*
X112085230Y-89590492D01*
X112085230Y-89216163D01*
X112087677Y-89191317D01*
X112085230Y-89166471D01*
X112085230Y-89166464D01*
X112077908Y-89092125D01*
X112074499Y-89080885D01*
X112069681Y-89065003D01*
X112048975Y-88996743D01*
X112001989Y-88908839D01*
X111938757Y-88831791D01*
X111919450Y-88815946D01*
X109422467Y-86318964D01*
X109406618Y-86299652D01*
X109329570Y-86236420D01*
X109241666Y-86189434D01*
X109146284Y-86160501D01*
X109071945Y-86153179D01*
X109071937Y-86153179D01*
X109047091Y-86150732D01*
X109022245Y-86153179D01*
X108964115Y-86153179D01*
X108917676Y-86122149D01*
X108807391Y-86076467D01*
X108690313Y-86053179D01*
X108570941Y-86053179D01*
X108453863Y-86076467D01*
X108343578Y-86122149D01*
X108244325Y-86188468D01*
X108159916Y-86272877D01*
X108093597Y-86372130D01*
X108047915Y-86482415D01*
X108024627Y-86599493D01*
X108024627Y-86718865D01*
X108046278Y-86827711D01*
X108037291Y-86836698D01*
X107970972Y-86935951D01*
X107925290Y-87046236D01*
X107910072Y-87122741D01*
X107812951Y-87162970D01*
X107713698Y-87229289D01*
X107629289Y-87313698D01*
X107562970Y-87412951D01*
X107517288Y-87523236D01*
X107494000Y-87640314D01*
X107494000Y-87759686D01*
X107517288Y-87876764D01*
X107562970Y-87987049D01*
X107629289Y-88086302D01*
X107713698Y-88170711D01*
X107812951Y-88237030D01*
X107923236Y-88282712D01*
X108040314Y-88306000D01*
X108159686Y-88306000D01*
X108276764Y-88282712D01*
X108387049Y-88237030D01*
X108433488Y-88206000D01*
X108811977Y-88206000D01*
X109789882Y-89183905D01*
X109752492Y-89221295D01*
X109686173Y-89320548D01*
X109672458Y-89353658D01*
X109584838Y-89371087D01*
X109474553Y-89416769D01*
X109375300Y-89483088D01*
X109290891Y-89567497D01*
X109224572Y-89666750D01*
X109210858Y-89699859D01*
X109123236Y-89717288D01*
X109012951Y-89762970D01*
X108913698Y-89829289D01*
X108829289Y-89913698D01*
X108762970Y-90012951D01*
X108717288Y-90123236D01*
X108706392Y-90178017D01*
X108259780Y-90624629D01*
X108240474Y-90640473D01*
X108177242Y-90717521D01*
X108176204Y-90719463D01*
X108130255Y-90805426D01*
X108101322Y-90900808D01*
X108091553Y-91000000D01*
X108094001Y-91024856D01*
X108094000Y-91468511D01*
X108062970Y-91514951D01*
X108017288Y-91625236D01*
X107994000Y-91742314D01*
X107994000Y-91861686D01*
X108017288Y-91978764D01*
X108062970Y-92089049D01*
X108129289Y-92188302D01*
X108213698Y-92272711D01*
X108312951Y-92339030D01*
X108423236Y-92384712D01*
X108540314Y-92408000D01*
X108659686Y-92408000D01*
X108776764Y-92384712D01*
X108887049Y-92339030D01*
X108986302Y-92272711D01*
X109070711Y-92188302D01*
X109137030Y-92089049D01*
X109182712Y-91978764D01*
X109206000Y-91861686D01*
X109206000Y-91742314D01*
X109182712Y-91625236D01*
X109137030Y-91514951D01*
X109106000Y-91468512D01*
X109106000Y-91209591D01*
X109271002Y-91044590D01*
X109271001Y-93728543D01*
X109268554Y-93753389D01*
X109271001Y-93778235D01*
X109271001Y-93778242D01*
X109278323Y-93852581D01*
X109307256Y-93947963D01*
X109354242Y-94035868D01*
X109417474Y-94112916D01*
X109436786Y-94128765D01*
X114518198Y-99210178D01*
X114529094Y-99264958D01*
X114574776Y-99375243D01*
X114641095Y-99474496D01*
X114725504Y-99558905D01*
X114824757Y-99625224D01*
X114935042Y-99670906D01*
X115052120Y-99694194D01*
X115171492Y-99694194D01*
X115288570Y-99670906D01*
X115398855Y-99625224D01*
X115498108Y-99558905D01*
X115582517Y-99474496D01*
X115648836Y-99375243D01*
X115661379Y-99344961D01*
X115751857Y-99326964D01*
X115862142Y-99281282D01*
X115961395Y-99214963D01*
X116045804Y-99130554D01*
X116107152Y-99038740D01*
X116120465Y-99038740D01*
X116237543Y-99015452D01*
X116347828Y-98969770D01*
X116447081Y-98903451D01*
X116468780Y-98881752D01*
X116475938Y-98888910D01*
X116491783Y-98908217D01*
X116568831Y-98971449D01*
X116622545Y-99000160D01*
X118742000Y-101119616D01*
X118742000Y-101130948D01*
X118710970Y-101177388D01*
X118665288Y-101287673D01*
X118642000Y-101404751D01*
X118642000Y-101524123D01*
X118665288Y-101641201D01*
X118710970Y-101751486D01*
X118777289Y-101850739D01*
X118810680Y-101884130D01*
X118792452Y-101975768D01*
X118792452Y-102095140D01*
X118810116Y-102183943D01*
X118799357Y-102189694D01*
X118722309Y-102252926D01*
X118706460Y-102272238D01*
X118484671Y-102494027D01*
X118465359Y-102509876D01*
X118402127Y-102586924D01*
X118355141Y-102674829D01*
X118326208Y-102770211D01*
X118318886Y-102844550D01*
X118318886Y-102844557D01*
X118316439Y-102869403D01*
X118318886Y-102894250D01*
X118318887Y-103500030D01*
X118316439Y-103524886D01*
X118326208Y-103624078D01*
X118355141Y-103719460D01*
X118377013Y-103760378D01*
X118402128Y-103807365D01*
X118418877Y-103827774D01*
X118418878Y-108032358D01*
X117186247Y-109264990D01*
X116955738Y-109264991D01*
X116930876Y-109262542D01*
X116831683Y-109272312D01*
X116736301Y-109301245D01*
X116648397Y-109348232D01*
X116590654Y-109395620D01*
X116590650Y-109395624D01*
X116571349Y-109411464D01*
X116555509Y-109430765D01*
X116030774Y-109955501D01*
X116011462Y-109971350D01*
X115948230Y-110048398D01*
X115901244Y-110136303D01*
X115872311Y-110231685D01*
X115864989Y-110306024D01*
X115864989Y-110306031D01*
X115862542Y-110330877D01*
X115864989Y-110355724D01*
X115864990Y-111989055D01*
X115864989Y-111989065D01*
X115864990Y-116580310D01*
X115824627Y-116640717D01*
X115778945Y-116751002D01*
X115755657Y-116868080D01*
X115755657Y-116987452D01*
X115778945Y-117104530D01*
X115824627Y-117214815D01*
X115890946Y-117314068D01*
X115975355Y-117398477D01*
X116074608Y-117464796D01*
X116184893Y-117510478D01*
X116301971Y-117533766D01*
X116421343Y-117533766D01*
X116538421Y-117510478D01*
X116648706Y-117464796D01*
X116747959Y-117398477D01*
X116765422Y-117381014D01*
X117006392Y-117621983D01*
X117017288Y-117676764D01*
X117062970Y-117787049D01*
X117129289Y-117886302D01*
X117213698Y-117970711D01*
X117312951Y-118037030D01*
X117423236Y-118082712D01*
X117540314Y-118106000D01*
X117659686Y-118106000D01*
X117776764Y-118082712D01*
X117887049Y-118037030D01*
X117986302Y-117970711D01*
X118070711Y-117886302D01*
X118137030Y-117787049D01*
X118182712Y-117676764D01*
X118206000Y-117559686D01*
X118206000Y-117440314D01*
X118182712Y-117323236D01*
X118137030Y-117212951D01*
X118070711Y-117113698D01*
X117986302Y-117029289D01*
X117887049Y-116962970D01*
X117776764Y-116917288D01*
X117721983Y-116906392D01*
X117253999Y-116438408D01*
X117253999Y-111567259D01*
X117280079Y-111572447D01*
X117598508Y-111890877D01*
X117614211Y-111942642D01*
X117672804Y-112052261D01*
X117708348Y-112095570D01*
X117751657Y-112148343D01*
X117818375Y-112203097D01*
X117847740Y-112227196D01*
X117957359Y-112285789D01*
X118076303Y-112321870D01*
X118200000Y-112334053D01*
X118323698Y-112321870D01*
X118442642Y-112285789D01*
X118552261Y-112227196D01*
X118648343Y-112148343D01*
X118668104Y-112124264D01*
X119761369Y-111031000D01*
X120769010Y-111031000D01*
X120800000Y-111034052D01*
X120830990Y-111031000D01*
X120830998Y-111031000D01*
X120923698Y-111021870D01*
X121042642Y-110985789D01*
X121152261Y-110927196D01*
X121248343Y-110848343D01*
X121268106Y-110824262D01*
X121624258Y-110468110D01*
X121648343Y-110448343D01*
X121727196Y-110352261D01*
X121785789Y-110242642D01*
X121821870Y-110123698D01*
X121822141Y-110120944D01*
X121896903Y-110170898D01*
X122120931Y-110263693D01*
X122358757Y-110311000D01*
X122601243Y-110311000D01*
X122839069Y-110263693D01*
X123063097Y-110170898D01*
X123264717Y-110036180D01*
X123436180Y-109864717D01*
X123494001Y-109778182D01*
X123494001Y-110921818D01*
X123436180Y-110835283D01*
X123264717Y-110663820D01*
X123063097Y-110529102D01*
X122839069Y-110436307D01*
X122601243Y-110389000D01*
X122358757Y-110389000D01*
X122120931Y-110436307D01*
X121896903Y-110529102D01*
X121695283Y-110663820D01*
X121523820Y-110835283D01*
X121389102Y-111036903D01*
X121296307Y-111260931D01*
X121249000Y-111498757D01*
X121249000Y-111741243D01*
X121296307Y-111979069D01*
X121389102Y-112203097D01*
X121523820Y-112404717D01*
X121695283Y-112576180D01*
X121896903Y-112710898D01*
X122120931Y-112803693D01*
X122358757Y-112851000D01*
X122601243Y-112851000D01*
X122839069Y-112803693D01*
X123063097Y-112710898D01*
X123264717Y-112576180D01*
X123436180Y-112404717D01*
X123494001Y-112318182D01*
X123494001Y-113461818D01*
X123436180Y-113375283D01*
X123264717Y-113203820D01*
X123063097Y-113069102D01*
X122839069Y-112976307D01*
X122601243Y-112929000D01*
X122358757Y-112929000D01*
X122120931Y-112976307D01*
X121896903Y-113069102D01*
X121695283Y-113203820D01*
X121523820Y-113375283D01*
X121389102Y-113576903D01*
X121296307Y-113800931D01*
X121249000Y-114038757D01*
X121249000Y-114281243D01*
X121296307Y-114519069D01*
X121389102Y-114743097D01*
X121523820Y-114944717D01*
X121695283Y-115116180D01*
X121896903Y-115250898D01*
X122120931Y-115343693D01*
X122358757Y-115391000D01*
X122601243Y-115391000D01*
X122839069Y-115343693D01*
X123063097Y-115250898D01*
X123264717Y-115116180D01*
X123436180Y-114944717D01*
X123494001Y-114858182D01*
X123494001Y-116001818D01*
X123436180Y-115915283D01*
X123264717Y-115743820D01*
X123063097Y-115609102D01*
X122839069Y-115516307D01*
X122601243Y-115469000D01*
X122358757Y-115469000D01*
X122120931Y-115516307D01*
X121896903Y-115609102D01*
X121695283Y-115743820D01*
X121523820Y-115915283D01*
X121389102Y-116116903D01*
X121296307Y-116340931D01*
X121249000Y-116578757D01*
X121249000Y-116821243D01*
X121296307Y-117059069D01*
X121389102Y-117283097D01*
X121523820Y-117484717D01*
X121695283Y-117656180D01*
X121896903Y-117790898D01*
X122120931Y-117883693D01*
X122358757Y-117931000D01*
X122601243Y-117931000D01*
X122839069Y-117883693D01*
X123063097Y-117790898D01*
X123264717Y-117656180D01*
X123436180Y-117484717D01*
X123494001Y-117398182D01*
X123494001Y-118541818D01*
X123436180Y-118455283D01*
X123264717Y-118283820D01*
X123063097Y-118149102D01*
X122839069Y-118056307D01*
X122601243Y-118009000D01*
X122358757Y-118009000D01*
X122120931Y-118056307D01*
X121896903Y-118149102D01*
X121695283Y-118283820D01*
X121523820Y-118455283D01*
X121389102Y-118656903D01*
X121296307Y-118880931D01*
X121249000Y-119118757D01*
X121249000Y-119361243D01*
X121296307Y-119599069D01*
X121389102Y-119823097D01*
X121523820Y-120024717D01*
X121695283Y-120196180D01*
X121896903Y-120330898D01*
X122120931Y-120423693D01*
X122358757Y-120471000D01*
X122601243Y-120471000D01*
X122839069Y-120423693D01*
X123063097Y-120330898D01*
X123264717Y-120196180D01*
X123436180Y-120024717D01*
X123494001Y-119938182D01*
X123494001Y-120580139D01*
X123490301Y-120617878D01*
X123485107Y-120635079D01*
X123476672Y-120650944D01*
X123465322Y-120664860D01*
X123451472Y-120676318D01*
X123435672Y-120684861D01*
X123418511Y-120690173D01*
X123382099Y-120694000D01*
X116234830Y-120694000D01*
X116290865Y-120682854D01*
X116472340Y-120607685D01*
X116635662Y-120498556D01*
X116774556Y-120359662D01*
X116883685Y-120196340D01*
X116958854Y-120014865D01*
X116997175Y-119822213D01*
X116997175Y-119625787D01*
X116958854Y-119433135D01*
X116883685Y-119251660D01*
X116774556Y-119088338D01*
X116635662Y-118949444D01*
X116472340Y-118840315D01*
X116290865Y-118765146D01*
X116098213Y-118726825D01*
X115901787Y-118726825D01*
X115709135Y-118765146D01*
X115527660Y-118840315D01*
X115364338Y-118949444D01*
X115225444Y-119088338D01*
X115116315Y-119251660D01*
X115041146Y-119433135D01*
X115002825Y-119625787D01*
X115002825Y-119822213D01*
X115041146Y-120014865D01*
X115116315Y-120196340D01*
X115225444Y-120359662D01*
X115364338Y-120498556D01*
X115527660Y-120607685D01*
X115709135Y-120682854D01*
X115765170Y-120694000D01*
X109155198Y-120694000D01*
X111663935Y-118185264D01*
X111676764Y-118182712D01*
X111787049Y-118137030D01*
X111886302Y-118070711D01*
X111970711Y-117986302D01*
X112037030Y-117887049D01*
X112082712Y-117776764D01*
X112106000Y-117659686D01*
X112106000Y-117540314D01*
X112082712Y-117423236D01*
X112037030Y-117312951D01*
X112028376Y-117300000D01*
X112037030Y-117287049D01*
X112082712Y-117176764D01*
X112106000Y-117059686D01*
X112106000Y-116940314D01*
X112082712Y-116823236D01*
X112037030Y-116712951D01*
X111970711Y-116613698D01*
X111886302Y-116529289D01*
X111787049Y-116462970D01*
X111676764Y-116417288D01*
X111559686Y-116394000D01*
X111440314Y-116394000D01*
X111323236Y-116417288D01*
X111212951Y-116462970D01*
X111113698Y-116529289D01*
X111029289Y-116613698D01*
X110962970Y-116712951D01*
X110961184Y-116717262D01*
X110032446Y-117646001D01*
X107767259Y-117646001D01*
X107781000Y-117576922D01*
X107781000Y-117423078D01*
X107750987Y-117272191D01*
X107692113Y-117130058D01*
X107631000Y-117038595D01*
X107631000Y-114161405D01*
X107692113Y-114069942D01*
X107750987Y-113927809D01*
X107781000Y-113776922D01*
X107781000Y-113623078D01*
X107750987Y-113472191D01*
X107692113Y-113330058D01*
X107631000Y-113238595D01*
X107631000Y-110461405D01*
X107692113Y-110369942D01*
X107750987Y-110227809D01*
X107781000Y-110076922D01*
X107781000Y-109923078D01*
X107750987Y-109772191D01*
X107692113Y-109630058D01*
X107631000Y-109538595D01*
X107631000Y-106661405D01*
X107692113Y-106569942D01*
X107750987Y-106427809D01*
X107781000Y-106276922D01*
X107781000Y-106123078D01*
X107750987Y-105972191D01*
X107692113Y-105830058D01*
X107631000Y-105738595D01*
X107631000Y-102861405D01*
X107692113Y-102769942D01*
X107750987Y-102627809D01*
X107781000Y-102476922D01*
X107781000Y-102323078D01*
X107750987Y-102172191D01*
X107692113Y-102030058D01*
X107631000Y-101938595D01*
X107631000Y-99161405D01*
X107692113Y-99069942D01*
X107750987Y-98927809D01*
X107781000Y-98776922D01*
X107781000Y-98623078D01*
X107750987Y-98472191D01*
X107692113Y-98330058D01*
X107606642Y-98202141D01*
X107579042Y-98174541D01*
X107579042Y-95386836D01*
X107640155Y-95295373D01*
X107699029Y-95153240D01*
X107729042Y-95002353D01*
X107729042Y-94848509D01*
X107699029Y-94697622D01*
X107640155Y-94555489D01*
X107631000Y-94541788D01*
X107631000Y-91661405D01*
X107692113Y-91569942D01*
X107750987Y-91427809D01*
X107781000Y-91276922D01*
X107781000Y-91123078D01*
X107750987Y-90972191D01*
X107692113Y-90830058D01*
X107606642Y-90702141D01*
X107497859Y-90593358D01*
X107369942Y-90507887D01*
X107227809Y-90449013D01*
X107076922Y-90419000D01*
X106923078Y-90419000D01*
X106772191Y-90449013D01*
X106630058Y-90507887D01*
X106502141Y-90593358D01*
X106393358Y-90702141D01*
X106307887Y-90830058D01*
X106249013Y-90972191D01*
X106219000Y-91123078D01*
X106219000Y-91276922D01*
X106249013Y-91427809D01*
X106307887Y-91569942D01*
X106369000Y-91661405D01*
X106369001Y-94399971D01*
X106341400Y-94427572D01*
X106255929Y-94555489D01*
X106197055Y-94697622D01*
X106167042Y-94848509D01*
X106167042Y-95002353D01*
X106197055Y-95153240D01*
X106255929Y-95295373D01*
X106317042Y-95386836D01*
X106317043Y-98316355D01*
X106307887Y-98330058D01*
X106249013Y-98472191D01*
X106219000Y-98623078D01*
X106219000Y-98776922D01*
X106249013Y-98927809D01*
X106307887Y-99069942D01*
X106369000Y-99161405D01*
X106369001Y-101938594D01*
X106307887Y-102030058D01*
X106249013Y-102172191D01*
X106219000Y-102323078D01*
X106219000Y-102476922D01*
X106249013Y-102627809D01*
X106307887Y-102769942D01*
X106369000Y-102861405D01*
X106369001Y-105738594D01*
X106307887Y-105830058D01*
X106249013Y-105972191D01*
X106219000Y-106123078D01*
X106219000Y-106276922D01*
X106249013Y-106427809D01*
X106307887Y-106569942D01*
X106369000Y-106661405D01*
X106369001Y-109538594D01*
X106307887Y-109630058D01*
X106249013Y-109772191D01*
X106219000Y-109923078D01*
X106219000Y-110076922D01*
X106249013Y-110227809D01*
X106307887Y-110369942D01*
X106369000Y-110461405D01*
X106369001Y-113238594D01*
X106307887Y-113330058D01*
X106249013Y-113472191D01*
X106219000Y-113623078D01*
X106219000Y-113776922D01*
X106249013Y-113927809D01*
X106307887Y-114069942D01*
X106369000Y-114161405D01*
X106369001Y-116766075D01*
X106327809Y-116749013D01*
X106176922Y-116719000D01*
X106023078Y-116719000D01*
X105931000Y-116737315D01*
X105931000Y-116578757D01*
X105883693Y-116340931D01*
X105790898Y-116116903D01*
X105656180Y-115915283D01*
X105484717Y-115743820D01*
X105283097Y-115609102D01*
X105059069Y-115516307D01*
X104821243Y-115469000D01*
X104578757Y-115469000D01*
X104340931Y-115516307D01*
X104116903Y-115609102D01*
X103915283Y-115743820D01*
X103743820Y-115915283D01*
X103706000Y-115971885D01*
X103706000Y-114888115D01*
X103743820Y-114944717D01*
X103915283Y-115116180D01*
X104116903Y-115250898D01*
X104340931Y-115343693D01*
X104578757Y-115391000D01*
X104821243Y-115391000D01*
X105059069Y-115343693D01*
X105283097Y-115250898D01*
X105484717Y-115116180D01*
X105656180Y-114944717D01*
X105790898Y-114743097D01*
X105883693Y-114519069D01*
X105931000Y-114281243D01*
X105931000Y-114038757D01*
X105883693Y-113800931D01*
X105790898Y-113576903D01*
X105656180Y-113375283D01*
X105484717Y-113203820D01*
X105283097Y-113069102D01*
X105168832Y-113021772D01*
X105331252Y-112964157D01*
X105581355Y-112815178D01*
X105797588Y-112620269D01*
X105971641Y-112386920D01*
X106096825Y-112124099D01*
X106141476Y-111976890D01*
X106020155Y-111747000D01*
X104827000Y-111747000D01*
X104827000Y-111767000D01*
X104573000Y-111767000D01*
X104573000Y-111747000D01*
X104553000Y-111747000D01*
X104553000Y-111493000D01*
X104573000Y-111493000D01*
X104573000Y-109207000D01*
X104827000Y-109207000D01*
X104827000Y-111493000D01*
X106020155Y-111493000D01*
X106141476Y-111263110D01*
X106096825Y-111115901D01*
X105971641Y-110853080D01*
X105797588Y-110619731D01*
X105581355Y-110424822D01*
X105455745Y-110350000D01*
X105581355Y-110275178D01*
X105797588Y-110080269D01*
X105971641Y-109846920D01*
X106096825Y-109584099D01*
X106141476Y-109436890D01*
X106020155Y-109207000D01*
X104827000Y-109207000D01*
X104573000Y-109207000D01*
X104553000Y-109207000D01*
X104553000Y-108953000D01*
X104573000Y-108953000D01*
X104573000Y-106667000D01*
X104827000Y-106667000D01*
X104827000Y-108953000D01*
X106020155Y-108953000D01*
X106141476Y-108723110D01*
X106096825Y-108575901D01*
X105971641Y-108313080D01*
X105797588Y-108079731D01*
X105581355Y-107884822D01*
X105455745Y-107810000D01*
X105581355Y-107735178D01*
X105797588Y-107540269D01*
X105971641Y-107306920D01*
X106096825Y-107044099D01*
X106141476Y-106896890D01*
X106020155Y-106667000D01*
X104827000Y-106667000D01*
X104573000Y-106667000D01*
X104553000Y-106667000D01*
X104553000Y-106413000D01*
X104573000Y-106413000D01*
X104573000Y-104127000D01*
X104827000Y-104127000D01*
X104827000Y-106413000D01*
X106020155Y-106413000D01*
X106141476Y-106183110D01*
X106096825Y-106035901D01*
X105971641Y-105773080D01*
X105797588Y-105539731D01*
X105581355Y-105344822D01*
X105455745Y-105270000D01*
X105581355Y-105195178D01*
X105797588Y-105000269D01*
X105971641Y-104766920D01*
X106096825Y-104504099D01*
X106141476Y-104356890D01*
X106020155Y-104127000D01*
X104827000Y-104127000D01*
X104573000Y-104127000D01*
X104553000Y-104127000D01*
X104553000Y-103873000D01*
X104573000Y-103873000D01*
X104573000Y-101587000D01*
X104827000Y-101587000D01*
X104827000Y-103873000D01*
X106020155Y-103873000D01*
X106141476Y-103643110D01*
X106096825Y-103495901D01*
X105971641Y-103233080D01*
X105797588Y-102999731D01*
X105581355Y-102804822D01*
X105455745Y-102730000D01*
X105581355Y-102655178D01*
X105797588Y-102460269D01*
X105971641Y-102226920D01*
X106096825Y-101964099D01*
X106141476Y-101816890D01*
X106020155Y-101587000D01*
X104827000Y-101587000D01*
X104573000Y-101587000D01*
X104553000Y-101587000D01*
X104553000Y-101333000D01*
X104573000Y-101333000D01*
X104573000Y-99047000D01*
X104827000Y-99047000D01*
X104827000Y-101333000D01*
X106020155Y-101333000D01*
X106141476Y-101103110D01*
X106096825Y-100955901D01*
X105971641Y-100693080D01*
X105797588Y-100459731D01*
X105581355Y-100264822D01*
X105455745Y-100190000D01*
X105581355Y-100115178D01*
X105797588Y-99920269D01*
X105971641Y-99686920D01*
X106096825Y-99424099D01*
X106141476Y-99276890D01*
X106020155Y-99047000D01*
X104827000Y-99047000D01*
X104573000Y-99047000D01*
X104553000Y-99047000D01*
X104553000Y-98793000D01*
X104573000Y-98793000D01*
X104573000Y-96507000D01*
X104827000Y-96507000D01*
X104827000Y-98793000D01*
X106020155Y-98793000D01*
X106141476Y-98563110D01*
X106096825Y-98415901D01*
X105971641Y-98153080D01*
X105797588Y-97919731D01*
X105581355Y-97724822D01*
X105455745Y-97650000D01*
X105581355Y-97575178D01*
X105797588Y-97380269D01*
X105971641Y-97146920D01*
X106096825Y-96884099D01*
X106141476Y-96736890D01*
X106020155Y-96507000D01*
X104827000Y-96507000D01*
X104573000Y-96507000D01*
X104553000Y-96507000D01*
X104553000Y-96253000D01*
X104573000Y-96253000D01*
X104573000Y-93967000D01*
X104827000Y-93967000D01*
X104827000Y-96253000D01*
X106020155Y-96253000D01*
X106141476Y-96023110D01*
X106096825Y-95875901D01*
X105971641Y-95613080D01*
X105797588Y-95379731D01*
X105581355Y-95184822D01*
X105455745Y-95110000D01*
X105581355Y-95035178D01*
X105797588Y-94840269D01*
X105971641Y-94606920D01*
X106096825Y-94344099D01*
X106141476Y-94196890D01*
X106020155Y-93967000D01*
X104827000Y-93967000D01*
X104573000Y-93967000D01*
X104553000Y-93967000D01*
X104553000Y-93713000D01*
X104573000Y-93713000D01*
X104573000Y-91427000D01*
X104827000Y-91427000D01*
X104827000Y-93713000D01*
X106020155Y-93713000D01*
X106141476Y-93483110D01*
X106096825Y-93335901D01*
X105971641Y-93073080D01*
X105797588Y-92839731D01*
X105713534Y-92763966D01*
X105794180Y-92739502D01*
X105904494Y-92680537D01*
X106001185Y-92601185D01*
X106080537Y-92504494D01*
X106139502Y-92394180D01*
X106175812Y-92274482D01*
X106188072Y-92150000D01*
X106185000Y-91585750D01*
X106026250Y-91427000D01*
X104827000Y-91427000D01*
X104573000Y-91427000D01*
X104553000Y-91427000D01*
X104553000Y-91173000D01*
X104573000Y-91173000D01*
X104573000Y-89973750D01*
X104827000Y-89973750D01*
X104827000Y-91173000D01*
X106026250Y-91173000D01*
X106185000Y-91014250D01*
X106188072Y-90450000D01*
X106175812Y-90325518D01*
X106139502Y-90205820D01*
X106080537Y-90095506D01*
X106001185Y-89998815D01*
X105904494Y-89919463D01*
X105794180Y-89860498D01*
X105674482Y-89824188D01*
X105550000Y-89811928D01*
X104985750Y-89815000D01*
X104827000Y-89973750D01*
X104573000Y-89973750D01*
X104414250Y-89815000D01*
X103850000Y-89811928D01*
X103725518Y-89824188D01*
X103706000Y-89830109D01*
X103706000Y-79446890D01*
X105408524Y-79446890D01*
X105453175Y-79594099D01*
X105578359Y-79856920D01*
X105752412Y-80090269D01*
X105968645Y-80285178D01*
X106218748Y-80434157D01*
X106493109Y-80531481D01*
X106723000Y-80410814D01*
X106723000Y-79217000D01*
X106977000Y-79217000D01*
X106977000Y-80410814D01*
X107206891Y-80531481D01*
X107481252Y-80434157D01*
X107731355Y-80285178D01*
X107947588Y-80090269D01*
X108121641Y-79856920D01*
X108246825Y-79594099D01*
X108291476Y-79446890D01*
X108170155Y-79217000D01*
X106977000Y-79217000D01*
X106723000Y-79217000D01*
X105529845Y-79217000D01*
X105408524Y-79446890D01*
X103706000Y-79446890D01*
X103706000Y-77400000D01*
X105361928Y-77400000D01*
X105374188Y-77524482D01*
X105410498Y-77644180D01*
X105469463Y-77754494D01*
X105548815Y-77851185D01*
X105645506Y-77930537D01*
X105755820Y-77989502D01*
X105836466Y-78013966D01*
X105752412Y-78089731D01*
X105578359Y-78323080D01*
X105453175Y-78585901D01*
X105408524Y-78733110D01*
X105529845Y-78963000D01*
X106723000Y-78963000D01*
X106723000Y-76677000D01*
X106977000Y-76677000D01*
X106977000Y-78963000D01*
X108170155Y-78963000D01*
X108291476Y-78733110D01*
X108246825Y-78585901D01*
X108121641Y-78323080D01*
X107947588Y-78089731D01*
X107863534Y-78013966D01*
X107944180Y-77989502D01*
X108054494Y-77930537D01*
X108151185Y-77851185D01*
X108230537Y-77754494D01*
X108289502Y-77644180D01*
X108325812Y-77524482D01*
X108338072Y-77400000D01*
X108335000Y-76835750D01*
X108201037Y-76701787D01*
X121402825Y-76701787D01*
X121402825Y-76898213D01*
X121441146Y-77090865D01*
X121516315Y-77272340D01*
X121625444Y-77435662D01*
X121764338Y-77574556D01*
X121927660Y-77683685D01*
X122109135Y-77758854D01*
X122301787Y-77797175D01*
X122498213Y-77797175D01*
X122690865Y-77758854D01*
X122872340Y-77683685D01*
X123035662Y-77574556D01*
X123174556Y-77435662D01*
X123283685Y-77272340D01*
X123358854Y-77090865D01*
X123397175Y-76898213D01*
X123397175Y-76701787D01*
X123358854Y-76509135D01*
X123283685Y-76327660D01*
X123174556Y-76164338D01*
X123035662Y-76025444D01*
X122872340Y-75916315D01*
X122690865Y-75841146D01*
X122498213Y-75802825D01*
X122301787Y-75802825D01*
X122109135Y-75841146D01*
X121927660Y-75916315D01*
X121764338Y-76025444D01*
X121625444Y-76164338D01*
X121516315Y-76327660D01*
X121441146Y-76509135D01*
X121402825Y-76701787D01*
X108201037Y-76701787D01*
X108176250Y-76677000D01*
X106977000Y-76677000D01*
X106723000Y-76677000D01*
X105523750Y-76677000D01*
X105365000Y-76835750D01*
X105361928Y-77400000D01*
X103706000Y-77400000D01*
X103706000Y-75700000D01*
X105361928Y-75700000D01*
X105365000Y-76264250D01*
X105523750Y-76423000D01*
X106723000Y-76423000D01*
X106723000Y-75223750D01*
X106977000Y-75223750D01*
X106977000Y-76423000D01*
X108176250Y-76423000D01*
X108335000Y-76264250D01*
X108338072Y-75700000D01*
X108325812Y-75575518D01*
X108289502Y-75455820D01*
X108230537Y-75345506D01*
X108151185Y-75248815D01*
X108054494Y-75169463D01*
X107944180Y-75110498D01*
X107824482Y-75074188D01*
X107700000Y-75061928D01*
X107135750Y-75065000D01*
X106977000Y-75223750D01*
X106723000Y-75223750D01*
X106564250Y-75065000D01*
X106000000Y-75061928D01*
X105875518Y-75074188D01*
X105755820Y-75110498D01*
X105645506Y-75169463D01*
X105548815Y-75248815D01*
X105469463Y-75345506D01*
X105410498Y-75455820D01*
X105374188Y-75575518D01*
X105361928Y-75700000D01*
X103706000Y-75700000D01*
X103706000Y-72896890D01*
X119433524Y-72896890D01*
X119478175Y-73044099D01*
X119603359Y-73306920D01*
X119777412Y-73540269D01*
X119993645Y-73735178D01*
X120243748Y-73884157D01*
X120518109Y-73981481D01*
X120748000Y-73860814D01*
X120748000Y-72667000D01*
X121002000Y-72667000D01*
X121002000Y-73860814D01*
X121231891Y-73981481D01*
X121506252Y-73884157D01*
X121756355Y-73735178D01*
X121972588Y-73540269D01*
X122146641Y-73306920D01*
X122271825Y-73044099D01*
X122316476Y-72896890D01*
X122195155Y-72667000D01*
X121002000Y-72667000D01*
X120748000Y-72667000D01*
X119554845Y-72667000D01*
X119433524Y-72896890D01*
X103706000Y-72896890D01*
X103706000Y-68900000D01*
X104873000Y-68900000D01*
X104873000Y-70100000D01*
X104875440Y-70124776D01*
X104882667Y-70148601D01*
X104894403Y-70170557D01*
X104910197Y-70189803D01*
X104929443Y-70205597D01*
X104951399Y-70217333D01*
X104975224Y-70224560D01*
X105000000Y-70227000D01*
X106200000Y-70227000D01*
X106224776Y-70224560D01*
X106248601Y-70217333D01*
X106270557Y-70205597D01*
X106289803Y-70189803D01*
X106305597Y-70170557D01*
X106317333Y-70148601D01*
X106324560Y-70124776D01*
X106327000Y-70100000D01*
X106327000Y-68900000D01*
X106324560Y-68875224D01*
X106324493Y-68875000D01*
X109017157Y-68875000D01*
X109017157Y-71875000D01*
X109024513Y-71949689D01*
X109046299Y-72021508D01*
X109081678Y-72087696D01*
X109129289Y-72145711D01*
X109187304Y-72193322D01*
X109253492Y-72228701D01*
X109325311Y-72250487D01*
X109400000Y-72257843D01*
X112400000Y-72257843D01*
X112474689Y-72250487D01*
X112546508Y-72228701D01*
X112612696Y-72193322D01*
X112670711Y-72145711D01*
X112718322Y-72087696D01*
X112753701Y-72021508D01*
X112775487Y-71949689D01*
X112782843Y-71875000D01*
X112782843Y-71866653D01*
X114667952Y-71866653D01*
X114823962Y-72182214D01*
X115198745Y-72373020D01*
X115603551Y-72487044D01*
X116022824Y-72519902D01*
X116440451Y-72470334D01*
X116840383Y-72340243D01*
X117136038Y-72182214D01*
X117292048Y-71866653D01*
X115980000Y-70554605D01*
X114667952Y-71866653D01*
X112782843Y-71866653D01*
X112782843Y-70417824D01*
X113835098Y-70417824D01*
X113884666Y-70835451D01*
X114014757Y-71235383D01*
X114172786Y-71531038D01*
X114488347Y-71687048D01*
X115800395Y-70375000D01*
X116159605Y-70375000D01*
X117471653Y-71687048D01*
X117787214Y-71531038D01*
X117978020Y-71156255D01*
X118064284Y-70850000D01*
X119386928Y-70850000D01*
X119399188Y-70974482D01*
X119435498Y-71094180D01*
X119494463Y-71204494D01*
X119573815Y-71301185D01*
X119670506Y-71380537D01*
X119780820Y-71439502D01*
X119861466Y-71463966D01*
X119777412Y-71539731D01*
X119603359Y-71773080D01*
X119478175Y-72035901D01*
X119433524Y-72183110D01*
X119554845Y-72413000D01*
X120748000Y-72413000D01*
X120748000Y-70127000D01*
X121002000Y-70127000D01*
X121002000Y-72413000D01*
X122195155Y-72413000D01*
X122316476Y-72183110D01*
X122271825Y-72035901D01*
X122146641Y-71773080D01*
X121972588Y-71539731D01*
X121888534Y-71463966D01*
X121969180Y-71439502D01*
X122079494Y-71380537D01*
X122176185Y-71301185D01*
X122255537Y-71204494D01*
X122314502Y-71094180D01*
X122350812Y-70974482D01*
X122363072Y-70850000D01*
X122360000Y-70285750D01*
X122201250Y-70127000D01*
X121002000Y-70127000D01*
X120748000Y-70127000D01*
X119548750Y-70127000D01*
X119390000Y-70285750D01*
X119386928Y-70850000D01*
X118064284Y-70850000D01*
X118092044Y-70751449D01*
X118124902Y-70332176D01*
X118075334Y-69914549D01*
X117945243Y-69514617D01*
X117787214Y-69218962D01*
X117647725Y-69150000D01*
X119386928Y-69150000D01*
X119390000Y-69714250D01*
X119548750Y-69873000D01*
X120748000Y-69873000D01*
X120748000Y-68673750D01*
X121002000Y-68673750D01*
X121002000Y-69873000D01*
X122201250Y-69873000D01*
X122360000Y-69714250D01*
X122363072Y-69150000D01*
X122350812Y-69025518D01*
X122314502Y-68905820D01*
X122255537Y-68795506D01*
X122176185Y-68698815D01*
X122079494Y-68619463D01*
X121969180Y-68560498D01*
X121849482Y-68524188D01*
X121725000Y-68511928D01*
X121160750Y-68515000D01*
X121002000Y-68673750D01*
X120748000Y-68673750D01*
X120589250Y-68515000D01*
X120025000Y-68511928D01*
X119900518Y-68524188D01*
X119780820Y-68560498D01*
X119670506Y-68619463D01*
X119573815Y-68698815D01*
X119494463Y-68795506D01*
X119435498Y-68905820D01*
X119399188Y-69025518D01*
X119386928Y-69150000D01*
X117647725Y-69150000D01*
X117471653Y-69062952D01*
X116159605Y-70375000D01*
X115800395Y-70375000D01*
X114488347Y-69062952D01*
X114172786Y-69218962D01*
X113981980Y-69593745D01*
X113867956Y-69998551D01*
X113835098Y-70417824D01*
X112782843Y-70417824D01*
X112782843Y-68883347D01*
X114667952Y-68883347D01*
X115980000Y-70195395D01*
X117292048Y-68883347D01*
X117136038Y-68567786D01*
X116761255Y-68376980D01*
X116356449Y-68262956D01*
X115937176Y-68230098D01*
X115519549Y-68279666D01*
X115119617Y-68409757D01*
X114823962Y-68567786D01*
X114667952Y-68883347D01*
X112782843Y-68883347D01*
X112782843Y-68875000D01*
X112775487Y-68800311D01*
X112753701Y-68728492D01*
X112718322Y-68662304D01*
X112670711Y-68604289D01*
X112612696Y-68556678D01*
X112546508Y-68521299D01*
X112474689Y-68499513D01*
X112400000Y-68492157D01*
X109400000Y-68492157D01*
X109325311Y-68499513D01*
X109253492Y-68521299D01*
X109187304Y-68556678D01*
X109129289Y-68604289D01*
X109081678Y-68662304D01*
X109046299Y-68728492D01*
X109024513Y-68800311D01*
X109017157Y-68875000D01*
X106324493Y-68875000D01*
X106317333Y-68851399D01*
X106305597Y-68829443D01*
X106289803Y-68810197D01*
X106270557Y-68794403D01*
X106248601Y-68782667D01*
X106224776Y-68775440D01*
X106200000Y-68773000D01*
X105000000Y-68773000D01*
X104975224Y-68775440D01*
X104951399Y-68782667D01*
X104929443Y-68794403D01*
X104910197Y-68810197D01*
X104894403Y-68829443D01*
X104882667Y-68851399D01*
X104875440Y-68875224D01*
X104873000Y-68900000D01*
X103706000Y-68900000D01*
X103706000Y-68106562D01*
X103725444Y-68135662D01*
X103864338Y-68274556D01*
X104027660Y-68383685D01*
X104209135Y-68458854D01*
X104401787Y-68497175D01*
X104598213Y-68497175D01*
X104790865Y-68458854D01*
X104972340Y-68383685D01*
X105135662Y-68274556D01*
X105274556Y-68135662D01*
X105383685Y-67972340D01*
X105458854Y-67790865D01*
X105497175Y-67598213D01*
X105497175Y-67401787D01*
X105458854Y-67209135D01*
X105383685Y-67027660D01*
X105274556Y-66864338D01*
X105135662Y-66725444D01*
X105106562Y-66706000D01*
X123380147Y-66706000D01*
X123417881Y-66709700D01*
%TA.AperFunction,Conductor*%
D22*
G36*
X123417881Y-66709700D02*
G01*
X123435078Y-66714892D01*
X123450943Y-66723328D01*
X123464861Y-66734680D01*
X123476317Y-66748528D01*
X123484861Y-66764330D01*
X123490173Y-66781489D01*
X123494000Y-66817901D01*
X123494000Y-89836176D01*
X123454482Y-89824188D01*
X123330000Y-89811928D01*
X122765750Y-89815000D01*
X122607000Y-89973750D01*
X122607000Y-91173000D01*
X122627000Y-91173000D01*
X122627000Y-91427000D01*
X122607000Y-91427000D01*
X122607000Y-91447000D01*
X122353000Y-91447000D01*
X122353000Y-91427000D01*
X121153750Y-91427000D01*
X120995000Y-91585750D01*
X120991928Y-92150000D01*
X121004188Y-92274482D01*
X121040498Y-92394180D01*
X121099463Y-92504494D01*
X121178815Y-92601185D01*
X121275506Y-92680537D01*
X121385820Y-92739502D01*
X121505518Y-92775812D01*
X121630000Y-92788072D01*
X121840294Y-92786927D01*
X121695283Y-92883820D01*
X121523820Y-93055283D01*
X121389102Y-93256903D01*
X121296307Y-93480931D01*
X121249000Y-93718757D01*
X121249000Y-93961243D01*
X121296307Y-94199069D01*
X121389102Y-94423097D01*
X121523820Y-94624717D01*
X121695283Y-94796180D01*
X121896903Y-94930898D01*
X122120931Y-95023693D01*
X122358757Y-95071000D01*
X122601243Y-95071000D01*
X122839069Y-95023693D01*
X123063097Y-94930898D01*
X123264717Y-94796180D01*
X123436180Y-94624717D01*
X123494001Y-94538182D01*
X123494001Y-95681818D01*
X123436180Y-95595283D01*
X123264717Y-95423820D01*
X123063097Y-95289102D01*
X122839069Y-95196307D01*
X122601243Y-95149000D01*
X122358757Y-95149000D01*
X122120931Y-95196307D01*
X121896903Y-95289102D01*
X121695283Y-95423820D01*
X121523820Y-95595283D01*
X121389102Y-95796903D01*
X121296307Y-96020931D01*
X121249000Y-96258757D01*
X121249000Y-96501243D01*
X121296307Y-96739069D01*
X121389102Y-96963097D01*
X121523820Y-97164717D01*
X121695283Y-97336180D01*
X121896903Y-97470898D01*
X122011168Y-97518228D01*
X121848748Y-97575843D01*
X121598645Y-97724822D01*
X121382412Y-97919731D01*
X121218078Y-98140050D01*
X121169942Y-98107887D01*
X121027809Y-98049013D01*
X120876922Y-98019000D01*
X120723078Y-98019000D01*
X120572191Y-98049013D01*
X120430058Y-98107887D01*
X120302141Y-98193358D01*
X120193358Y-98302141D01*
X120107887Y-98430058D01*
X120049013Y-98572191D01*
X120019000Y-98723078D01*
X120019000Y-98876922D01*
X120049013Y-99027809D01*
X120107887Y-99169942D01*
X120169000Y-99261405D01*
X120169000Y-99334695D01*
X120165948Y-99365685D01*
X120169000Y-99396675D01*
X120169000Y-99396683D01*
X120178130Y-99489383D01*
X120214211Y-99608327D01*
X120272804Y-99717946D01*
X120351658Y-99814028D01*
X120375732Y-99833785D01*
X120621999Y-100080053D01*
X120622000Y-101844747D01*
X120614211Y-101859319D01*
X120578130Y-101978263D01*
X120569000Y-102070963D01*
X120569000Y-102070970D01*
X120565948Y-102101960D01*
X120569000Y-102132950D01*
X120569001Y-105568993D01*
X120569000Y-105569003D01*
X120569001Y-107168993D01*
X120569000Y-107169003D01*
X120569001Y-109738632D01*
X120538632Y-109769000D01*
X119530998Y-109769000D01*
X119500000Y-109765947D01*
X119376302Y-109778130D01*
X119257358Y-109814211D01*
X119147739Y-109872804D01*
X119051657Y-109951657D01*
X119031899Y-109975732D01*
X118250000Y-110757632D01*
X118172447Y-110680079D01*
X118150987Y-110572191D01*
X118092113Y-110430058D01*
X118049423Y-110366168D01*
X119642107Y-108773485D01*
X119661414Y-108757640D01*
X119724646Y-108680592D01*
X119771632Y-108592688D01*
X119800565Y-108497306D01*
X119807887Y-108422967D01*
X119810335Y-108398113D01*
X119807887Y-108373259D01*
X119807887Y-103639665D01*
X119838917Y-103593226D01*
X119884599Y-103482941D01*
X119907887Y-103365863D01*
X119907887Y-103246491D01*
X119884599Y-103129413D01*
X119842272Y-103027228D01*
X119870745Y-102998755D01*
X119937064Y-102899502D01*
X119982746Y-102789217D01*
X120006034Y-102672139D01*
X120006034Y-102552767D01*
X119982746Y-102435689D01*
X119937064Y-102325404D01*
X119935304Y-102322770D01*
X119935482Y-102322503D01*
X119981164Y-102212218D01*
X119992061Y-102157436D01*
X120065216Y-102084281D01*
X120084528Y-102068432D01*
X120147760Y-101991384D01*
X120194746Y-101903480D01*
X120223679Y-101808098D01*
X120231001Y-101733759D01*
X120231001Y-101733752D01*
X120233448Y-101708906D01*
X120231001Y-101684060D01*
X120231001Y-100878698D01*
X120233448Y-100853852D01*
X120231001Y-100829006D01*
X120231001Y-100828999D01*
X120223679Y-100754660D01*
X120194746Y-100659278D01*
X120147760Y-100571374D01*
X120084528Y-100494326D01*
X120065221Y-100478481D01*
X117318213Y-97731474D01*
X117302364Y-97712162D01*
X117225316Y-97648930D01*
X117171604Y-97620220D01*
X116584469Y-97033086D01*
X116568620Y-97013774D01*
X116491572Y-96950542D01*
X116403668Y-96903556D01*
X116308286Y-96874623D01*
X116233947Y-96867301D01*
X116233939Y-96867301D01*
X116209093Y-96864854D01*
X116184247Y-96867301D01*
X115739193Y-96867301D01*
X114458001Y-95586110D01*
X114458001Y-94996890D01*
X115608524Y-94996890D01*
X115653175Y-95144099D01*
X115778359Y-95406920D01*
X115952412Y-95640269D01*
X116168645Y-95835178D01*
X116418748Y-95984157D01*
X116693109Y-96081481D01*
X116923000Y-95960814D01*
X116923000Y-94767000D01*
X117177000Y-94767000D01*
X117177000Y-95960814D01*
X117406891Y-96081481D01*
X117681252Y-95984157D01*
X117931355Y-95835178D01*
X118147588Y-95640269D01*
X118321641Y-95406920D01*
X118446825Y-95144099D01*
X118491476Y-94996890D01*
X118370155Y-94767000D01*
X117177000Y-94767000D01*
X116923000Y-94767000D01*
X115729845Y-94767000D01*
X115608524Y-94996890D01*
X114458001Y-94996890D01*
X114458001Y-92950000D01*
X115561928Y-92950000D01*
X115574188Y-93074482D01*
X115610498Y-93194180D01*
X115669463Y-93304494D01*
X115748815Y-93401185D01*
X115845506Y-93480537D01*
X115955820Y-93539502D01*
X116036466Y-93563966D01*
X115952412Y-93639731D01*
X115778359Y-93873080D01*
X115653175Y-94135901D01*
X115608524Y-94283110D01*
X115729845Y-94513000D01*
X116923000Y-94513000D01*
X116923000Y-92227000D01*
X117177000Y-92227000D01*
X117177000Y-94513000D01*
X118370155Y-94513000D01*
X118491476Y-94283110D01*
X118446825Y-94135901D01*
X118321641Y-93873080D01*
X118147588Y-93639731D01*
X118063534Y-93563966D01*
X118144180Y-93539502D01*
X118254494Y-93480537D01*
X118351185Y-93401185D01*
X118430537Y-93304494D01*
X118489502Y-93194180D01*
X118525812Y-93074482D01*
X118538072Y-92950000D01*
X118535000Y-92385750D01*
X118376250Y-92227000D01*
X117177000Y-92227000D01*
X116923000Y-92227000D01*
X115723750Y-92227000D01*
X115565000Y-92385750D01*
X115561928Y-92950000D01*
X114458001Y-92950000D01*
X114458001Y-92073244D01*
X114460448Y-92048398D01*
X114458001Y-92023552D01*
X114458001Y-92023545D01*
X114450679Y-91949206D01*
X114421746Y-91853824D01*
X114374760Y-91765920D01*
X114311528Y-91688872D01*
X114292216Y-91673023D01*
X114276977Y-91657784D01*
X114261128Y-91638472D01*
X114184080Y-91575240D01*
X114096176Y-91528254D01*
X114000794Y-91499321D01*
X113926455Y-91491999D01*
X113926447Y-91491999D01*
X113901601Y-91489552D01*
X113876755Y-91491999D01*
X113658898Y-91491999D01*
X113806180Y-91344717D01*
X113869467Y-91250000D01*
X115561928Y-91250000D01*
X115565000Y-91814250D01*
X115723750Y-91973000D01*
X116923000Y-91973000D01*
X116923000Y-90773750D01*
X117177000Y-90773750D01*
X117177000Y-91973000D01*
X118376250Y-91973000D01*
X118535000Y-91814250D01*
X118538072Y-91250000D01*
X118525812Y-91125518D01*
X118489502Y-91005820D01*
X118430537Y-90895506D01*
X118351185Y-90798815D01*
X118254494Y-90719463D01*
X118144180Y-90660498D01*
X118024482Y-90624188D01*
X117900000Y-90611928D01*
X117335750Y-90615000D01*
X117177000Y-90773750D01*
X116923000Y-90773750D01*
X116764250Y-90615000D01*
X116200000Y-90611928D01*
X116075518Y-90624188D01*
X115955820Y-90660498D01*
X115845506Y-90719463D01*
X115748815Y-90798815D01*
X115669463Y-90895506D01*
X115610498Y-91005820D01*
X115574188Y-91125518D01*
X115561928Y-91250000D01*
X113869467Y-91250000D01*
X113940898Y-91143097D01*
X114033693Y-90919069D01*
X114081000Y-90681243D01*
X114081000Y-90450000D01*
X120991928Y-90450000D01*
X120995000Y-91014250D01*
X121153750Y-91173000D01*
X122353000Y-91173000D01*
X122353000Y-89973750D01*
X122194250Y-89815000D01*
X121630000Y-89811928D01*
X121505518Y-89824188D01*
X121385820Y-89860498D01*
X121275506Y-89919463D01*
X121178815Y-89998815D01*
X121099463Y-90095506D01*
X121040498Y-90205820D01*
X121004188Y-90325518D01*
X120991928Y-90450000D01*
X114081000Y-90450000D01*
X114081000Y-90438757D01*
X114033693Y-90200931D01*
X113940898Y-89976903D01*
X113806180Y-89775283D01*
X113634717Y-89603820D01*
X113433097Y-89469102D01*
X113209069Y-89376307D01*
X112971243Y-89329000D01*
X112728757Y-89329000D01*
X112490931Y-89376307D01*
X112266903Y-89469102D01*
X112085230Y-89590492D01*
X112085230Y-89216163D01*
X112087677Y-89191317D01*
X112085230Y-89166471D01*
X112085230Y-89166464D01*
X112077908Y-89092125D01*
X112074499Y-89080885D01*
X112069681Y-89065003D01*
X112048975Y-88996743D01*
X112001989Y-88908839D01*
X111938757Y-88831791D01*
X111919450Y-88815946D01*
X109422467Y-86318964D01*
X109406618Y-86299652D01*
X109329570Y-86236420D01*
X109241666Y-86189434D01*
X109146284Y-86160501D01*
X109071945Y-86153179D01*
X109071937Y-86153179D01*
X109047091Y-86150732D01*
X109022245Y-86153179D01*
X108964115Y-86153179D01*
X108917676Y-86122149D01*
X108807391Y-86076467D01*
X108690313Y-86053179D01*
X108570941Y-86053179D01*
X108453863Y-86076467D01*
X108343578Y-86122149D01*
X108244325Y-86188468D01*
X108159916Y-86272877D01*
X108093597Y-86372130D01*
X108047915Y-86482415D01*
X108024627Y-86599493D01*
X108024627Y-86718865D01*
X108046278Y-86827711D01*
X108037291Y-86836698D01*
X107970972Y-86935951D01*
X107925290Y-87046236D01*
X107910072Y-87122741D01*
X107812951Y-87162970D01*
X107713698Y-87229289D01*
X107629289Y-87313698D01*
X107562970Y-87412951D01*
X107517288Y-87523236D01*
X107494000Y-87640314D01*
X107494000Y-87759686D01*
X107517288Y-87876764D01*
X107562970Y-87987049D01*
X107629289Y-88086302D01*
X107713698Y-88170711D01*
X107812951Y-88237030D01*
X107923236Y-88282712D01*
X108040314Y-88306000D01*
X108159686Y-88306000D01*
X108276764Y-88282712D01*
X108387049Y-88237030D01*
X108433488Y-88206000D01*
X108811977Y-88206000D01*
X109789882Y-89183905D01*
X109752492Y-89221295D01*
X109686173Y-89320548D01*
X109672458Y-89353658D01*
X109584838Y-89371087D01*
X109474553Y-89416769D01*
X109375300Y-89483088D01*
X109290891Y-89567497D01*
X109224572Y-89666750D01*
X109210858Y-89699859D01*
X109123236Y-89717288D01*
X109012951Y-89762970D01*
X108913698Y-89829289D01*
X108829289Y-89913698D01*
X108762970Y-90012951D01*
X108717288Y-90123236D01*
X108706392Y-90178017D01*
X108259780Y-90624629D01*
X108240474Y-90640473D01*
X108177242Y-90717521D01*
X108176204Y-90719463D01*
X108130255Y-90805426D01*
X108101322Y-90900808D01*
X108091553Y-91000000D01*
X108094001Y-91024856D01*
X108094000Y-91468511D01*
X108062970Y-91514951D01*
X108017288Y-91625236D01*
X107994000Y-91742314D01*
X107994000Y-91861686D01*
X108017288Y-91978764D01*
X108062970Y-92089049D01*
X108129289Y-92188302D01*
X108213698Y-92272711D01*
X108312951Y-92339030D01*
X108423236Y-92384712D01*
X108540314Y-92408000D01*
X108659686Y-92408000D01*
X108776764Y-92384712D01*
X108887049Y-92339030D01*
X108986302Y-92272711D01*
X109070711Y-92188302D01*
X109137030Y-92089049D01*
X109182712Y-91978764D01*
X109206000Y-91861686D01*
X109206000Y-91742314D01*
X109182712Y-91625236D01*
X109137030Y-91514951D01*
X109106000Y-91468512D01*
X109106000Y-91209591D01*
X109271002Y-91044590D01*
X109271001Y-93728543D01*
X109268554Y-93753389D01*
X109271001Y-93778235D01*
X109271001Y-93778242D01*
X109278323Y-93852581D01*
X109307256Y-93947963D01*
X109354242Y-94035868D01*
X109417474Y-94112916D01*
X109436786Y-94128765D01*
X114518198Y-99210178D01*
X114529094Y-99264958D01*
X114574776Y-99375243D01*
X114641095Y-99474496D01*
X114725504Y-99558905D01*
X114824757Y-99625224D01*
X114935042Y-99670906D01*
X115052120Y-99694194D01*
X115171492Y-99694194D01*
X115288570Y-99670906D01*
X115398855Y-99625224D01*
X115498108Y-99558905D01*
X115582517Y-99474496D01*
X115648836Y-99375243D01*
X115661379Y-99344961D01*
X115751857Y-99326964D01*
X115862142Y-99281282D01*
X115961395Y-99214963D01*
X116045804Y-99130554D01*
X116107152Y-99038740D01*
X116120465Y-99038740D01*
X116237543Y-99015452D01*
X116347828Y-98969770D01*
X116447081Y-98903451D01*
X116468780Y-98881752D01*
X116475938Y-98888910D01*
X116491783Y-98908217D01*
X116568831Y-98971449D01*
X116622545Y-99000160D01*
X118742000Y-101119616D01*
X118742000Y-101130948D01*
X118710970Y-101177388D01*
X118665288Y-101287673D01*
X118642000Y-101404751D01*
X118642000Y-101524123D01*
X118665288Y-101641201D01*
X118710970Y-101751486D01*
X118777289Y-101850739D01*
X118810680Y-101884130D01*
X118792452Y-101975768D01*
X118792452Y-102095140D01*
X118810116Y-102183943D01*
X118799357Y-102189694D01*
X118722309Y-102252926D01*
X118706460Y-102272238D01*
X118484671Y-102494027D01*
X118465359Y-102509876D01*
X118402127Y-102586924D01*
X118355141Y-102674829D01*
X118326208Y-102770211D01*
X118318886Y-102844550D01*
X118318886Y-102844557D01*
X118316439Y-102869403D01*
X118318886Y-102894250D01*
X118318887Y-103500030D01*
X118316439Y-103524886D01*
X118326208Y-103624078D01*
X118355141Y-103719460D01*
X118377013Y-103760378D01*
X118402128Y-103807365D01*
X118418877Y-103827774D01*
X118418878Y-108032358D01*
X117186247Y-109264990D01*
X116955738Y-109264991D01*
X116930876Y-109262542D01*
X116831683Y-109272312D01*
X116736301Y-109301245D01*
X116648397Y-109348232D01*
X116590654Y-109395620D01*
X116590650Y-109395624D01*
X116571349Y-109411464D01*
X116555509Y-109430765D01*
X116030774Y-109955501D01*
X116011462Y-109971350D01*
X115948230Y-110048398D01*
X115901244Y-110136303D01*
X115872311Y-110231685D01*
X115864989Y-110306024D01*
X115864989Y-110306031D01*
X115862542Y-110330877D01*
X115864989Y-110355724D01*
X115864990Y-111989055D01*
X115864989Y-111989065D01*
X115864990Y-116580310D01*
X115824627Y-116640717D01*
X115778945Y-116751002D01*
X115755657Y-116868080D01*
X115755657Y-116987452D01*
X115778945Y-117104530D01*
X115824627Y-117214815D01*
X115890946Y-117314068D01*
X115975355Y-117398477D01*
X116074608Y-117464796D01*
X116184893Y-117510478D01*
X116301971Y-117533766D01*
X116421343Y-117533766D01*
X116538421Y-117510478D01*
X116648706Y-117464796D01*
X116747959Y-117398477D01*
X116765422Y-117381014D01*
X117006392Y-117621983D01*
X117017288Y-117676764D01*
X117062970Y-117787049D01*
X117129289Y-117886302D01*
X117213698Y-117970711D01*
X117312951Y-118037030D01*
X117423236Y-118082712D01*
X117540314Y-118106000D01*
X117659686Y-118106000D01*
X117776764Y-118082712D01*
X117887049Y-118037030D01*
X117986302Y-117970711D01*
X118070711Y-117886302D01*
X118137030Y-117787049D01*
X118182712Y-117676764D01*
X118206000Y-117559686D01*
X118206000Y-117440314D01*
X118182712Y-117323236D01*
X118137030Y-117212951D01*
X118070711Y-117113698D01*
X117986302Y-117029289D01*
X117887049Y-116962970D01*
X117776764Y-116917288D01*
X117721983Y-116906392D01*
X117253999Y-116438408D01*
X117253999Y-111567259D01*
X117280079Y-111572447D01*
X117598508Y-111890877D01*
X117614211Y-111942642D01*
X117672804Y-112052261D01*
X117708348Y-112095570D01*
X117751657Y-112148343D01*
X117818375Y-112203097D01*
X117847740Y-112227196D01*
X117957359Y-112285789D01*
X118076303Y-112321870D01*
X118200000Y-112334053D01*
X118323698Y-112321870D01*
X118442642Y-112285789D01*
X118552261Y-112227196D01*
X118648343Y-112148343D01*
X118668104Y-112124264D01*
X119761369Y-111031000D01*
X120769010Y-111031000D01*
X120800000Y-111034052D01*
X120830990Y-111031000D01*
X120830998Y-111031000D01*
X120923698Y-111021870D01*
X121042642Y-110985789D01*
X121152261Y-110927196D01*
X121248343Y-110848343D01*
X121268106Y-110824262D01*
X121624258Y-110468110D01*
X121648343Y-110448343D01*
X121727196Y-110352261D01*
X121785789Y-110242642D01*
X121821870Y-110123698D01*
X121822141Y-110120944D01*
X121896903Y-110170898D01*
X122120931Y-110263693D01*
X122358757Y-110311000D01*
X122601243Y-110311000D01*
X122839069Y-110263693D01*
X123063097Y-110170898D01*
X123264717Y-110036180D01*
X123436180Y-109864717D01*
X123494001Y-109778182D01*
X123494001Y-110921818D01*
X123436180Y-110835283D01*
X123264717Y-110663820D01*
X123063097Y-110529102D01*
X122839069Y-110436307D01*
X122601243Y-110389000D01*
X122358757Y-110389000D01*
X122120931Y-110436307D01*
X121896903Y-110529102D01*
X121695283Y-110663820D01*
X121523820Y-110835283D01*
X121389102Y-111036903D01*
X121296307Y-111260931D01*
X121249000Y-111498757D01*
X121249000Y-111741243D01*
X121296307Y-111979069D01*
X121389102Y-112203097D01*
X121523820Y-112404717D01*
X121695283Y-112576180D01*
X121896903Y-112710898D01*
X122120931Y-112803693D01*
X122358757Y-112851000D01*
X122601243Y-112851000D01*
X122839069Y-112803693D01*
X123063097Y-112710898D01*
X123264717Y-112576180D01*
X123436180Y-112404717D01*
X123494001Y-112318182D01*
X123494001Y-113461818D01*
X123436180Y-113375283D01*
X123264717Y-113203820D01*
X123063097Y-113069102D01*
X122839069Y-112976307D01*
X122601243Y-112929000D01*
X122358757Y-112929000D01*
X122120931Y-112976307D01*
X121896903Y-113069102D01*
X121695283Y-113203820D01*
X121523820Y-113375283D01*
X121389102Y-113576903D01*
X121296307Y-113800931D01*
X121249000Y-114038757D01*
X121249000Y-114281243D01*
X121296307Y-114519069D01*
X121389102Y-114743097D01*
X121523820Y-114944717D01*
X121695283Y-115116180D01*
X121896903Y-115250898D01*
X122120931Y-115343693D01*
X122358757Y-115391000D01*
X122601243Y-115391000D01*
X122839069Y-115343693D01*
X123063097Y-115250898D01*
X123264717Y-115116180D01*
X123436180Y-114944717D01*
X123494001Y-114858182D01*
X123494001Y-116001818D01*
X123436180Y-115915283D01*
X123264717Y-115743820D01*
X123063097Y-115609102D01*
X122839069Y-115516307D01*
X122601243Y-115469000D01*
X122358757Y-115469000D01*
X122120931Y-115516307D01*
X121896903Y-115609102D01*
X121695283Y-115743820D01*
X121523820Y-115915283D01*
X121389102Y-116116903D01*
X121296307Y-116340931D01*
X121249000Y-116578757D01*
X121249000Y-116821243D01*
X121296307Y-117059069D01*
X121389102Y-117283097D01*
X121523820Y-117484717D01*
X121695283Y-117656180D01*
X121896903Y-117790898D01*
X122120931Y-117883693D01*
X122358757Y-117931000D01*
X122601243Y-117931000D01*
X122839069Y-117883693D01*
X123063097Y-117790898D01*
X123264717Y-117656180D01*
X123436180Y-117484717D01*
X123494001Y-117398182D01*
X123494001Y-118541818D01*
X123436180Y-118455283D01*
X123264717Y-118283820D01*
X123063097Y-118149102D01*
X122839069Y-118056307D01*
X122601243Y-118009000D01*
X122358757Y-118009000D01*
X122120931Y-118056307D01*
X121896903Y-118149102D01*
X121695283Y-118283820D01*
X121523820Y-118455283D01*
X121389102Y-118656903D01*
X121296307Y-118880931D01*
X121249000Y-119118757D01*
X121249000Y-119361243D01*
X121296307Y-119599069D01*
X121389102Y-119823097D01*
X121523820Y-120024717D01*
X121695283Y-120196180D01*
X121896903Y-120330898D01*
X122120931Y-120423693D01*
X122358757Y-120471000D01*
X122601243Y-120471000D01*
X122839069Y-120423693D01*
X123063097Y-120330898D01*
X123264717Y-120196180D01*
X123436180Y-120024717D01*
X123494001Y-119938182D01*
X123494001Y-120580139D01*
X123490301Y-120617878D01*
X123485107Y-120635079D01*
X123476672Y-120650944D01*
X123465322Y-120664860D01*
X123451472Y-120676318D01*
X123435672Y-120684861D01*
X123418511Y-120690173D01*
X123382099Y-120694000D01*
X116234830Y-120694000D01*
X116290865Y-120682854D01*
X116472340Y-120607685D01*
X116635662Y-120498556D01*
X116774556Y-120359662D01*
X116883685Y-120196340D01*
X116958854Y-120014865D01*
X116997175Y-119822213D01*
X116997175Y-119625787D01*
X116958854Y-119433135D01*
X116883685Y-119251660D01*
X116774556Y-119088338D01*
X116635662Y-118949444D01*
X116472340Y-118840315D01*
X116290865Y-118765146D01*
X116098213Y-118726825D01*
X115901787Y-118726825D01*
X115709135Y-118765146D01*
X115527660Y-118840315D01*
X115364338Y-118949444D01*
X115225444Y-119088338D01*
X115116315Y-119251660D01*
X115041146Y-119433135D01*
X115002825Y-119625787D01*
X115002825Y-119822213D01*
X115041146Y-120014865D01*
X115116315Y-120196340D01*
X115225444Y-120359662D01*
X115364338Y-120498556D01*
X115527660Y-120607685D01*
X115709135Y-120682854D01*
X115765170Y-120694000D01*
X109155198Y-120694000D01*
X111663935Y-118185264D01*
X111676764Y-118182712D01*
X111787049Y-118137030D01*
X111886302Y-118070711D01*
X111970711Y-117986302D01*
X112037030Y-117887049D01*
X112082712Y-117776764D01*
X112106000Y-117659686D01*
X112106000Y-117540314D01*
X112082712Y-117423236D01*
X112037030Y-117312951D01*
X112028376Y-117300000D01*
X112037030Y-117287049D01*
X112082712Y-117176764D01*
X112106000Y-117059686D01*
X112106000Y-116940314D01*
X112082712Y-116823236D01*
X112037030Y-116712951D01*
X111970711Y-116613698D01*
X111886302Y-116529289D01*
X111787049Y-116462970D01*
X111676764Y-116417288D01*
X111559686Y-116394000D01*
X111440314Y-116394000D01*
X111323236Y-116417288D01*
X111212951Y-116462970D01*
X111113698Y-116529289D01*
X111029289Y-116613698D01*
X110962970Y-116712951D01*
X110961184Y-116717262D01*
X110032446Y-117646001D01*
X107767259Y-117646001D01*
X107781000Y-117576922D01*
X107781000Y-117423078D01*
X107750987Y-117272191D01*
X107692113Y-117130058D01*
X107631000Y-117038595D01*
X107631000Y-114161405D01*
X107692113Y-114069942D01*
X107750987Y-113927809D01*
X107781000Y-113776922D01*
X107781000Y-113623078D01*
X107750987Y-113472191D01*
X107692113Y-113330058D01*
X107631000Y-113238595D01*
X107631000Y-110461405D01*
X107692113Y-110369942D01*
X107750987Y-110227809D01*
X107781000Y-110076922D01*
X107781000Y-109923078D01*
X107750987Y-109772191D01*
X107692113Y-109630058D01*
X107631000Y-109538595D01*
X107631000Y-106661405D01*
X107692113Y-106569942D01*
X107750987Y-106427809D01*
X107781000Y-106276922D01*
X107781000Y-106123078D01*
X107750987Y-105972191D01*
X107692113Y-105830058D01*
X107631000Y-105738595D01*
X107631000Y-102861405D01*
X107692113Y-102769942D01*
X107750987Y-102627809D01*
X107781000Y-102476922D01*
X107781000Y-102323078D01*
X107750987Y-102172191D01*
X107692113Y-102030058D01*
X107631000Y-101938595D01*
X107631000Y-99161405D01*
X107692113Y-99069942D01*
X107750987Y-98927809D01*
X107781000Y-98776922D01*
X107781000Y-98623078D01*
X107750987Y-98472191D01*
X107692113Y-98330058D01*
X107606642Y-98202141D01*
X107579042Y-98174541D01*
X107579042Y-95386836D01*
X107640155Y-95295373D01*
X107699029Y-95153240D01*
X107729042Y-95002353D01*
X107729042Y-94848509D01*
X107699029Y-94697622D01*
X107640155Y-94555489D01*
X107631000Y-94541788D01*
X107631000Y-91661405D01*
X107692113Y-91569942D01*
X107750987Y-91427809D01*
X107781000Y-91276922D01*
X107781000Y-91123078D01*
X107750987Y-90972191D01*
X107692113Y-90830058D01*
X107606642Y-90702141D01*
X107497859Y-90593358D01*
X107369942Y-90507887D01*
X107227809Y-90449013D01*
X107076922Y-90419000D01*
X106923078Y-90419000D01*
X106772191Y-90449013D01*
X106630058Y-90507887D01*
X106502141Y-90593358D01*
X106393358Y-90702141D01*
X106307887Y-90830058D01*
X106249013Y-90972191D01*
X106219000Y-91123078D01*
X106219000Y-91276922D01*
X106249013Y-91427809D01*
X106307887Y-91569942D01*
X106369000Y-91661405D01*
X106369001Y-94399971D01*
X106341400Y-94427572D01*
X106255929Y-94555489D01*
X106197055Y-94697622D01*
X106167042Y-94848509D01*
X106167042Y-95002353D01*
X106197055Y-95153240D01*
X106255929Y-95295373D01*
X106317042Y-95386836D01*
X106317043Y-98316355D01*
X106307887Y-98330058D01*
X106249013Y-98472191D01*
X106219000Y-98623078D01*
X106219000Y-98776922D01*
X106249013Y-98927809D01*
X106307887Y-99069942D01*
X106369000Y-99161405D01*
X106369001Y-101938594D01*
X106307887Y-102030058D01*
X106249013Y-102172191D01*
X106219000Y-102323078D01*
X106219000Y-102476922D01*
X106249013Y-102627809D01*
X106307887Y-102769942D01*
X106369000Y-102861405D01*
X106369001Y-105738594D01*
X106307887Y-105830058D01*
X106249013Y-105972191D01*
X106219000Y-106123078D01*
X106219000Y-106276922D01*
X106249013Y-106427809D01*
X106307887Y-106569942D01*
X106369000Y-106661405D01*
X106369001Y-109538594D01*
X106307887Y-109630058D01*
X106249013Y-109772191D01*
X106219000Y-109923078D01*
X106219000Y-110076922D01*
X106249013Y-110227809D01*
X106307887Y-110369942D01*
X106369000Y-110461405D01*
X106369001Y-113238594D01*
X106307887Y-113330058D01*
X106249013Y-113472191D01*
X106219000Y-113623078D01*
X106219000Y-113776922D01*
X106249013Y-113927809D01*
X106307887Y-114069942D01*
X106369000Y-114161405D01*
X106369001Y-116766075D01*
X106327809Y-116749013D01*
X106176922Y-116719000D01*
X106023078Y-116719000D01*
X105931000Y-116737315D01*
X105931000Y-116578757D01*
X105883693Y-116340931D01*
X105790898Y-116116903D01*
X105656180Y-115915283D01*
X105484717Y-115743820D01*
X105283097Y-115609102D01*
X105059069Y-115516307D01*
X104821243Y-115469000D01*
X104578757Y-115469000D01*
X104340931Y-115516307D01*
X104116903Y-115609102D01*
X103915283Y-115743820D01*
X103743820Y-115915283D01*
X103706000Y-115971885D01*
X103706000Y-114888115D01*
X103743820Y-114944717D01*
X103915283Y-115116180D01*
X104116903Y-115250898D01*
X104340931Y-115343693D01*
X104578757Y-115391000D01*
X104821243Y-115391000D01*
X105059069Y-115343693D01*
X105283097Y-115250898D01*
X105484717Y-115116180D01*
X105656180Y-114944717D01*
X105790898Y-114743097D01*
X105883693Y-114519069D01*
X105931000Y-114281243D01*
X105931000Y-114038757D01*
X105883693Y-113800931D01*
X105790898Y-113576903D01*
X105656180Y-113375283D01*
X105484717Y-113203820D01*
X105283097Y-113069102D01*
X105168832Y-113021772D01*
X105331252Y-112964157D01*
X105581355Y-112815178D01*
X105797588Y-112620269D01*
X105971641Y-112386920D01*
X106096825Y-112124099D01*
X106141476Y-111976890D01*
X106020155Y-111747000D01*
X104827000Y-111747000D01*
X104827000Y-111767000D01*
X104573000Y-111767000D01*
X104573000Y-111747000D01*
X104553000Y-111747000D01*
X104553000Y-111493000D01*
X104573000Y-111493000D01*
X104573000Y-109207000D01*
X104827000Y-109207000D01*
X104827000Y-111493000D01*
X106020155Y-111493000D01*
X106141476Y-111263110D01*
X106096825Y-111115901D01*
X105971641Y-110853080D01*
X105797588Y-110619731D01*
X105581355Y-110424822D01*
X105455745Y-110350000D01*
X105581355Y-110275178D01*
X105797588Y-110080269D01*
X105971641Y-109846920D01*
X106096825Y-109584099D01*
X106141476Y-109436890D01*
X106020155Y-109207000D01*
X104827000Y-109207000D01*
X104573000Y-109207000D01*
X104553000Y-109207000D01*
X104553000Y-108953000D01*
X104573000Y-108953000D01*
X104573000Y-106667000D01*
X104827000Y-106667000D01*
X104827000Y-108953000D01*
X106020155Y-108953000D01*
X106141476Y-108723110D01*
X106096825Y-108575901D01*
X105971641Y-108313080D01*
X105797588Y-108079731D01*
X105581355Y-107884822D01*
X105455745Y-107810000D01*
X105581355Y-107735178D01*
X105797588Y-107540269D01*
X105971641Y-107306920D01*
X106096825Y-107044099D01*
X106141476Y-106896890D01*
X106020155Y-106667000D01*
X104827000Y-106667000D01*
X104573000Y-106667000D01*
X104553000Y-106667000D01*
X104553000Y-106413000D01*
X104573000Y-106413000D01*
X104573000Y-104127000D01*
X104827000Y-104127000D01*
X104827000Y-106413000D01*
X106020155Y-106413000D01*
X106141476Y-106183110D01*
X106096825Y-106035901D01*
X105971641Y-105773080D01*
X105797588Y-105539731D01*
X105581355Y-105344822D01*
X105455745Y-105270000D01*
X105581355Y-105195178D01*
X105797588Y-105000269D01*
X105971641Y-104766920D01*
X106096825Y-104504099D01*
X106141476Y-104356890D01*
X106020155Y-104127000D01*
X104827000Y-104127000D01*
X104573000Y-104127000D01*
X104553000Y-104127000D01*
X104553000Y-103873000D01*
X104573000Y-103873000D01*
X104573000Y-101587000D01*
X104827000Y-101587000D01*
X104827000Y-103873000D01*
X106020155Y-103873000D01*
X106141476Y-103643110D01*
X106096825Y-103495901D01*
X105971641Y-103233080D01*
X105797588Y-102999731D01*
X105581355Y-102804822D01*
X105455745Y-102730000D01*
X105581355Y-102655178D01*
X105797588Y-102460269D01*
X105971641Y-102226920D01*
X106096825Y-101964099D01*
X106141476Y-101816890D01*
X106020155Y-101587000D01*
X104827000Y-101587000D01*
X104573000Y-101587000D01*
X104553000Y-101587000D01*
X104553000Y-101333000D01*
X104573000Y-101333000D01*
X104573000Y-99047000D01*
X104827000Y-99047000D01*
X104827000Y-101333000D01*
X106020155Y-101333000D01*
X106141476Y-101103110D01*
X106096825Y-100955901D01*
X105971641Y-100693080D01*
X105797588Y-100459731D01*
X105581355Y-100264822D01*
X105455745Y-100190000D01*
X105581355Y-100115178D01*
X105797588Y-99920269D01*
X105971641Y-99686920D01*
X106096825Y-99424099D01*
X106141476Y-99276890D01*
X106020155Y-99047000D01*
X104827000Y-99047000D01*
X104573000Y-99047000D01*
X104553000Y-99047000D01*
X104553000Y-98793000D01*
X104573000Y-98793000D01*
X104573000Y-96507000D01*
X104827000Y-96507000D01*
X104827000Y-98793000D01*
X106020155Y-98793000D01*
X106141476Y-98563110D01*
X106096825Y-98415901D01*
X105971641Y-98153080D01*
X105797588Y-97919731D01*
X105581355Y-97724822D01*
X105455745Y-97650000D01*
X105581355Y-97575178D01*
X105797588Y-97380269D01*
X105971641Y-97146920D01*
X106096825Y-96884099D01*
X106141476Y-96736890D01*
X106020155Y-96507000D01*
X104827000Y-96507000D01*
X104573000Y-96507000D01*
X104553000Y-96507000D01*
X104553000Y-96253000D01*
X104573000Y-96253000D01*
X104573000Y-93967000D01*
X104827000Y-93967000D01*
X104827000Y-96253000D01*
X106020155Y-96253000D01*
X106141476Y-96023110D01*
X106096825Y-95875901D01*
X105971641Y-95613080D01*
X105797588Y-95379731D01*
X105581355Y-95184822D01*
X105455745Y-95110000D01*
X105581355Y-95035178D01*
X105797588Y-94840269D01*
X105971641Y-94606920D01*
X106096825Y-94344099D01*
X106141476Y-94196890D01*
X106020155Y-93967000D01*
X104827000Y-93967000D01*
X104573000Y-93967000D01*
X104553000Y-93967000D01*
X104553000Y-93713000D01*
X104573000Y-93713000D01*
X104573000Y-91427000D01*
X104827000Y-91427000D01*
X104827000Y-93713000D01*
X106020155Y-93713000D01*
X106141476Y-93483110D01*
X106096825Y-93335901D01*
X105971641Y-93073080D01*
X105797588Y-92839731D01*
X105713534Y-92763966D01*
X105794180Y-92739502D01*
X105904494Y-92680537D01*
X106001185Y-92601185D01*
X106080537Y-92504494D01*
X106139502Y-92394180D01*
X106175812Y-92274482D01*
X106188072Y-92150000D01*
X106185000Y-91585750D01*
X106026250Y-91427000D01*
X104827000Y-91427000D01*
X104573000Y-91427000D01*
X104553000Y-91427000D01*
X104553000Y-91173000D01*
X104573000Y-91173000D01*
X104573000Y-89973750D01*
X104827000Y-89973750D01*
X104827000Y-91173000D01*
X106026250Y-91173000D01*
X106185000Y-91014250D01*
X106188072Y-90450000D01*
X106175812Y-90325518D01*
X106139502Y-90205820D01*
X106080537Y-90095506D01*
X106001185Y-89998815D01*
X105904494Y-89919463D01*
X105794180Y-89860498D01*
X105674482Y-89824188D01*
X105550000Y-89811928D01*
X104985750Y-89815000D01*
X104827000Y-89973750D01*
X104573000Y-89973750D01*
X104414250Y-89815000D01*
X103850000Y-89811928D01*
X103725518Y-89824188D01*
X103706000Y-89830109D01*
X103706000Y-79446890D01*
X105408524Y-79446890D01*
X105453175Y-79594099D01*
X105578359Y-79856920D01*
X105752412Y-80090269D01*
X105968645Y-80285178D01*
X106218748Y-80434157D01*
X106493109Y-80531481D01*
X106723000Y-80410814D01*
X106723000Y-79217000D01*
X106977000Y-79217000D01*
X106977000Y-80410814D01*
X107206891Y-80531481D01*
X107481252Y-80434157D01*
X107731355Y-80285178D01*
X107947588Y-80090269D01*
X108121641Y-79856920D01*
X108246825Y-79594099D01*
X108291476Y-79446890D01*
X108170155Y-79217000D01*
X106977000Y-79217000D01*
X106723000Y-79217000D01*
X105529845Y-79217000D01*
X105408524Y-79446890D01*
X103706000Y-79446890D01*
X103706000Y-77400000D01*
X105361928Y-77400000D01*
X105374188Y-77524482D01*
X105410498Y-77644180D01*
X105469463Y-77754494D01*
X105548815Y-77851185D01*
X105645506Y-77930537D01*
X105755820Y-77989502D01*
X105836466Y-78013966D01*
X105752412Y-78089731D01*
X105578359Y-78323080D01*
X105453175Y-78585901D01*
X105408524Y-78733110D01*
X105529845Y-78963000D01*
X106723000Y-78963000D01*
X106723000Y-76677000D01*
X106977000Y-76677000D01*
X106977000Y-78963000D01*
X108170155Y-78963000D01*
X108291476Y-78733110D01*
X108246825Y-78585901D01*
X108121641Y-78323080D01*
X107947588Y-78089731D01*
X107863534Y-78013966D01*
X107944180Y-77989502D01*
X108054494Y-77930537D01*
X108151185Y-77851185D01*
X108230537Y-77754494D01*
X108289502Y-77644180D01*
X108325812Y-77524482D01*
X108338072Y-77400000D01*
X108335000Y-76835750D01*
X108201037Y-76701787D01*
X121402825Y-76701787D01*
X121402825Y-76898213D01*
X121441146Y-77090865D01*
X121516315Y-77272340D01*
X121625444Y-77435662D01*
X121764338Y-77574556D01*
X121927660Y-77683685D01*
X122109135Y-77758854D01*
X122301787Y-77797175D01*
X122498213Y-77797175D01*
X122690865Y-77758854D01*
X122872340Y-77683685D01*
X123035662Y-77574556D01*
X123174556Y-77435662D01*
X123283685Y-77272340D01*
X123358854Y-77090865D01*
X123397175Y-76898213D01*
X123397175Y-76701787D01*
X123358854Y-76509135D01*
X123283685Y-76327660D01*
X123174556Y-76164338D01*
X123035662Y-76025444D01*
X122872340Y-75916315D01*
X122690865Y-75841146D01*
X122498213Y-75802825D01*
X122301787Y-75802825D01*
X122109135Y-75841146D01*
X121927660Y-75916315D01*
X121764338Y-76025444D01*
X121625444Y-76164338D01*
X121516315Y-76327660D01*
X121441146Y-76509135D01*
X121402825Y-76701787D01*
X108201037Y-76701787D01*
X108176250Y-76677000D01*
X106977000Y-76677000D01*
X106723000Y-76677000D01*
X105523750Y-76677000D01*
X105365000Y-76835750D01*
X105361928Y-77400000D01*
X103706000Y-77400000D01*
X103706000Y-75700000D01*
X105361928Y-75700000D01*
X105365000Y-76264250D01*
X105523750Y-76423000D01*
X106723000Y-76423000D01*
X106723000Y-75223750D01*
X106977000Y-75223750D01*
X106977000Y-76423000D01*
X108176250Y-76423000D01*
X108335000Y-76264250D01*
X108338072Y-75700000D01*
X108325812Y-75575518D01*
X108289502Y-75455820D01*
X108230537Y-75345506D01*
X108151185Y-75248815D01*
X108054494Y-75169463D01*
X107944180Y-75110498D01*
X107824482Y-75074188D01*
X107700000Y-75061928D01*
X107135750Y-75065000D01*
X106977000Y-75223750D01*
X106723000Y-75223750D01*
X106564250Y-75065000D01*
X106000000Y-75061928D01*
X105875518Y-75074188D01*
X105755820Y-75110498D01*
X105645506Y-75169463D01*
X105548815Y-75248815D01*
X105469463Y-75345506D01*
X105410498Y-75455820D01*
X105374188Y-75575518D01*
X105361928Y-75700000D01*
X103706000Y-75700000D01*
X103706000Y-72896890D01*
X119433524Y-72896890D01*
X119478175Y-73044099D01*
X119603359Y-73306920D01*
X119777412Y-73540269D01*
X119993645Y-73735178D01*
X120243748Y-73884157D01*
X120518109Y-73981481D01*
X120748000Y-73860814D01*
X120748000Y-72667000D01*
X121002000Y-72667000D01*
X121002000Y-73860814D01*
X121231891Y-73981481D01*
X121506252Y-73884157D01*
X121756355Y-73735178D01*
X121972588Y-73540269D01*
X122146641Y-73306920D01*
X122271825Y-73044099D01*
X122316476Y-72896890D01*
X122195155Y-72667000D01*
X121002000Y-72667000D01*
X120748000Y-72667000D01*
X119554845Y-72667000D01*
X119433524Y-72896890D01*
X103706000Y-72896890D01*
X103706000Y-68900000D01*
X104873000Y-68900000D01*
X104873000Y-70100000D01*
X104875440Y-70124776D01*
X104882667Y-70148601D01*
X104894403Y-70170557D01*
X104910197Y-70189803D01*
X104929443Y-70205597D01*
X104951399Y-70217333D01*
X104975224Y-70224560D01*
X105000000Y-70227000D01*
X106200000Y-70227000D01*
X106224776Y-70224560D01*
X106248601Y-70217333D01*
X106270557Y-70205597D01*
X106289803Y-70189803D01*
X106305597Y-70170557D01*
X106317333Y-70148601D01*
X106324560Y-70124776D01*
X106327000Y-70100000D01*
X106327000Y-68900000D01*
X106324560Y-68875224D01*
X106324493Y-68875000D01*
X109017157Y-68875000D01*
X109017157Y-71875000D01*
X109024513Y-71949689D01*
X109046299Y-72021508D01*
X109081678Y-72087696D01*
X109129289Y-72145711D01*
X109187304Y-72193322D01*
X109253492Y-72228701D01*
X109325311Y-72250487D01*
X109400000Y-72257843D01*
X112400000Y-72257843D01*
X112474689Y-72250487D01*
X112546508Y-72228701D01*
X112612696Y-72193322D01*
X112670711Y-72145711D01*
X112718322Y-72087696D01*
X112753701Y-72021508D01*
X112775487Y-71949689D01*
X112782843Y-71875000D01*
X112782843Y-71866653D01*
X114667952Y-71866653D01*
X114823962Y-72182214D01*
X115198745Y-72373020D01*
X115603551Y-72487044D01*
X116022824Y-72519902D01*
X116440451Y-72470334D01*
X116840383Y-72340243D01*
X117136038Y-72182214D01*
X117292048Y-71866653D01*
X115980000Y-70554605D01*
X114667952Y-71866653D01*
X112782843Y-71866653D01*
X112782843Y-70417824D01*
X113835098Y-70417824D01*
X113884666Y-70835451D01*
X114014757Y-71235383D01*
X114172786Y-71531038D01*
X114488347Y-71687048D01*
X115800395Y-70375000D01*
X116159605Y-70375000D01*
X117471653Y-71687048D01*
X117787214Y-71531038D01*
X117978020Y-71156255D01*
X118064284Y-70850000D01*
X119386928Y-70850000D01*
X119399188Y-70974482D01*
X119435498Y-71094180D01*
X119494463Y-71204494D01*
X119573815Y-71301185D01*
X119670506Y-71380537D01*
X119780820Y-71439502D01*
X119861466Y-71463966D01*
X119777412Y-71539731D01*
X119603359Y-71773080D01*
X119478175Y-72035901D01*
X119433524Y-72183110D01*
X119554845Y-72413000D01*
X120748000Y-72413000D01*
X120748000Y-70127000D01*
X121002000Y-70127000D01*
X121002000Y-72413000D01*
X122195155Y-72413000D01*
X122316476Y-72183110D01*
X122271825Y-72035901D01*
X122146641Y-71773080D01*
X121972588Y-71539731D01*
X121888534Y-71463966D01*
X121969180Y-71439502D01*
X122079494Y-71380537D01*
X122176185Y-71301185D01*
X122255537Y-71204494D01*
X122314502Y-71094180D01*
X122350812Y-70974482D01*
X122363072Y-70850000D01*
X122360000Y-70285750D01*
X122201250Y-70127000D01*
X121002000Y-70127000D01*
X120748000Y-70127000D01*
X119548750Y-70127000D01*
X119390000Y-70285750D01*
X119386928Y-70850000D01*
X118064284Y-70850000D01*
X118092044Y-70751449D01*
X118124902Y-70332176D01*
X118075334Y-69914549D01*
X117945243Y-69514617D01*
X117787214Y-69218962D01*
X117647725Y-69150000D01*
X119386928Y-69150000D01*
X119390000Y-69714250D01*
X119548750Y-69873000D01*
X120748000Y-69873000D01*
X120748000Y-68673750D01*
X121002000Y-68673750D01*
X121002000Y-69873000D01*
X122201250Y-69873000D01*
X122360000Y-69714250D01*
X122363072Y-69150000D01*
X122350812Y-69025518D01*
X122314502Y-68905820D01*
X122255537Y-68795506D01*
X122176185Y-68698815D01*
X122079494Y-68619463D01*
X121969180Y-68560498D01*
X121849482Y-68524188D01*
X121725000Y-68511928D01*
X121160750Y-68515000D01*
X121002000Y-68673750D01*
X120748000Y-68673750D01*
X120589250Y-68515000D01*
X120025000Y-68511928D01*
X119900518Y-68524188D01*
X119780820Y-68560498D01*
X119670506Y-68619463D01*
X119573815Y-68698815D01*
X119494463Y-68795506D01*
X119435498Y-68905820D01*
X119399188Y-69025518D01*
X119386928Y-69150000D01*
X117647725Y-69150000D01*
X117471653Y-69062952D01*
X116159605Y-70375000D01*
X115800395Y-70375000D01*
X114488347Y-69062952D01*
X114172786Y-69218962D01*
X113981980Y-69593745D01*
X113867956Y-69998551D01*
X113835098Y-70417824D01*
X112782843Y-70417824D01*
X112782843Y-68883347D01*
X114667952Y-68883347D01*
X115980000Y-70195395D01*
X117292048Y-68883347D01*
X117136038Y-68567786D01*
X116761255Y-68376980D01*
X116356449Y-68262956D01*
X115937176Y-68230098D01*
X115519549Y-68279666D01*
X115119617Y-68409757D01*
X114823962Y-68567786D01*
X114667952Y-68883347D01*
X112782843Y-68883347D01*
X112782843Y-68875000D01*
X112775487Y-68800311D01*
X112753701Y-68728492D01*
X112718322Y-68662304D01*
X112670711Y-68604289D01*
X112612696Y-68556678D01*
X112546508Y-68521299D01*
X112474689Y-68499513D01*
X112400000Y-68492157D01*
X109400000Y-68492157D01*
X109325311Y-68499513D01*
X109253492Y-68521299D01*
X109187304Y-68556678D01*
X109129289Y-68604289D01*
X109081678Y-68662304D01*
X109046299Y-68728492D01*
X109024513Y-68800311D01*
X109017157Y-68875000D01*
X106324493Y-68875000D01*
X106317333Y-68851399D01*
X106305597Y-68829443D01*
X106289803Y-68810197D01*
X106270557Y-68794403D01*
X106248601Y-68782667D01*
X106224776Y-68775440D01*
X106200000Y-68773000D01*
X105000000Y-68773000D01*
X104975224Y-68775440D01*
X104951399Y-68782667D01*
X104929443Y-68794403D01*
X104910197Y-68810197D01*
X104894403Y-68829443D01*
X104882667Y-68851399D01*
X104875440Y-68875224D01*
X104873000Y-68900000D01*
X103706000Y-68900000D01*
X103706000Y-68106562D01*
X103725444Y-68135662D01*
X103864338Y-68274556D01*
X104027660Y-68383685D01*
X104209135Y-68458854D01*
X104401787Y-68497175D01*
X104598213Y-68497175D01*
X104790865Y-68458854D01*
X104972340Y-68383685D01*
X105135662Y-68274556D01*
X105274556Y-68135662D01*
X105383685Y-67972340D01*
X105458854Y-67790865D01*
X105497175Y-67598213D01*
X105497175Y-67401787D01*
X105458854Y-67209135D01*
X105383685Y-67027660D01*
X105274556Y-66864338D01*
X105135662Y-66725444D01*
X105106562Y-66706000D01*
X123380147Y-66706000D01*
X123417881Y-66709700D01*
G37*
%TD.AperFunction*%
D21*
X122607000Y-98793000D02*
X122627000Y-98793000D01*
X122627000Y-99047000D01*
X122607000Y-99047000D01*
X122607000Y-101333000D01*
X122627000Y-101333000D01*
X122627000Y-101587000D01*
X122607000Y-101587000D01*
X122607000Y-103873000D01*
X122627000Y-103873000D01*
X122627000Y-104127000D01*
X122607000Y-104127000D01*
X122607000Y-104147000D01*
X122353000Y-104147000D01*
X122353000Y-104127000D01*
X122333000Y-104127000D01*
X122333000Y-103873000D01*
X122353000Y-103873000D01*
X122353000Y-101587000D01*
X122333000Y-101587000D01*
X122333000Y-101333000D01*
X122353000Y-101333000D01*
X122353000Y-99047000D01*
X122333000Y-99047000D01*
X122333000Y-98793000D01*
X122353000Y-98793000D01*
X122353000Y-98773000D01*
X122607000Y-98773000D01*
X122607000Y-98793000D01*
%TA.AperFunction,Conductor*%
D22*
G36*
X122607000Y-98793000D02*
G01*
X122627000Y-98793000D01*
X122627000Y-99047000D01*
X122607000Y-99047000D01*
X122607000Y-101333000D01*
X122627000Y-101333000D01*
X122627000Y-101587000D01*
X122607000Y-101587000D01*
X122607000Y-103873000D01*
X122627000Y-103873000D01*
X122627000Y-104127000D01*
X122607000Y-104127000D01*
X122607000Y-104147000D01*
X122353000Y-104147000D01*
X122353000Y-104127000D01*
X122333000Y-104127000D01*
X122333000Y-103873000D01*
X122353000Y-103873000D01*
X122353000Y-101587000D01*
X122333000Y-101587000D01*
X122333000Y-101333000D01*
X122353000Y-101333000D01*
X122353000Y-99047000D01*
X122333000Y-99047000D01*
X122333000Y-98793000D01*
X122353000Y-98793000D01*
X122353000Y-98773000D01*
X122607000Y-98773000D01*
X122607000Y-98793000D01*
G37*
%TD.AperFunction*%
D21*
X111423023Y-92338214D02*
X111438872Y-92357526D01*
X111515920Y-92420758D01*
X111603824Y-92467744D01*
X111617157Y-92471788D01*
X111617157Y-93278438D01*
X111414031Y-93075312D01*
X111414031Y-92329222D01*
X111423023Y-92338214D01*
%TA.AperFunction,Conductor*%
D22*
G36*
X111423023Y-92338214D02*
G01*
X111438872Y-92357526D01*
X111515920Y-92420758D01*
X111603824Y-92467744D01*
X111617157Y-92471788D01*
X111617157Y-93278438D01*
X111414031Y-93075312D01*
X111414031Y-92329222D01*
X111423023Y-92338214D01*
G37*
%TD.AperFunction*%
%TD*%
M02*
