%TF.GenerationSoftware,KiCad,Pcbnew,(5.1.9-0-10_14)*%
%TF.CreationDate,2021-01-20T14:18:15+11:00*%
%TF.ProjectId,ControlBreakout,436f6e74-726f-46c4-9272-65616b6f7574,rev?*%
%TF.SameCoordinates,Original*%
%TF.FileFunction,Paste,Top*%
%TF.FilePolarity,Positive*%
%FSLAX46Y46*%
G04 Gerber Fmt 4.6, Leading zero omitted, Abs format (unit mm)*
G04 Created by KiCad (PCBNEW (5.1.9-0-10_14)) date 2021-01-20 14:18:15*
%MOMM*%
%LPD*%
G01*
G04 APERTURE LIST*
%ADD10R,0.700000X0.800000*%
%ADD11R,0.650000X1.220000*%
%ADD12R,0.900000X0.800000*%
%ADD13R,1.900000X2.500000*%
%ADD14R,1.200000X0.900000*%
%ADD15R,0.800000X0.700000*%
G04 APERTURE END LIST*
%TO.C,U1*%
G36*
G01*
X118045000Y-114405000D02*
X118045000Y-114205000D01*
G75*
G02*
X118145000Y-114105000I100000J0D01*
G01*
X119420000Y-114105000D01*
G75*
G02*
X119520000Y-114205000I0J-100000D01*
G01*
X119520000Y-114405000D01*
G75*
G02*
X119420000Y-114505000I-100000J0D01*
G01*
X118145000Y-114505000D01*
G75*
G02*
X118045000Y-114405000I0J100000D01*
G01*
G37*
G36*
G01*
X118045000Y-115055000D02*
X118045000Y-114855000D01*
G75*
G02*
X118145000Y-114755000I100000J0D01*
G01*
X119420000Y-114755000D01*
G75*
G02*
X119520000Y-114855000I0J-100000D01*
G01*
X119520000Y-115055000D01*
G75*
G02*
X119420000Y-115155000I-100000J0D01*
G01*
X118145000Y-115155000D01*
G75*
G02*
X118045000Y-115055000I0J100000D01*
G01*
G37*
G36*
G01*
X118045000Y-115705000D02*
X118045000Y-115505000D01*
G75*
G02*
X118145000Y-115405000I100000J0D01*
G01*
X119420000Y-115405000D01*
G75*
G02*
X119520000Y-115505000I0J-100000D01*
G01*
X119520000Y-115705000D01*
G75*
G02*
X119420000Y-115805000I-100000J0D01*
G01*
X118145000Y-115805000D01*
G75*
G02*
X118045000Y-115705000I0J100000D01*
G01*
G37*
G36*
G01*
X118045000Y-116355000D02*
X118045000Y-116155000D01*
G75*
G02*
X118145000Y-116055000I100000J0D01*
G01*
X119420000Y-116055000D01*
G75*
G02*
X119520000Y-116155000I0J-100000D01*
G01*
X119520000Y-116355000D01*
G75*
G02*
X119420000Y-116455000I-100000J0D01*
G01*
X118145000Y-116455000D01*
G75*
G02*
X118045000Y-116355000I0J100000D01*
G01*
G37*
G36*
G01*
X118045000Y-117005000D02*
X118045000Y-116805000D01*
G75*
G02*
X118145000Y-116705000I100000J0D01*
G01*
X119420000Y-116705000D01*
G75*
G02*
X119520000Y-116805000I0J-100000D01*
G01*
X119520000Y-117005000D01*
G75*
G02*
X119420000Y-117105000I-100000J0D01*
G01*
X118145000Y-117105000D01*
G75*
G02*
X118045000Y-117005000I0J100000D01*
G01*
G37*
G36*
G01*
X118045000Y-117655000D02*
X118045000Y-117455000D01*
G75*
G02*
X118145000Y-117355000I100000J0D01*
G01*
X119420000Y-117355000D01*
G75*
G02*
X119520000Y-117455000I0J-100000D01*
G01*
X119520000Y-117655000D01*
G75*
G02*
X119420000Y-117755000I-100000J0D01*
G01*
X118145000Y-117755000D01*
G75*
G02*
X118045000Y-117655000I0J100000D01*
G01*
G37*
G36*
G01*
X118045000Y-118305000D02*
X118045000Y-118105000D01*
G75*
G02*
X118145000Y-118005000I100000J0D01*
G01*
X119420000Y-118005000D01*
G75*
G02*
X119520000Y-118105000I0J-100000D01*
G01*
X119520000Y-118305000D01*
G75*
G02*
X119420000Y-118405000I-100000J0D01*
G01*
X118145000Y-118405000D01*
G75*
G02*
X118045000Y-118305000I0J100000D01*
G01*
G37*
G36*
G01*
X118045000Y-118955000D02*
X118045000Y-118755000D01*
G75*
G02*
X118145000Y-118655000I100000J0D01*
G01*
X119420000Y-118655000D01*
G75*
G02*
X119520000Y-118755000I0J-100000D01*
G01*
X119520000Y-118955000D01*
G75*
G02*
X119420000Y-119055000I-100000J0D01*
G01*
X118145000Y-119055000D01*
G75*
G02*
X118045000Y-118955000I0J100000D01*
G01*
G37*
G36*
G01*
X118045000Y-119605000D02*
X118045000Y-119405000D01*
G75*
G02*
X118145000Y-119305000I100000J0D01*
G01*
X119420000Y-119305000D01*
G75*
G02*
X119520000Y-119405000I0J-100000D01*
G01*
X119520000Y-119605000D01*
G75*
G02*
X119420000Y-119705000I-100000J0D01*
G01*
X118145000Y-119705000D01*
G75*
G02*
X118045000Y-119605000I0J100000D01*
G01*
G37*
G36*
G01*
X118045000Y-120255000D02*
X118045000Y-120055000D01*
G75*
G02*
X118145000Y-119955000I100000J0D01*
G01*
X119420000Y-119955000D01*
G75*
G02*
X119520000Y-120055000I0J-100000D01*
G01*
X119520000Y-120255000D01*
G75*
G02*
X119420000Y-120355000I-100000J0D01*
G01*
X118145000Y-120355000D01*
G75*
G02*
X118045000Y-120255000I0J100000D01*
G01*
G37*
G36*
G01*
X112320000Y-120255000D02*
X112320000Y-120055000D01*
G75*
G02*
X112420000Y-119955000I100000J0D01*
G01*
X113695000Y-119955000D01*
G75*
G02*
X113795000Y-120055000I0J-100000D01*
G01*
X113795000Y-120255000D01*
G75*
G02*
X113695000Y-120355000I-100000J0D01*
G01*
X112420000Y-120355000D01*
G75*
G02*
X112320000Y-120255000I0J100000D01*
G01*
G37*
G36*
G01*
X112320000Y-119605000D02*
X112320000Y-119405000D01*
G75*
G02*
X112420000Y-119305000I100000J0D01*
G01*
X113695000Y-119305000D01*
G75*
G02*
X113795000Y-119405000I0J-100000D01*
G01*
X113795000Y-119605000D01*
G75*
G02*
X113695000Y-119705000I-100000J0D01*
G01*
X112420000Y-119705000D01*
G75*
G02*
X112320000Y-119605000I0J100000D01*
G01*
G37*
G36*
G01*
X112320000Y-118955000D02*
X112320000Y-118755000D01*
G75*
G02*
X112420000Y-118655000I100000J0D01*
G01*
X113695000Y-118655000D01*
G75*
G02*
X113795000Y-118755000I0J-100000D01*
G01*
X113795000Y-118955000D01*
G75*
G02*
X113695000Y-119055000I-100000J0D01*
G01*
X112420000Y-119055000D01*
G75*
G02*
X112320000Y-118955000I0J100000D01*
G01*
G37*
G36*
G01*
X112320000Y-118305000D02*
X112320000Y-118105000D01*
G75*
G02*
X112420000Y-118005000I100000J0D01*
G01*
X113695000Y-118005000D01*
G75*
G02*
X113795000Y-118105000I0J-100000D01*
G01*
X113795000Y-118305000D01*
G75*
G02*
X113695000Y-118405000I-100000J0D01*
G01*
X112420000Y-118405000D01*
G75*
G02*
X112320000Y-118305000I0J100000D01*
G01*
G37*
G36*
G01*
X112320000Y-117655000D02*
X112320000Y-117455000D01*
G75*
G02*
X112420000Y-117355000I100000J0D01*
G01*
X113695000Y-117355000D01*
G75*
G02*
X113795000Y-117455000I0J-100000D01*
G01*
X113795000Y-117655000D01*
G75*
G02*
X113695000Y-117755000I-100000J0D01*
G01*
X112420000Y-117755000D01*
G75*
G02*
X112320000Y-117655000I0J100000D01*
G01*
G37*
G36*
G01*
X112320000Y-117005000D02*
X112320000Y-116805000D01*
G75*
G02*
X112420000Y-116705000I100000J0D01*
G01*
X113695000Y-116705000D01*
G75*
G02*
X113795000Y-116805000I0J-100000D01*
G01*
X113795000Y-117005000D01*
G75*
G02*
X113695000Y-117105000I-100000J0D01*
G01*
X112420000Y-117105000D01*
G75*
G02*
X112320000Y-117005000I0J100000D01*
G01*
G37*
G36*
G01*
X112320000Y-116355000D02*
X112320000Y-116155000D01*
G75*
G02*
X112420000Y-116055000I100000J0D01*
G01*
X113695000Y-116055000D01*
G75*
G02*
X113795000Y-116155000I0J-100000D01*
G01*
X113795000Y-116355000D01*
G75*
G02*
X113695000Y-116455000I-100000J0D01*
G01*
X112420000Y-116455000D01*
G75*
G02*
X112320000Y-116355000I0J100000D01*
G01*
G37*
G36*
G01*
X112320000Y-115705000D02*
X112320000Y-115505000D01*
G75*
G02*
X112420000Y-115405000I100000J0D01*
G01*
X113695000Y-115405000D01*
G75*
G02*
X113795000Y-115505000I0J-100000D01*
G01*
X113795000Y-115705000D01*
G75*
G02*
X113695000Y-115805000I-100000J0D01*
G01*
X112420000Y-115805000D01*
G75*
G02*
X112320000Y-115705000I0J100000D01*
G01*
G37*
G36*
G01*
X112320000Y-115055000D02*
X112320000Y-114855000D01*
G75*
G02*
X112420000Y-114755000I100000J0D01*
G01*
X113695000Y-114755000D01*
G75*
G02*
X113795000Y-114855000I0J-100000D01*
G01*
X113795000Y-115055000D01*
G75*
G02*
X113695000Y-115155000I-100000J0D01*
G01*
X112420000Y-115155000D01*
G75*
G02*
X112320000Y-115055000I0J100000D01*
G01*
G37*
G36*
G01*
X112320000Y-114405000D02*
X112320000Y-114205000D01*
G75*
G02*
X112420000Y-114105000I100000J0D01*
G01*
X113695000Y-114105000D01*
G75*
G02*
X113795000Y-114205000I0J-100000D01*
G01*
X113795000Y-114405000D01*
G75*
G02*
X113695000Y-114505000I-100000J0D01*
G01*
X112420000Y-114505000D01*
G75*
G02*
X112320000Y-114405000I0J100000D01*
G01*
G37*
%TD*%
%TO.C,U4*%
G36*
G01*
X111970000Y-105970000D02*
X112480000Y-105970000D01*
G75*
G02*
X112730000Y-106220000I0J-250000D01*
G01*
X112730000Y-106730000D01*
G75*
G02*
X112480000Y-106980000I-250000J0D01*
G01*
X111970000Y-106980000D01*
G75*
G02*
X111720000Y-106730000I0J250000D01*
G01*
X111720000Y-106220000D01*
G75*
G02*
X111970000Y-105970000I250000J0D01*
G01*
G37*
G36*
G01*
X113220000Y-105970000D02*
X113730000Y-105970000D01*
G75*
G02*
X113980000Y-106220000I0J-250000D01*
G01*
X113980000Y-106730000D01*
G75*
G02*
X113730000Y-106980000I-250000J0D01*
G01*
X113220000Y-106980000D01*
G75*
G02*
X112970000Y-106730000I0J250000D01*
G01*
X112970000Y-106220000D01*
G75*
G02*
X113220000Y-105970000I250000J0D01*
G01*
G37*
G36*
G01*
X114470000Y-105970000D02*
X114980000Y-105970000D01*
G75*
G02*
X115230000Y-106220000I0J-250000D01*
G01*
X115230000Y-106730000D01*
G75*
G02*
X114980000Y-106980000I-250000J0D01*
G01*
X114470000Y-106980000D01*
G75*
G02*
X114220000Y-106730000I0J250000D01*
G01*
X114220000Y-106220000D01*
G75*
G02*
X114470000Y-105970000I250000J0D01*
G01*
G37*
G36*
G01*
X115720000Y-105970000D02*
X116230000Y-105970000D01*
G75*
G02*
X116480000Y-106220000I0J-250000D01*
G01*
X116480000Y-106730000D01*
G75*
G02*
X116230000Y-106980000I-250000J0D01*
G01*
X115720000Y-106980000D01*
G75*
G02*
X115470000Y-106730000I0J250000D01*
G01*
X115470000Y-106220000D01*
G75*
G02*
X115720000Y-105970000I250000J0D01*
G01*
G37*
G36*
G01*
X111970000Y-104720000D02*
X112480000Y-104720000D01*
G75*
G02*
X112730000Y-104970000I0J-250000D01*
G01*
X112730000Y-105480000D01*
G75*
G02*
X112480000Y-105730000I-250000J0D01*
G01*
X111970000Y-105730000D01*
G75*
G02*
X111720000Y-105480000I0J250000D01*
G01*
X111720000Y-104970000D01*
G75*
G02*
X111970000Y-104720000I250000J0D01*
G01*
G37*
G36*
G01*
X113220000Y-104720000D02*
X113730000Y-104720000D01*
G75*
G02*
X113980000Y-104970000I0J-250000D01*
G01*
X113980000Y-105480000D01*
G75*
G02*
X113730000Y-105730000I-250000J0D01*
G01*
X113220000Y-105730000D01*
G75*
G02*
X112970000Y-105480000I0J250000D01*
G01*
X112970000Y-104970000D01*
G75*
G02*
X113220000Y-104720000I250000J0D01*
G01*
G37*
G36*
G01*
X114470000Y-104720000D02*
X114980000Y-104720000D01*
G75*
G02*
X115230000Y-104970000I0J-250000D01*
G01*
X115230000Y-105480000D01*
G75*
G02*
X114980000Y-105730000I-250000J0D01*
G01*
X114470000Y-105730000D01*
G75*
G02*
X114220000Y-105480000I0J250000D01*
G01*
X114220000Y-104970000D01*
G75*
G02*
X114470000Y-104720000I250000J0D01*
G01*
G37*
G36*
G01*
X115720000Y-104720000D02*
X116230000Y-104720000D01*
G75*
G02*
X116480000Y-104970000I0J-250000D01*
G01*
X116480000Y-105480000D01*
G75*
G02*
X116230000Y-105730000I-250000J0D01*
G01*
X115720000Y-105730000D01*
G75*
G02*
X115470000Y-105480000I0J250000D01*
G01*
X115470000Y-104970000D01*
G75*
G02*
X115720000Y-104720000I250000J0D01*
G01*
G37*
G36*
G01*
X111970000Y-103470000D02*
X112480000Y-103470000D01*
G75*
G02*
X112730000Y-103720000I0J-250000D01*
G01*
X112730000Y-104230000D01*
G75*
G02*
X112480000Y-104480000I-250000J0D01*
G01*
X111970000Y-104480000D01*
G75*
G02*
X111720000Y-104230000I0J250000D01*
G01*
X111720000Y-103720000D01*
G75*
G02*
X111970000Y-103470000I250000J0D01*
G01*
G37*
G36*
G01*
X113220000Y-103470000D02*
X113730000Y-103470000D01*
G75*
G02*
X113980000Y-103720000I0J-250000D01*
G01*
X113980000Y-104230000D01*
G75*
G02*
X113730000Y-104480000I-250000J0D01*
G01*
X113220000Y-104480000D01*
G75*
G02*
X112970000Y-104230000I0J250000D01*
G01*
X112970000Y-103720000D01*
G75*
G02*
X113220000Y-103470000I250000J0D01*
G01*
G37*
G36*
G01*
X114470000Y-103470000D02*
X114980000Y-103470000D01*
G75*
G02*
X115230000Y-103720000I0J-250000D01*
G01*
X115230000Y-104230000D01*
G75*
G02*
X114980000Y-104480000I-250000J0D01*
G01*
X114470000Y-104480000D01*
G75*
G02*
X114220000Y-104230000I0J250000D01*
G01*
X114220000Y-103720000D01*
G75*
G02*
X114470000Y-103470000I250000J0D01*
G01*
G37*
G36*
G01*
X115720000Y-103470000D02*
X116230000Y-103470000D01*
G75*
G02*
X116480000Y-103720000I0J-250000D01*
G01*
X116480000Y-104230000D01*
G75*
G02*
X116230000Y-104480000I-250000J0D01*
G01*
X115720000Y-104480000D01*
G75*
G02*
X115470000Y-104230000I0J250000D01*
G01*
X115470000Y-103720000D01*
G75*
G02*
X115720000Y-103470000I250000J0D01*
G01*
G37*
G36*
G01*
X111970000Y-102220000D02*
X112480000Y-102220000D01*
G75*
G02*
X112730000Y-102470000I0J-250000D01*
G01*
X112730000Y-102980000D01*
G75*
G02*
X112480000Y-103230000I-250000J0D01*
G01*
X111970000Y-103230000D01*
G75*
G02*
X111720000Y-102980000I0J250000D01*
G01*
X111720000Y-102470000D01*
G75*
G02*
X111970000Y-102220000I250000J0D01*
G01*
G37*
G36*
G01*
X113220000Y-102220000D02*
X113730000Y-102220000D01*
G75*
G02*
X113980000Y-102470000I0J-250000D01*
G01*
X113980000Y-102980000D01*
G75*
G02*
X113730000Y-103230000I-250000J0D01*
G01*
X113220000Y-103230000D01*
G75*
G02*
X112970000Y-102980000I0J250000D01*
G01*
X112970000Y-102470000D01*
G75*
G02*
X113220000Y-102220000I250000J0D01*
G01*
G37*
G36*
G01*
X114470000Y-102220000D02*
X114980000Y-102220000D01*
G75*
G02*
X115230000Y-102470000I0J-250000D01*
G01*
X115230000Y-102980000D01*
G75*
G02*
X114980000Y-103230000I-250000J0D01*
G01*
X114470000Y-103230000D01*
G75*
G02*
X114220000Y-102980000I0J250000D01*
G01*
X114220000Y-102470000D01*
G75*
G02*
X114470000Y-102220000I250000J0D01*
G01*
G37*
G36*
G01*
X115720000Y-102220000D02*
X116230000Y-102220000D01*
G75*
G02*
X116480000Y-102470000I0J-250000D01*
G01*
X116480000Y-102980000D01*
G75*
G02*
X116230000Y-103230000I-250000J0D01*
G01*
X115720000Y-103230000D01*
G75*
G02*
X115470000Y-102980000I0J250000D01*
G01*
X115470000Y-102470000D01*
G75*
G02*
X115720000Y-102220000I250000J0D01*
G01*
G37*
G36*
G01*
X117600000Y-101700000D02*
X118925000Y-101700000D01*
G75*
G02*
X119000000Y-101775000I0J-75000D01*
G01*
X119000000Y-101925000D01*
G75*
G02*
X118925000Y-102000000I-75000J0D01*
G01*
X117600000Y-102000000D01*
G75*
G02*
X117525000Y-101925000I0J75000D01*
G01*
X117525000Y-101775000D01*
G75*
G02*
X117600000Y-101700000I75000J0D01*
G01*
G37*
G36*
G01*
X117600000Y-102200000D02*
X118925000Y-102200000D01*
G75*
G02*
X119000000Y-102275000I0J-75000D01*
G01*
X119000000Y-102425000D01*
G75*
G02*
X118925000Y-102500000I-75000J0D01*
G01*
X117600000Y-102500000D01*
G75*
G02*
X117525000Y-102425000I0J75000D01*
G01*
X117525000Y-102275000D01*
G75*
G02*
X117600000Y-102200000I75000J0D01*
G01*
G37*
G36*
G01*
X117600000Y-102700000D02*
X118925000Y-102700000D01*
G75*
G02*
X119000000Y-102775000I0J-75000D01*
G01*
X119000000Y-102925000D01*
G75*
G02*
X118925000Y-103000000I-75000J0D01*
G01*
X117600000Y-103000000D01*
G75*
G02*
X117525000Y-102925000I0J75000D01*
G01*
X117525000Y-102775000D01*
G75*
G02*
X117600000Y-102700000I75000J0D01*
G01*
G37*
G36*
G01*
X117600000Y-103200000D02*
X118925000Y-103200000D01*
G75*
G02*
X119000000Y-103275000I0J-75000D01*
G01*
X119000000Y-103425000D01*
G75*
G02*
X118925000Y-103500000I-75000J0D01*
G01*
X117600000Y-103500000D01*
G75*
G02*
X117525000Y-103425000I0J75000D01*
G01*
X117525000Y-103275000D01*
G75*
G02*
X117600000Y-103200000I75000J0D01*
G01*
G37*
G36*
G01*
X117600000Y-103700000D02*
X118925000Y-103700000D01*
G75*
G02*
X119000000Y-103775000I0J-75000D01*
G01*
X119000000Y-103925000D01*
G75*
G02*
X118925000Y-104000000I-75000J0D01*
G01*
X117600000Y-104000000D01*
G75*
G02*
X117525000Y-103925000I0J75000D01*
G01*
X117525000Y-103775000D01*
G75*
G02*
X117600000Y-103700000I75000J0D01*
G01*
G37*
G36*
G01*
X117600000Y-104200000D02*
X118925000Y-104200000D01*
G75*
G02*
X119000000Y-104275000I0J-75000D01*
G01*
X119000000Y-104425000D01*
G75*
G02*
X118925000Y-104500000I-75000J0D01*
G01*
X117600000Y-104500000D01*
G75*
G02*
X117525000Y-104425000I0J75000D01*
G01*
X117525000Y-104275000D01*
G75*
G02*
X117600000Y-104200000I75000J0D01*
G01*
G37*
G36*
G01*
X117600000Y-104700000D02*
X118925000Y-104700000D01*
G75*
G02*
X119000000Y-104775000I0J-75000D01*
G01*
X119000000Y-104925000D01*
G75*
G02*
X118925000Y-105000000I-75000J0D01*
G01*
X117600000Y-105000000D01*
G75*
G02*
X117525000Y-104925000I0J75000D01*
G01*
X117525000Y-104775000D01*
G75*
G02*
X117600000Y-104700000I75000J0D01*
G01*
G37*
G36*
G01*
X117600000Y-105200000D02*
X118925000Y-105200000D01*
G75*
G02*
X119000000Y-105275000I0J-75000D01*
G01*
X119000000Y-105425000D01*
G75*
G02*
X118925000Y-105500000I-75000J0D01*
G01*
X117600000Y-105500000D01*
G75*
G02*
X117525000Y-105425000I0J75000D01*
G01*
X117525000Y-105275000D01*
G75*
G02*
X117600000Y-105200000I75000J0D01*
G01*
G37*
G36*
G01*
X117600000Y-105700000D02*
X118925000Y-105700000D01*
G75*
G02*
X119000000Y-105775000I0J-75000D01*
G01*
X119000000Y-105925000D01*
G75*
G02*
X118925000Y-106000000I-75000J0D01*
G01*
X117600000Y-106000000D01*
G75*
G02*
X117525000Y-105925000I0J75000D01*
G01*
X117525000Y-105775000D01*
G75*
G02*
X117600000Y-105700000I75000J0D01*
G01*
G37*
G36*
G01*
X117600000Y-106200000D02*
X118925000Y-106200000D01*
G75*
G02*
X119000000Y-106275000I0J-75000D01*
G01*
X119000000Y-106425000D01*
G75*
G02*
X118925000Y-106500000I-75000J0D01*
G01*
X117600000Y-106500000D01*
G75*
G02*
X117525000Y-106425000I0J75000D01*
G01*
X117525000Y-106275000D01*
G75*
G02*
X117600000Y-106200000I75000J0D01*
G01*
G37*
G36*
G01*
X117600000Y-106700000D02*
X118925000Y-106700000D01*
G75*
G02*
X119000000Y-106775000I0J-75000D01*
G01*
X119000000Y-106925000D01*
G75*
G02*
X118925000Y-107000000I-75000J0D01*
G01*
X117600000Y-107000000D01*
G75*
G02*
X117525000Y-106925000I0J75000D01*
G01*
X117525000Y-106775000D01*
G75*
G02*
X117600000Y-106700000I75000J0D01*
G01*
G37*
G36*
G01*
X117600000Y-107200000D02*
X118925000Y-107200000D01*
G75*
G02*
X119000000Y-107275000I0J-75000D01*
G01*
X119000000Y-107425000D01*
G75*
G02*
X118925000Y-107500000I-75000J0D01*
G01*
X117600000Y-107500000D01*
G75*
G02*
X117525000Y-107425000I0J75000D01*
G01*
X117525000Y-107275000D01*
G75*
G02*
X117600000Y-107200000I75000J0D01*
G01*
G37*
G36*
G01*
X116775000Y-108025000D02*
X116925000Y-108025000D01*
G75*
G02*
X117000000Y-108100000I0J-75000D01*
G01*
X117000000Y-109425000D01*
G75*
G02*
X116925000Y-109500000I-75000J0D01*
G01*
X116775000Y-109500000D01*
G75*
G02*
X116700000Y-109425000I0J75000D01*
G01*
X116700000Y-108100000D01*
G75*
G02*
X116775000Y-108025000I75000J0D01*
G01*
G37*
G36*
G01*
X116275000Y-108025000D02*
X116425000Y-108025000D01*
G75*
G02*
X116500000Y-108100000I0J-75000D01*
G01*
X116500000Y-109425000D01*
G75*
G02*
X116425000Y-109500000I-75000J0D01*
G01*
X116275000Y-109500000D01*
G75*
G02*
X116200000Y-109425000I0J75000D01*
G01*
X116200000Y-108100000D01*
G75*
G02*
X116275000Y-108025000I75000J0D01*
G01*
G37*
G36*
G01*
X115775000Y-108025000D02*
X115925000Y-108025000D01*
G75*
G02*
X116000000Y-108100000I0J-75000D01*
G01*
X116000000Y-109425000D01*
G75*
G02*
X115925000Y-109500000I-75000J0D01*
G01*
X115775000Y-109500000D01*
G75*
G02*
X115700000Y-109425000I0J75000D01*
G01*
X115700000Y-108100000D01*
G75*
G02*
X115775000Y-108025000I75000J0D01*
G01*
G37*
G36*
G01*
X115275000Y-108025000D02*
X115425000Y-108025000D01*
G75*
G02*
X115500000Y-108100000I0J-75000D01*
G01*
X115500000Y-109425000D01*
G75*
G02*
X115425000Y-109500000I-75000J0D01*
G01*
X115275000Y-109500000D01*
G75*
G02*
X115200000Y-109425000I0J75000D01*
G01*
X115200000Y-108100000D01*
G75*
G02*
X115275000Y-108025000I75000J0D01*
G01*
G37*
G36*
G01*
X114775000Y-108025000D02*
X114925000Y-108025000D01*
G75*
G02*
X115000000Y-108100000I0J-75000D01*
G01*
X115000000Y-109425000D01*
G75*
G02*
X114925000Y-109500000I-75000J0D01*
G01*
X114775000Y-109500000D01*
G75*
G02*
X114700000Y-109425000I0J75000D01*
G01*
X114700000Y-108100000D01*
G75*
G02*
X114775000Y-108025000I75000J0D01*
G01*
G37*
G36*
G01*
X114275000Y-108025000D02*
X114425000Y-108025000D01*
G75*
G02*
X114500000Y-108100000I0J-75000D01*
G01*
X114500000Y-109425000D01*
G75*
G02*
X114425000Y-109500000I-75000J0D01*
G01*
X114275000Y-109500000D01*
G75*
G02*
X114200000Y-109425000I0J75000D01*
G01*
X114200000Y-108100000D01*
G75*
G02*
X114275000Y-108025000I75000J0D01*
G01*
G37*
G36*
G01*
X113775000Y-108025000D02*
X113925000Y-108025000D01*
G75*
G02*
X114000000Y-108100000I0J-75000D01*
G01*
X114000000Y-109425000D01*
G75*
G02*
X113925000Y-109500000I-75000J0D01*
G01*
X113775000Y-109500000D01*
G75*
G02*
X113700000Y-109425000I0J75000D01*
G01*
X113700000Y-108100000D01*
G75*
G02*
X113775000Y-108025000I75000J0D01*
G01*
G37*
G36*
G01*
X113275000Y-108025000D02*
X113425000Y-108025000D01*
G75*
G02*
X113500000Y-108100000I0J-75000D01*
G01*
X113500000Y-109425000D01*
G75*
G02*
X113425000Y-109500000I-75000J0D01*
G01*
X113275000Y-109500000D01*
G75*
G02*
X113200000Y-109425000I0J75000D01*
G01*
X113200000Y-108100000D01*
G75*
G02*
X113275000Y-108025000I75000J0D01*
G01*
G37*
G36*
G01*
X112775000Y-108025000D02*
X112925000Y-108025000D01*
G75*
G02*
X113000000Y-108100000I0J-75000D01*
G01*
X113000000Y-109425000D01*
G75*
G02*
X112925000Y-109500000I-75000J0D01*
G01*
X112775000Y-109500000D01*
G75*
G02*
X112700000Y-109425000I0J75000D01*
G01*
X112700000Y-108100000D01*
G75*
G02*
X112775000Y-108025000I75000J0D01*
G01*
G37*
G36*
G01*
X112275000Y-108025000D02*
X112425000Y-108025000D01*
G75*
G02*
X112500000Y-108100000I0J-75000D01*
G01*
X112500000Y-109425000D01*
G75*
G02*
X112425000Y-109500000I-75000J0D01*
G01*
X112275000Y-109500000D01*
G75*
G02*
X112200000Y-109425000I0J75000D01*
G01*
X112200000Y-108100000D01*
G75*
G02*
X112275000Y-108025000I75000J0D01*
G01*
G37*
G36*
G01*
X111775000Y-108025000D02*
X111925000Y-108025000D01*
G75*
G02*
X112000000Y-108100000I0J-75000D01*
G01*
X112000000Y-109425000D01*
G75*
G02*
X111925000Y-109500000I-75000J0D01*
G01*
X111775000Y-109500000D01*
G75*
G02*
X111700000Y-109425000I0J75000D01*
G01*
X111700000Y-108100000D01*
G75*
G02*
X111775000Y-108025000I75000J0D01*
G01*
G37*
G36*
G01*
X111275000Y-108025000D02*
X111425000Y-108025000D01*
G75*
G02*
X111500000Y-108100000I0J-75000D01*
G01*
X111500000Y-109425000D01*
G75*
G02*
X111425000Y-109500000I-75000J0D01*
G01*
X111275000Y-109500000D01*
G75*
G02*
X111200000Y-109425000I0J75000D01*
G01*
X111200000Y-108100000D01*
G75*
G02*
X111275000Y-108025000I75000J0D01*
G01*
G37*
G36*
G01*
X109275000Y-107200000D02*
X110600000Y-107200000D01*
G75*
G02*
X110675000Y-107275000I0J-75000D01*
G01*
X110675000Y-107425000D01*
G75*
G02*
X110600000Y-107500000I-75000J0D01*
G01*
X109275000Y-107500000D01*
G75*
G02*
X109200000Y-107425000I0J75000D01*
G01*
X109200000Y-107275000D01*
G75*
G02*
X109275000Y-107200000I75000J0D01*
G01*
G37*
G36*
G01*
X109275000Y-106700000D02*
X110600000Y-106700000D01*
G75*
G02*
X110675000Y-106775000I0J-75000D01*
G01*
X110675000Y-106925000D01*
G75*
G02*
X110600000Y-107000000I-75000J0D01*
G01*
X109275000Y-107000000D01*
G75*
G02*
X109200000Y-106925000I0J75000D01*
G01*
X109200000Y-106775000D01*
G75*
G02*
X109275000Y-106700000I75000J0D01*
G01*
G37*
G36*
G01*
X109275000Y-106200000D02*
X110600000Y-106200000D01*
G75*
G02*
X110675000Y-106275000I0J-75000D01*
G01*
X110675000Y-106425000D01*
G75*
G02*
X110600000Y-106500000I-75000J0D01*
G01*
X109275000Y-106500000D01*
G75*
G02*
X109200000Y-106425000I0J75000D01*
G01*
X109200000Y-106275000D01*
G75*
G02*
X109275000Y-106200000I75000J0D01*
G01*
G37*
G36*
G01*
X109275000Y-105700000D02*
X110600000Y-105700000D01*
G75*
G02*
X110675000Y-105775000I0J-75000D01*
G01*
X110675000Y-105925000D01*
G75*
G02*
X110600000Y-106000000I-75000J0D01*
G01*
X109275000Y-106000000D01*
G75*
G02*
X109200000Y-105925000I0J75000D01*
G01*
X109200000Y-105775000D01*
G75*
G02*
X109275000Y-105700000I75000J0D01*
G01*
G37*
G36*
G01*
X109275000Y-105200000D02*
X110600000Y-105200000D01*
G75*
G02*
X110675000Y-105275000I0J-75000D01*
G01*
X110675000Y-105425000D01*
G75*
G02*
X110600000Y-105500000I-75000J0D01*
G01*
X109275000Y-105500000D01*
G75*
G02*
X109200000Y-105425000I0J75000D01*
G01*
X109200000Y-105275000D01*
G75*
G02*
X109275000Y-105200000I75000J0D01*
G01*
G37*
G36*
G01*
X109275000Y-104700000D02*
X110600000Y-104700000D01*
G75*
G02*
X110675000Y-104775000I0J-75000D01*
G01*
X110675000Y-104925000D01*
G75*
G02*
X110600000Y-105000000I-75000J0D01*
G01*
X109275000Y-105000000D01*
G75*
G02*
X109200000Y-104925000I0J75000D01*
G01*
X109200000Y-104775000D01*
G75*
G02*
X109275000Y-104700000I75000J0D01*
G01*
G37*
G36*
G01*
X109275000Y-104200000D02*
X110600000Y-104200000D01*
G75*
G02*
X110675000Y-104275000I0J-75000D01*
G01*
X110675000Y-104425000D01*
G75*
G02*
X110600000Y-104500000I-75000J0D01*
G01*
X109275000Y-104500000D01*
G75*
G02*
X109200000Y-104425000I0J75000D01*
G01*
X109200000Y-104275000D01*
G75*
G02*
X109275000Y-104200000I75000J0D01*
G01*
G37*
G36*
G01*
X109275000Y-103700000D02*
X110600000Y-103700000D01*
G75*
G02*
X110675000Y-103775000I0J-75000D01*
G01*
X110675000Y-103925000D01*
G75*
G02*
X110600000Y-104000000I-75000J0D01*
G01*
X109275000Y-104000000D01*
G75*
G02*
X109200000Y-103925000I0J75000D01*
G01*
X109200000Y-103775000D01*
G75*
G02*
X109275000Y-103700000I75000J0D01*
G01*
G37*
G36*
G01*
X109275000Y-103200000D02*
X110600000Y-103200000D01*
G75*
G02*
X110675000Y-103275000I0J-75000D01*
G01*
X110675000Y-103425000D01*
G75*
G02*
X110600000Y-103500000I-75000J0D01*
G01*
X109275000Y-103500000D01*
G75*
G02*
X109200000Y-103425000I0J75000D01*
G01*
X109200000Y-103275000D01*
G75*
G02*
X109275000Y-103200000I75000J0D01*
G01*
G37*
G36*
G01*
X109275000Y-102700000D02*
X110600000Y-102700000D01*
G75*
G02*
X110675000Y-102775000I0J-75000D01*
G01*
X110675000Y-102925000D01*
G75*
G02*
X110600000Y-103000000I-75000J0D01*
G01*
X109275000Y-103000000D01*
G75*
G02*
X109200000Y-102925000I0J75000D01*
G01*
X109200000Y-102775000D01*
G75*
G02*
X109275000Y-102700000I75000J0D01*
G01*
G37*
G36*
G01*
X109275000Y-102200000D02*
X110600000Y-102200000D01*
G75*
G02*
X110675000Y-102275000I0J-75000D01*
G01*
X110675000Y-102425000D01*
G75*
G02*
X110600000Y-102500000I-75000J0D01*
G01*
X109275000Y-102500000D01*
G75*
G02*
X109200000Y-102425000I0J75000D01*
G01*
X109200000Y-102275000D01*
G75*
G02*
X109275000Y-102200000I75000J0D01*
G01*
G37*
G36*
G01*
X109275000Y-101700000D02*
X110600000Y-101700000D01*
G75*
G02*
X110675000Y-101775000I0J-75000D01*
G01*
X110675000Y-101925000D01*
G75*
G02*
X110600000Y-102000000I-75000J0D01*
G01*
X109275000Y-102000000D01*
G75*
G02*
X109200000Y-101925000I0J75000D01*
G01*
X109200000Y-101775000D01*
G75*
G02*
X109275000Y-101700000I75000J0D01*
G01*
G37*
G36*
G01*
X111275000Y-99700000D02*
X111425000Y-99700000D01*
G75*
G02*
X111500000Y-99775000I0J-75000D01*
G01*
X111500000Y-101100000D01*
G75*
G02*
X111425000Y-101175000I-75000J0D01*
G01*
X111275000Y-101175000D01*
G75*
G02*
X111200000Y-101100000I0J75000D01*
G01*
X111200000Y-99775000D01*
G75*
G02*
X111275000Y-99700000I75000J0D01*
G01*
G37*
G36*
G01*
X111775000Y-99700000D02*
X111925000Y-99700000D01*
G75*
G02*
X112000000Y-99775000I0J-75000D01*
G01*
X112000000Y-101100000D01*
G75*
G02*
X111925000Y-101175000I-75000J0D01*
G01*
X111775000Y-101175000D01*
G75*
G02*
X111700000Y-101100000I0J75000D01*
G01*
X111700000Y-99775000D01*
G75*
G02*
X111775000Y-99700000I75000J0D01*
G01*
G37*
G36*
G01*
X112275000Y-99700000D02*
X112425000Y-99700000D01*
G75*
G02*
X112500000Y-99775000I0J-75000D01*
G01*
X112500000Y-101100000D01*
G75*
G02*
X112425000Y-101175000I-75000J0D01*
G01*
X112275000Y-101175000D01*
G75*
G02*
X112200000Y-101100000I0J75000D01*
G01*
X112200000Y-99775000D01*
G75*
G02*
X112275000Y-99700000I75000J0D01*
G01*
G37*
G36*
G01*
X112775000Y-99700000D02*
X112925000Y-99700000D01*
G75*
G02*
X113000000Y-99775000I0J-75000D01*
G01*
X113000000Y-101100000D01*
G75*
G02*
X112925000Y-101175000I-75000J0D01*
G01*
X112775000Y-101175000D01*
G75*
G02*
X112700000Y-101100000I0J75000D01*
G01*
X112700000Y-99775000D01*
G75*
G02*
X112775000Y-99700000I75000J0D01*
G01*
G37*
G36*
G01*
X113275000Y-99700000D02*
X113425000Y-99700000D01*
G75*
G02*
X113500000Y-99775000I0J-75000D01*
G01*
X113500000Y-101100000D01*
G75*
G02*
X113425000Y-101175000I-75000J0D01*
G01*
X113275000Y-101175000D01*
G75*
G02*
X113200000Y-101100000I0J75000D01*
G01*
X113200000Y-99775000D01*
G75*
G02*
X113275000Y-99700000I75000J0D01*
G01*
G37*
G36*
G01*
X113775000Y-99700000D02*
X113925000Y-99700000D01*
G75*
G02*
X114000000Y-99775000I0J-75000D01*
G01*
X114000000Y-101100000D01*
G75*
G02*
X113925000Y-101175000I-75000J0D01*
G01*
X113775000Y-101175000D01*
G75*
G02*
X113700000Y-101100000I0J75000D01*
G01*
X113700000Y-99775000D01*
G75*
G02*
X113775000Y-99700000I75000J0D01*
G01*
G37*
G36*
G01*
X114275000Y-99700000D02*
X114425000Y-99700000D01*
G75*
G02*
X114500000Y-99775000I0J-75000D01*
G01*
X114500000Y-101100000D01*
G75*
G02*
X114425000Y-101175000I-75000J0D01*
G01*
X114275000Y-101175000D01*
G75*
G02*
X114200000Y-101100000I0J75000D01*
G01*
X114200000Y-99775000D01*
G75*
G02*
X114275000Y-99700000I75000J0D01*
G01*
G37*
G36*
G01*
X114775000Y-99700000D02*
X114925000Y-99700000D01*
G75*
G02*
X115000000Y-99775000I0J-75000D01*
G01*
X115000000Y-101100000D01*
G75*
G02*
X114925000Y-101175000I-75000J0D01*
G01*
X114775000Y-101175000D01*
G75*
G02*
X114700000Y-101100000I0J75000D01*
G01*
X114700000Y-99775000D01*
G75*
G02*
X114775000Y-99700000I75000J0D01*
G01*
G37*
G36*
G01*
X115275000Y-99700000D02*
X115425000Y-99700000D01*
G75*
G02*
X115500000Y-99775000I0J-75000D01*
G01*
X115500000Y-101100000D01*
G75*
G02*
X115425000Y-101175000I-75000J0D01*
G01*
X115275000Y-101175000D01*
G75*
G02*
X115200000Y-101100000I0J75000D01*
G01*
X115200000Y-99775000D01*
G75*
G02*
X115275000Y-99700000I75000J0D01*
G01*
G37*
G36*
G01*
X115775000Y-99700000D02*
X115925000Y-99700000D01*
G75*
G02*
X116000000Y-99775000I0J-75000D01*
G01*
X116000000Y-101100000D01*
G75*
G02*
X115925000Y-101175000I-75000J0D01*
G01*
X115775000Y-101175000D01*
G75*
G02*
X115700000Y-101100000I0J75000D01*
G01*
X115700000Y-99775000D01*
G75*
G02*
X115775000Y-99700000I75000J0D01*
G01*
G37*
G36*
G01*
X116275000Y-99700000D02*
X116425000Y-99700000D01*
G75*
G02*
X116500000Y-99775000I0J-75000D01*
G01*
X116500000Y-101100000D01*
G75*
G02*
X116425000Y-101175000I-75000J0D01*
G01*
X116275000Y-101175000D01*
G75*
G02*
X116200000Y-101100000I0J75000D01*
G01*
X116200000Y-99775000D01*
G75*
G02*
X116275000Y-99700000I75000J0D01*
G01*
G37*
G36*
G01*
X116775000Y-99700000D02*
X116925000Y-99700000D01*
G75*
G02*
X117000000Y-99775000I0J-75000D01*
G01*
X117000000Y-101100000D01*
G75*
G02*
X116925000Y-101175000I-75000J0D01*
G01*
X116775000Y-101175000D01*
G75*
G02*
X116700000Y-101100000I0J75000D01*
G01*
X116700000Y-99775000D01*
G75*
G02*
X116775000Y-99700000I75000J0D01*
G01*
G37*
%TD*%
%TO.C,R9*%
G36*
G01*
X117825000Y-112075000D02*
X117825000Y-111525000D01*
G75*
G02*
X118025000Y-111325000I200000J0D01*
G01*
X118425000Y-111325000D01*
G75*
G02*
X118625000Y-111525000I0J-200000D01*
G01*
X118625000Y-112075000D01*
G75*
G02*
X118425000Y-112275000I-200000J0D01*
G01*
X118025000Y-112275000D01*
G75*
G02*
X117825000Y-112075000I0J200000D01*
G01*
G37*
G36*
G01*
X116175000Y-112075000D02*
X116175000Y-111525000D01*
G75*
G02*
X116375000Y-111325000I200000J0D01*
G01*
X116775000Y-111325000D01*
G75*
G02*
X116975000Y-111525000I0J-200000D01*
G01*
X116975000Y-112075000D01*
G75*
G02*
X116775000Y-112275000I-200000J0D01*
G01*
X116375000Y-112275000D01*
G75*
G02*
X116175000Y-112075000I0J200000D01*
G01*
G37*
%TD*%
%TO.C,C9*%
G36*
G01*
X120350000Y-108950000D02*
X120850000Y-108950000D01*
G75*
G02*
X121075000Y-109175000I0J-225000D01*
G01*
X121075000Y-109625000D01*
G75*
G02*
X120850000Y-109850000I-225000J0D01*
G01*
X120350000Y-109850000D01*
G75*
G02*
X120125000Y-109625000I0J225000D01*
G01*
X120125000Y-109175000D01*
G75*
G02*
X120350000Y-108950000I225000J0D01*
G01*
G37*
G36*
G01*
X120350000Y-107400000D02*
X120850000Y-107400000D01*
G75*
G02*
X121075000Y-107625000I0J-225000D01*
G01*
X121075000Y-108075000D01*
G75*
G02*
X120850000Y-108300000I-225000J0D01*
G01*
X120350000Y-108300000D01*
G75*
G02*
X120125000Y-108075000I0J225000D01*
G01*
X120125000Y-107625000D01*
G75*
G02*
X120350000Y-107400000I225000J0D01*
G01*
G37*
%TD*%
%TO.C,R1*%
G36*
G01*
X120875000Y-101975000D02*
X120325000Y-101975000D01*
G75*
G02*
X120125000Y-101775000I0J200000D01*
G01*
X120125000Y-101375000D01*
G75*
G02*
X120325000Y-101175000I200000J0D01*
G01*
X120875000Y-101175000D01*
G75*
G02*
X121075000Y-101375000I0J-200000D01*
G01*
X121075000Y-101775000D01*
G75*
G02*
X120875000Y-101975000I-200000J0D01*
G01*
G37*
G36*
G01*
X120875000Y-103625000D02*
X120325000Y-103625000D01*
G75*
G02*
X120125000Y-103425000I0J200000D01*
G01*
X120125000Y-103025000D01*
G75*
G02*
X120325000Y-102825000I200000J0D01*
G01*
X120875000Y-102825000D01*
G75*
G02*
X121075000Y-103025000I0J-200000D01*
G01*
X121075000Y-103425000D01*
G75*
G02*
X120875000Y-103625000I-200000J0D01*
G01*
G37*
%TD*%
%TO.C,C8*%
G36*
G01*
X105600000Y-82049999D02*
X105600000Y-83350001D01*
G75*
G02*
X105350001Y-83600000I-249999J0D01*
G01*
X104699999Y-83600000D01*
G75*
G02*
X104450000Y-83350001I0J249999D01*
G01*
X104450000Y-82049999D01*
G75*
G02*
X104699999Y-81800000I249999J0D01*
G01*
X105350001Y-81800000D01*
G75*
G02*
X105600000Y-82049999I0J-249999D01*
G01*
G37*
G36*
G01*
X108550000Y-82049999D02*
X108550000Y-83350001D01*
G75*
G02*
X108300001Y-83600000I-249999J0D01*
G01*
X107649999Y-83600000D01*
G75*
G02*
X107400000Y-83350001I0J249999D01*
G01*
X107400000Y-82049999D01*
G75*
G02*
X107649999Y-81800000I249999J0D01*
G01*
X108300001Y-81800000D01*
G75*
G02*
X108550000Y-82049999I0J-249999D01*
G01*
G37*
%TD*%
%TO.C,C7*%
G36*
G01*
X105600000Y-84449999D02*
X105600000Y-85750001D01*
G75*
G02*
X105350001Y-86000000I-249999J0D01*
G01*
X104699999Y-86000000D01*
G75*
G02*
X104450000Y-85750001I0J249999D01*
G01*
X104450000Y-84449999D01*
G75*
G02*
X104699999Y-84200000I249999J0D01*
G01*
X105350001Y-84200000D01*
G75*
G02*
X105600000Y-84449999I0J-249999D01*
G01*
G37*
G36*
G01*
X108550000Y-84449999D02*
X108550000Y-85750001D01*
G75*
G02*
X108300001Y-86000000I-249999J0D01*
G01*
X107649999Y-86000000D01*
G75*
G02*
X107400000Y-85750001I0J249999D01*
G01*
X107400000Y-84449999D01*
G75*
G02*
X107649999Y-84200000I249999J0D01*
G01*
X108300001Y-84200000D01*
G75*
G02*
X108550000Y-84449999I0J-249999D01*
G01*
G37*
%TD*%
%TO.C,C5*%
G36*
G01*
X120850000Y-105175000D02*
X120350000Y-105175000D01*
G75*
G02*
X120125000Y-104950000I0J225000D01*
G01*
X120125000Y-104500000D01*
G75*
G02*
X120350000Y-104275000I225000J0D01*
G01*
X120850000Y-104275000D01*
G75*
G02*
X121075000Y-104500000I0J-225000D01*
G01*
X121075000Y-104950000D01*
G75*
G02*
X120850000Y-105175000I-225000J0D01*
G01*
G37*
G36*
G01*
X120850000Y-106725000D02*
X120350000Y-106725000D01*
G75*
G02*
X120125000Y-106500000I0J225000D01*
G01*
X120125000Y-106050000D01*
G75*
G02*
X120350000Y-105825000I225000J0D01*
G01*
X120850000Y-105825000D01*
G75*
G02*
X121075000Y-106050000I0J-225000D01*
G01*
X121075000Y-106500000D01*
G75*
G02*
X120850000Y-106725000I-225000J0D01*
G01*
G37*
%TD*%
%TO.C,C3*%
G36*
G01*
X118750000Y-109825000D02*
X119250000Y-109825000D01*
G75*
G02*
X119475000Y-110050000I0J-225000D01*
G01*
X119475000Y-110500000D01*
G75*
G02*
X119250000Y-110725000I-225000J0D01*
G01*
X118750000Y-110725000D01*
G75*
G02*
X118525000Y-110500000I0J225000D01*
G01*
X118525000Y-110050000D01*
G75*
G02*
X118750000Y-109825000I225000J0D01*
G01*
G37*
G36*
G01*
X118750000Y-108275000D02*
X119250000Y-108275000D01*
G75*
G02*
X119475000Y-108500000I0J-225000D01*
G01*
X119475000Y-108950000D01*
G75*
G02*
X119250000Y-109175000I-225000J0D01*
G01*
X118750000Y-109175000D01*
G75*
G02*
X118525000Y-108950000I0J225000D01*
G01*
X118525000Y-108500000D01*
G75*
G02*
X118750000Y-108275000I225000J0D01*
G01*
G37*
%TD*%
D10*
%TO.C,D6*%
X106450000Y-103450000D03*
X106450000Y-105150000D03*
X107550000Y-105150000D03*
X107550000Y-103450000D03*
%TD*%
%TO.C,D3*%
X106450000Y-92225000D03*
X106450000Y-93925000D03*
X107550000Y-93925000D03*
X107550000Y-92225000D03*
%TD*%
%TO.C,C6*%
G36*
G01*
X116630000Y-88500000D02*
X117580000Y-88500000D01*
G75*
G02*
X117830000Y-88750000I0J-250000D01*
G01*
X117830000Y-89250000D01*
G75*
G02*
X117580000Y-89500000I-250000J0D01*
G01*
X116630000Y-89500000D01*
G75*
G02*
X116380000Y-89250000I0J250000D01*
G01*
X116380000Y-88750000D01*
G75*
G02*
X116630000Y-88500000I250000J0D01*
G01*
G37*
G36*
G01*
X116630000Y-86600000D02*
X117580000Y-86600000D01*
G75*
G02*
X117830000Y-86850000I0J-250000D01*
G01*
X117830000Y-87350000D01*
G75*
G02*
X117580000Y-87600000I-250000J0D01*
G01*
X116630000Y-87600000D01*
G75*
G02*
X116380000Y-87350000I0J250000D01*
G01*
X116380000Y-86850000D01*
G75*
G02*
X116630000Y-86600000I250000J0D01*
G01*
G37*
%TD*%
%TO.C,C4*%
G36*
G01*
X118699999Y-79850000D02*
X120000001Y-79850000D01*
G75*
G02*
X120250000Y-80099999I0J-249999D01*
G01*
X120250000Y-80750001D01*
G75*
G02*
X120000001Y-81000000I-249999J0D01*
G01*
X118699999Y-81000000D01*
G75*
G02*
X118450000Y-80750001I0J249999D01*
G01*
X118450000Y-80099999D01*
G75*
G02*
X118699999Y-79850000I249999J0D01*
G01*
G37*
G36*
G01*
X118699999Y-76900000D02*
X120000001Y-76900000D01*
G75*
G02*
X120250000Y-77149999I0J-249999D01*
G01*
X120250000Y-77800001D01*
G75*
G02*
X120000001Y-78050000I-249999J0D01*
G01*
X118699999Y-78050000D01*
G75*
G02*
X118450000Y-77800001I0J249999D01*
G01*
X118450000Y-77149999D01*
G75*
G02*
X118699999Y-76900000I249999J0D01*
G01*
G37*
%TD*%
D11*
%TO.C,U3*%
X116875000Y-82615000D03*
X117825000Y-82615000D03*
X118775000Y-82615000D03*
X118775000Y-85235000D03*
X117825000Y-85235000D03*
X116875000Y-85235000D03*
%TD*%
%TO.C,R8*%
G36*
G01*
X117125000Y-97575000D02*
X117125000Y-97025000D01*
G75*
G02*
X117325000Y-96825000I200000J0D01*
G01*
X117725000Y-96825000D01*
G75*
G02*
X117925000Y-97025000I0J-200000D01*
G01*
X117925000Y-97575000D01*
G75*
G02*
X117725000Y-97775000I-200000J0D01*
G01*
X117325000Y-97775000D01*
G75*
G02*
X117125000Y-97575000I0J200000D01*
G01*
G37*
G36*
G01*
X115475000Y-97575000D02*
X115475000Y-97025000D01*
G75*
G02*
X115675000Y-96825000I200000J0D01*
G01*
X116075000Y-96825000D01*
G75*
G02*
X116275000Y-97025000I0J-200000D01*
G01*
X116275000Y-97575000D01*
G75*
G02*
X116075000Y-97775000I-200000J0D01*
G01*
X115675000Y-97775000D01*
G75*
G02*
X115475000Y-97575000I0J200000D01*
G01*
G37*
%TD*%
%TO.C,R7*%
G36*
G01*
X122755000Y-88100000D02*
X122755000Y-88650000D01*
G75*
G02*
X122555000Y-88850000I-200000J0D01*
G01*
X122155000Y-88850000D01*
G75*
G02*
X121955000Y-88650000I0J200000D01*
G01*
X121955000Y-88100000D01*
G75*
G02*
X122155000Y-87900000I200000J0D01*
G01*
X122555000Y-87900000D01*
G75*
G02*
X122755000Y-88100000I0J-200000D01*
G01*
G37*
G36*
G01*
X121105000Y-88100000D02*
X121105000Y-88650000D01*
G75*
G02*
X120905000Y-88850000I-200000J0D01*
G01*
X120505000Y-88850000D01*
G75*
G02*
X120305000Y-88650000I0J200000D01*
G01*
X120305000Y-88100000D01*
G75*
G02*
X120505000Y-87900000I200000J0D01*
G01*
X120905000Y-87900000D01*
G75*
G02*
X121105000Y-88100000I0J-200000D01*
G01*
G37*
%TD*%
%TO.C,R6*%
G36*
G01*
X121955000Y-87050000D02*
X121955000Y-86500000D01*
G75*
G02*
X122155000Y-86300000I200000J0D01*
G01*
X122555000Y-86300000D01*
G75*
G02*
X122755000Y-86500000I0J-200000D01*
G01*
X122755000Y-87050000D01*
G75*
G02*
X122555000Y-87250000I-200000J0D01*
G01*
X122155000Y-87250000D01*
G75*
G02*
X121955000Y-87050000I0J200000D01*
G01*
G37*
G36*
G01*
X120305000Y-87050000D02*
X120305000Y-86500000D01*
G75*
G02*
X120505000Y-86300000I200000J0D01*
G01*
X120905000Y-86300000D01*
G75*
G02*
X121105000Y-86500000I0J-200000D01*
G01*
X121105000Y-87050000D01*
G75*
G02*
X120905000Y-87250000I-200000J0D01*
G01*
X120505000Y-87250000D01*
G75*
G02*
X120305000Y-87050000I0J200000D01*
G01*
G37*
%TD*%
%TO.C,R5*%
G36*
G01*
X121105000Y-84900000D02*
X121105000Y-85450000D01*
G75*
G02*
X120905000Y-85650000I-200000J0D01*
G01*
X120505000Y-85650000D01*
G75*
G02*
X120305000Y-85450000I0J200000D01*
G01*
X120305000Y-84900000D01*
G75*
G02*
X120505000Y-84700000I200000J0D01*
G01*
X120905000Y-84700000D01*
G75*
G02*
X121105000Y-84900000I0J-200000D01*
G01*
G37*
G36*
G01*
X122755000Y-84900000D02*
X122755000Y-85450000D01*
G75*
G02*
X122555000Y-85650000I-200000J0D01*
G01*
X122155000Y-85650000D01*
G75*
G02*
X121955000Y-85450000I0J200000D01*
G01*
X121955000Y-84900000D01*
G75*
G02*
X122155000Y-84700000I200000J0D01*
G01*
X122555000Y-84700000D01*
G75*
G02*
X122755000Y-84900000I0J-200000D01*
G01*
G37*
%TD*%
%TO.C,R4*%
G36*
G01*
X121100000Y-83050000D02*
X121100000Y-83600000D01*
G75*
G02*
X120900000Y-83800000I-200000J0D01*
G01*
X120500000Y-83800000D01*
G75*
G02*
X120300000Y-83600000I0J200000D01*
G01*
X120300000Y-83050000D01*
G75*
G02*
X120500000Y-82850000I200000J0D01*
G01*
X120900000Y-82850000D01*
G75*
G02*
X121100000Y-83050000I0J-200000D01*
G01*
G37*
G36*
G01*
X122750000Y-83050000D02*
X122750000Y-83600000D01*
G75*
G02*
X122550000Y-83800000I-200000J0D01*
G01*
X122150000Y-83800000D01*
G75*
G02*
X121950000Y-83600000I0J200000D01*
G01*
X121950000Y-83050000D01*
G75*
G02*
X122150000Y-82850000I200000J0D01*
G01*
X122550000Y-82850000D01*
G75*
G02*
X122750000Y-83050000I0J-200000D01*
G01*
G37*
%TD*%
%TO.C,R3*%
G36*
G01*
X121249997Y-81050000D02*
X122500003Y-81050000D01*
G75*
G02*
X122750000Y-81299997I0J-249997D01*
G01*
X122750000Y-81925003D01*
G75*
G02*
X122500003Y-82175000I-249997J0D01*
G01*
X121249997Y-82175000D01*
G75*
G02*
X121000000Y-81925003I0J249997D01*
G01*
X121000000Y-81299997D01*
G75*
G02*
X121249997Y-81050000I249997J0D01*
G01*
G37*
G36*
G01*
X121249997Y-78125000D02*
X122500003Y-78125000D01*
G75*
G02*
X122750000Y-78374997I0J-249997D01*
G01*
X122750000Y-79000003D01*
G75*
G02*
X122500003Y-79250000I-249997J0D01*
G01*
X121249997Y-79250000D01*
G75*
G02*
X121000000Y-79000003I0J249997D01*
G01*
X121000000Y-78374997D01*
G75*
G02*
X121249997Y-78125000I249997J0D01*
G01*
G37*
%TD*%
%TO.C,R2*%
G36*
G01*
X113915000Y-112595000D02*
X113915000Y-113145000D01*
G75*
G02*
X113715000Y-113345000I-200000J0D01*
G01*
X113315000Y-113345000D01*
G75*
G02*
X113115000Y-113145000I0J200000D01*
G01*
X113115000Y-112595000D01*
G75*
G02*
X113315000Y-112395000I200000J0D01*
G01*
X113715000Y-112395000D01*
G75*
G02*
X113915000Y-112595000I0J-200000D01*
G01*
G37*
G36*
G01*
X115565000Y-112595000D02*
X115565000Y-113145000D01*
G75*
G02*
X115365000Y-113345000I-200000J0D01*
G01*
X114965000Y-113345000D01*
G75*
G02*
X114765000Y-113145000I0J200000D01*
G01*
X114765000Y-112595000D01*
G75*
G02*
X114965000Y-112395000I200000J0D01*
G01*
X115365000Y-112395000D01*
G75*
G02*
X115565000Y-112595000I0J-200000D01*
G01*
G37*
%TD*%
D12*
%TO.C,Q1*%
X109850000Y-76400000D03*
X111850000Y-75450000D03*
X111850000Y-77350000D03*
%TD*%
D13*
%TO.C,L1*%
X110050000Y-84400000D03*
X114150000Y-84400000D03*
%TD*%
%TO.C,FB1*%
G36*
G01*
X116750000Y-75093750D02*
X116750000Y-75856250D01*
G75*
G02*
X116531250Y-76075000I-218750J0D01*
G01*
X116093750Y-76075000D01*
G75*
G02*
X115875000Y-75856250I0J218750D01*
G01*
X115875000Y-75093750D01*
G75*
G02*
X116093750Y-74875000I218750J0D01*
G01*
X116531250Y-74875000D01*
G75*
G02*
X116750000Y-75093750I0J-218750D01*
G01*
G37*
G36*
G01*
X118875000Y-75093750D02*
X118875000Y-75856250D01*
G75*
G02*
X118656250Y-76075000I-218750J0D01*
G01*
X118218750Y-76075000D01*
G75*
G02*
X118000000Y-75856250I0J218750D01*
G01*
X118000000Y-75093750D01*
G75*
G02*
X118218750Y-74875000I218750J0D01*
G01*
X118656250Y-74875000D01*
G75*
G02*
X118875000Y-75093750I0J-218750D01*
G01*
G37*
%TD*%
%TO.C,F1*%
G36*
G01*
X113575000Y-77700000D02*
X114825000Y-77700000D01*
G75*
G02*
X115075000Y-77950000I0J-250000D01*
G01*
X115075000Y-78700000D01*
G75*
G02*
X114825000Y-78950000I-250000J0D01*
G01*
X113575000Y-78950000D01*
G75*
G02*
X113325000Y-78700000I0J250000D01*
G01*
X113325000Y-77950000D01*
G75*
G02*
X113575000Y-77700000I250000J0D01*
G01*
G37*
G36*
G01*
X113575000Y-74900000D02*
X114825000Y-74900000D01*
G75*
G02*
X115075000Y-75150000I0J-250000D01*
G01*
X115075000Y-75900000D01*
G75*
G02*
X114825000Y-76150000I-250000J0D01*
G01*
X113575000Y-76150000D01*
G75*
G02*
X113325000Y-75900000I0J250000D01*
G01*
X113325000Y-75150000D01*
G75*
G02*
X113575000Y-74900000I250000J0D01*
G01*
G37*
%TD*%
%TO.C,D12*%
G36*
G01*
X113150000Y-95543750D02*
X113150000Y-96056250D01*
G75*
G02*
X112931250Y-96275000I-218750J0D01*
G01*
X112493750Y-96275000D01*
G75*
G02*
X112275000Y-96056250I0J218750D01*
G01*
X112275000Y-95543750D01*
G75*
G02*
X112493750Y-95325000I218750J0D01*
G01*
X112931250Y-95325000D01*
G75*
G02*
X113150000Y-95543750I0J-218750D01*
G01*
G37*
G36*
G01*
X114725000Y-95543750D02*
X114725000Y-96056250D01*
G75*
G02*
X114506250Y-96275000I-218750J0D01*
G01*
X114068750Y-96275000D01*
G75*
G02*
X113850000Y-96056250I0J218750D01*
G01*
X113850000Y-95543750D01*
G75*
G02*
X114068750Y-95325000I218750J0D01*
G01*
X114506250Y-95325000D01*
G75*
G02*
X114725000Y-95543750I0J-218750D01*
G01*
G37*
%TD*%
D10*
%TO.C,D11*%
X106450000Y-118500000D03*
X106450000Y-120200000D03*
X107550000Y-120200000D03*
X107550000Y-118500000D03*
%TD*%
%TO.C,D10*%
X106450000Y-114750000D03*
X106450000Y-116450000D03*
X107550000Y-116450000D03*
X107550000Y-114750000D03*
%TD*%
D14*
%TO.C,D9*%
X116780000Y-77350000D03*
X116780000Y-80650000D03*
%TD*%
D10*
%TO.C,D8*%
X107550000Y-111000000D03*
X107550000Y-112700000D03*
X106450000Y-112700000D03*
X106450000Y-111000000D03*
%TD*%
%TO.C,D7*%
X106450000Y-107250000D03*
X106450000Y-108950000D03*
X107550000Y-108950000D03*
X107550000Y-107250000D03*
%TD*%
%TO.C,D5*%
X106450000Y-99725000D03*
X106450000Y-101425000D03*
X107550000Y-101425000D03*
X107550000Y-99725000D03*
%TD*%
%TO.C,D4*%
X106450000Y-95975000D03*
X106450000Y-97675000D03*
X107550000Y-97675000D03*
X107550000Y-95975000D03*
%TD*%
%TO.C,D2*%
X107500000Y-88550000D03*
X107500000Y-90250000D03*
X108600000Y-90250000D03*
X108600000Y-88550000D03*
%TD*%
D15*
%TO.C,D1*%
X104300000Y-88300000D03*
X106000000Y-88300000D03*
X106000000Y-87200000D03*
X104300000Y-87200000D03*
%TD*%
%TO.C,C2*%
G36*
G01*
X117020000Y-113300000D02*
X117020000Y-112960000D01*
G75*
G02*
X117160000Y-112820000I140000J0D01*
G01*
X117440000Y-112820000D01*
G75*
G02*
X117580000Y-112960000I0J-140000D01*
G01*
X117580000Y-113300000D01*
G75*
G02*
X117440000Y-113440000I-140000J0D01*
G01*
X117160000Y-113440000D01*
G75*
G02*
X117020000Y-113300000I0J140000D01*
G01*
G37*
G36*
G01*
X116060000Y-113300000D02*
X116060000Y-112960000D01*
G75*
G02*
X116200000Y-112820000I140000J0D01*
G01*
X116480000Y-112820000D01*
G75*
G02*
X116620000Y-112960000I0J-140000D01*
G01*
X116620000Y-113300000D01*
G75*
G02*
X116480000Y-113440000I-140000J0D01*
G01*
X116200000Y-113440000D01*
G75*
G02*
X116060000Y-113300000I0J140000D01*
G01*
G37*
%TD*%
%TO.C,C1*%
G36*
G01*
X119020000Y-113300000D02*
X119020000Y-112960000D01*
G75*
G02*
X119160000Y-112820000I140000J0D01*
G01*
X119440000Y-112820000D01*
G75*
G02*
X119580000Y-112960000I0J-140000D01*
G01*
X119580000Y-113300000D01*
G75*
G02*
X119440000Y-113440000I-140000J0D01*
G01*
X119160000Y-113440000D01*
G75*
G02*
X119020000Y-113300000I0J140000D01*
G01*
G37*
G36*
G01*
X118060000Y-113300000D02*
X118060000Y-112960000D01*
G75*
G02*
X118200000Y-112820000I140000J0D01*
G01*
X118480000Y-112820000D01*
G75*
G02*
X118620000Y-112960000I0J-140000D01*
G01*
X118620000Y-113300000D01*
G75*
G02*
X118480000Y-113440000I-140000J0D01*
G01*
X118200000Y-113440000D01*
G75*
G02*
X118060000Y-113300000I0J140000D01*
G01*
G37*
%TD*%
M02*
