M48
; DRILL file {KiCad (5.1.9-0-10_14)} date Wednesday, January 20, 2021 at 02:18:17 PM
; FORMAT={-:-/ absolute / inch / decimal}
; #@! TF.CreationDate,2021-01-20T14:18:17+11:00
; #@! TF.GenerationSoftware,Kicad,Pcbnew,(5.1.9-0-10_14)
; #@! TF.FileFunction,Plated,1,2,PTH
FMAT,2
INCH
T1C0.0079
T2C0.0157
T3C0.0394
T4C0.0433
T5C0.0591
T6C0.0598
%
G90
G05
T1
X4.0984Y-3.1811
X4.1024Y-3.5197
X4.1142Y-2.7756
X4.1142Y-4.6457
X4.1181Y-2.9291
X4.1181Y-3.0039
X4.1181Y-3.0787
X4.126Y-3.1575
X4.1457Y-3.5197
X4.1535Y-2.8465
X4.1535Y-4.5433
X4.1654Y-2.689
X4.189Y-3.5512
X4.1969Y-3.1929
X4.1969Y-3.2244
X4.1969Y-3.2559
X4.1969Y-3.2913
X4.1969Y-3.3228
X4.1969Y-3.3543
X4.2047Y-2.9016
X4.2087Y-2.6496
X4.2087Y-2.7756
X4.2087Y-3.4528
X4.2559Y-3.4528
X4.2598Y-2.7126
X4.2598Y-2.8465
X4.2598Y-2.9291
X4.2598Y-3.1811
X4.2638Y-3.8819
X4.2717Y-3.9252
X4.272Y-3.434
X4.2756Y-3.6143
X4.2768Y-3.4118
X4.2835Y-3.9016
X4.2913Y-3.1181
X4.3031Y-3.5551
X4.3031Y-3.622
X4.3071Y-3.9252
X4.3071Y-4.3031
X4.3071Y-4.3386
X4.3071Y-4.378
X4.311Y-4.6704
X4.3189Y-4.6063
X4.3189Y-4.7441
X4.3213Y-3.5415
X4.3268Y-3.7441
X4.3307Y-2.6496
X4.3307Y-3.0827
X4.3307Y-3.1575
X4.3307Y-3.2244
X4.3307Y-4.2756
X4.3395Y-3.5279
X4.3425Y-4.7205
X4.3504Y-3.7717
X4.3504Y-4.2559
X4.3504Y-4.3031
X4.3504Y-4.3346
X4.3543Y-4.5709
X4.3622Y-4.6969
X4.3622Y-4.7441
X4.374Y-3.4055
X4.374Y-4.0
X4.374Y-4.1181
X4.378Y-3.7953
X4.378Y-4.2323
X4.3898Y-2.8898
X4.3898Y-3.6535
X4.3898Y-4.6063
X4.3898Y-4.6299
X4.3898Y-4.6732
X4.3898Y-4.6969
X4.4016Y-3.0866
X4.4055Y-3.4449
X4.4094Y-3.1575
X4.4134Y-3.2244
X4.4134Y-3.2874
X4.4134Y-3.3583
X4.4291Y-2.6496
X4.4291Y-3.1024
X4.4331Y-4.4606
X4.4449Y-3.4843
X4.4488Y-3.4449
X4.4528Y-3.4055
X4.4606Y-2.7205
X4.4606Y-2.7913
X4.4606Y-2.8898
X4.4803Y-3.5236
X4.4843Y-3.1575
X4.4843Y-3.2244
X4.4882Y-2.8543
X4.4882Y-3.4449
X4.4882Y-3.4843
X4.5039Y-2.689
X4.5039Y-4.6063
X4.5079Y-4.5
X4.5118Y-3.5591
X4.5118Y-3.6457
X4.5197Y-4.6654
X4.5276Y-2.6496
X4.5276Y-3.4843
X4.5276Y-4.3425
X4.5315Y-3.0276
X4.5315Y-3.7598
X4.532Y-3.9011
X4.5354Y-3.6732
X4.5394Y-3.1417
X4.5394Y-3.6181
X4.5433Y-2.8898
X4.5502Y-3.8876
X4.5512Y-3.2244
X4.5551Y-3.0945
X4.5551Y-3.5315
X4.5591Y-4.5
X4.5591Y-4.5315
X4.5591Y-4.563
X4.563Y-3.7913
X4.5693Y-3.8753
X4.5787Y-3.1142
X4.5812Y-4.6035
X4.5984Y-3.0906
X4.5984Y-4.6299
X4.6102Y-4.0
X4.6102Y-4.2362
X4.6142Y-4.1181
X4.6181Y-4.685
X4.6181Y-4.7402
X4.626Y-2.6496
X4.626Y-2.8898
X4.626Y-4.4961
X4.626Y-4.5315
X4.626Y-4.563
X4.6299Y-2.689
X4.6299Y-2.8504
X4.6299Y-3.9488
X4.6299Y-4.2717
X4.6299Y-4.626
X4.6339Y-3.9724
X4.6388Y-3.3061
X4.6535Y-3.9843
X4.6614Y-3.5472
X4.6693Y-2.7008
X4.6693Y-2.8386
X4.6772Y-2.7677
X4.6772Y-3.6142
X4.6772Y-3.6496
X4.6772Y-3.685
X4.6772Y-3.7244
X4.685Y-3.4252
X4.685Y-3.4646
X4.685Y-3.5079
X4.6948Y-3.9947
X4.6969Y-3.9134
X4.6969Y-4.0672
X4.7007Y-4.0171
X4.7008Y-4.0399
X4.7047Y-3.1093
X4.7047Y-3.3031
X4.7087Y-3.4803
X4.7087Y-3.6299
X4.7087Y-3.6654
X4.7087Y-3.7008
X4.7126Y-4.315
X4.7205Y-2.6496
X4.7205Y-2.9331
X4.7283Y-3.5984
X4.7283Y-4.4567
X4.7323Y-3.7677
X4.7323Y-4.685
X4.7323Y-4.7402
X4.7362Y-3.6496
X4.7362Y-3.6811
X4.748Y-4.6024
X4.752Y-3.5709
X4.752Y-3.622
X4.752Y-4.7126
X4.7638Y-2.9843
X4.7677Y-3.6614
X4.7677Y-3.7323
X4.7677Y-3.7677
X4.7677Y-4.5866
X4.7677Y-4.685
X4.7717Y-4.1575
X4.7717Y-4.2205
X4.7756Y-4.7402
X4.7953Y-3.5236
X4.7992Y-2.937
X4.8002Y-3.1555
X4.8031Y-2.6496
X4.8425Y-2.7087
X4.8425Y-2.7953
X4.8425Y-2.8661
X4.8465Y-2.9646
X4.8504Y-3.3189
X4.8504Y-3.3858
X4.8504Y-3.4488
X4.8504Y-3.5236
X4.8543Y-3.7441
X4.8543Y-4.3425
X4.8543Y-4.4449
X4.8543Y-4.5433
X4.8543Y-4.6457
X4.8543Y-4.7441
T2
X4.1772Y-4.626
X4.2106Y-3.7372
X4.2126Y-3.5906
X4.2126Y-3.8858
X4.2126Y-4.0315
X4.2126Y-4.1811
X4.2126Y-4.3307
X4.2126Y-4.4764
X4.2126Y-4.626
X4.3898Y-4.5256
X4.3898Y-4.7303
X4.5157Y-4.7283
X4.5509Y-4.4052
X4.622Y-4.3622
X4.6693Y-3.8701
X4.7136Y-4.4045
X4.7323Y-3.9488
X4.7559Y-3.8898
X4.7687Y-3.8376
T3
X4.122Y-3.5945
X4.122Y-3.6945
X4.122Y-3.7945
X4.122Y-3.8945
X4.122Y-3.9945
X4.122Y-4.0945
X4.122Y-4.1945
X4.122Y-4.2945
X4.122Y-4.3945
X4.122Y-4.4945
X4.122Y-4.5945
X4.122Y-4.6945
X4.2067Y-3.0138
X4.2067Y-3.1138
X4.4429Y-3.5654
X4.4429Y-3.6654
X4.6083Y-3.626
X4.6083Y-3.726
X4.7589Y-2.7559
X4.7589Y-2.8559
X4.822Y-3.5945
X4.822Y-3.6945
X4.822Y-3.7945
X4.822Y-3.8945
X4.822Y-3.9945
X4.822Y-4.0945
X4.822Y-4.1945
X4.822Y-4.2945
X4.822Y-4.3945
X4.822Y-4.4945
X4.822Y-4.5945
X4.822Y-4.6945
T4
X4.4291Y-4.0551
X4.4291Y-4.1811
X4.5472Y-4.1772
X4.5512Y-4.0591
T5
X4.4921Y-4.1181
T6
X4.3661Y-2.7707
X4.5661Y-2.7707
T0
M30
