%TF.GenerationSoftware,KiCad,Pcbnew,(5.1.9-0-10_14)*%
%TF.CreationDate,2021-01-09T22:25:45+11:00*%
%TF.ProjectId,ControlBreakout,436f6e74-726f-46c4-9272-65616b6f7574,rev?*%
%TF.SameCoordinates,Original*%
%TF.FileFunction,Copper,L2,Bot*%
%TF.FilePolarity,Positive*%
%FSLAX46Y46*%
G04 Gerber Fmt 4.6, Leading zero omitted, Abs format (unit mm)*
G04 Created by KiCad (PCBNEW (5.1.9-0-10_14)) date 2021-01-09 22:25:45*
%MOMM*%
%LPD*%
G01*
G04 APERTURE LIST*
%TA.AperFunction,ComponentPad*%
%ADD10O,1.700000X1.700000*%
%TD*%
%TA.AperFunction,ComponentPad*%
%ADD11R,1.700000X1.700000*%
%TD*%
%TA.AperFunction,ComponentPad*%
%ADD12C,3.000000*%
%TD*%
%TA.AperFunction,ComponentPad*%
%ADD13R,3.000000X3.000000*%
%TD*%
%TA.AperFunction,ViaPad*%
%ADD14C,0.900000*%
%TD*%
%TA.AperFunction,ViaPad*%
%ADD15C,0.450000*%
%TD*%
%TA.AperFunction,Conductor*%
%ADD16C,0.250000*%
%TD*%
%TA.AperFunction,Conductor*%
%ADD17C,0.500000*%
%TD*%
%TA.AperFunction,Conductor*%
%ADD18C,0.200000*%
%TD*%
%TA.AperFunction,Conductor*%
%ADD19C,0.254000*%
%TD*%
%TA.AperFunction,Conductor*%
%ADD20C,0.100000*%
%TD*%
G04 APERTURE END LIST*
D10*
%TO.P,J7,2*%
%TO.N,GND*%
X119775000Y-72540000D03*
D11*
%TO.P,J7,1*%
X119775000Y-70000000D03*
%TD*%
D12*
%TO.P,J6,2*%
%TO.N,GND*%
X114880000Y-70375000D03*
D13*
%TO.P,J6,1*%
%TO.N,+12V*%
X109800000Y-70375000D03*
%TD*%
D10*
%TO.P,J4,2*%
%TO.N,GND*%
X104950000Y-79090000D03*
D11*
%TO.P,J4,1*%
X104950000Y-76550000D03*
%TD*%
D10*
%TO.P,J5,2*%
%TO.N,GND*%
X115950000Y-94640000D03*
D11*
%TO.P,J5,1*%
X115950000Y-92100000D03*
%TD*%
%TO.P,J3,1*%
%TO.N,+3V3*%
X111750000Y-93100000D03*
D10*
%TO.P,J3,2*%
%TO.N,Net-(C7-Pad1)*%
X111750000Y-90560000D03*
%TD*%
D11*
%TO.P,J2,1*%
%TO.N,GND*%
X104700000Y-91300000D03*
D10*
%TO.P,J2,2*%
%TO.N,+3V3*%
X104700000Y-93840000D03*
%TO.P,J2,3*%
X104700000Y-96380000D03*
%TO.P,J2,4*%
%TO.N,GND*%
X104700000Y-98920000D03*
%TO.P,J2,5*%
X104700000Y-101460000D03*
%TO.P,J2,6*%
X104700000Y-104000000D03*
%TO.P,J2,7*%
X104700000Y-106540000D03*
%TO.P,J2,8*%
X104700000Y-109080000D03*
%TO.P,J2,9*%
X104700000Y-111620000D03*
%TO.P,J2,10*%
%TO.N,I2C_INT_1*%
X104700000Y-114160000D03*
%TO.P,J2,11*%
%TO.N,I2C_SDA_1*%
X104700000Y-116700000D03*
%TO.P,J2,12*%
%TO.N,I2C_SCL_1*%
X104700000Y-119240000D03*
%TD*%
%TO.P,J1,12*%
%TO.N,I2C_INT_4*%
X119940000Y-119240000D03*
%TO.P,J1,11*%
%TO.N,I2C_SDA_4*%
X119940000Y-116700000D03*
%TO.P,J1,10*%
%TO.N,I2C_SCL_4*%
X119940000Y-114160000D03*
%TO.P,J1,9*%
%TO.N,I2C_INT_IN*%
X119940000Y-111620000D03*
%TO.P,J1,8*%
%TO.N,I2C_SCL_IN*%
X119940000Y-109080000D03*
%TO.P,J1,7*%
%TO.N,I2C_SDA_IN*%
X119940000Y-106540000D03*
%TO.P,J1,6*%
%TO.N,GND*%
X119940000Y-104000000D03*
%TO.P,J1,5*%
X119940000Y-101460000D03*
%TO.P,J1,4*%
X119940000Y-98920000D03*
%TO.P,J1,3*%
%TO.N,+3V3*%
X119940000Y-96380000D03*
%TO.P,J1,2*%
X119940000Y-93840000D03*
D11*
%TO.P,J1,1*%
%TO.N,GND*%
X119940000Y-91300000D03*
%TD*%
D14*
%TO.N,GND*%
X114375000Y-104150000D03*
D15*
X115925000Y-103000000D03*
X115925000Y-106275000D03*
X113650000Y-106275000D03*
X113650000Y-103000000D03*
X116600000Y-98675000D03*
X114500000Y-96550000D03*
X118250000Y-101500000D03*
X118550000Y-102750000D03*
X118400000Y-103475000D03*
X118425000Y-102100000D03*
X112325000Y-114200000D03*
X114100000Y-114200000D03*
X113975000Y-120050000D03*
X112425000Y-101650000D03*
X117600000Y-78975000D03*
X120025000Y-80150000D03*
X117600000Y-83900000D03*
X115925000Y-83975000D03*
X113475000Y-98650000D03*
X112525000Y-98550000D03*
X115221896Y-111720176D03*
X118325000Y-120225000D03*
X111725000Y-88850000D03*
X112925000Y-88850000D03*
X112925000Y-89625000D03*
X107475000Y-94925000D03*
X107550000Y-93075000D03*
X107525000Y-96825000D03*
X107525000Y-100575000D03*
X113295000Y-120055000D03*
X114100000Y-115050000D03*
D14*
X114375000Y-105150000D03*
X115300000Y-105150000D03*
X115300000Y-104150000D03*
D15*
%TO.N,+3V3*%
X106691642Y-89508358D03*
X106691642Y-93816642D03*
X106691642Y-97733358D03*
X106691642Y-98758358D03*
X106691642Y-102920995D03*
X106691642Y-108908358D03*
X106691642Y-112691642D03*
X106691642Y-116491642D03*
X106691642Y-120191642D03*
X106691642Y-113808358D03*
X115925000Y-112275000D03*
X106691642Y-90216642D03*
X115100000Y-112450000D03*
%TO.N,G1*%
X110846020Y-95116954D03*
X104739767Y-88276647D03*
%TO.N,B1*%
X110846020Y-95693957D03*
X106360945Y-87520942D03*
%TO.N,R1*%
X110846020Y-94539951D03*
X104710808Y-88852922D03*
%TO.N,G3*%
X111406006Y-105081892D03*
X108250000Y-93100000D03*
%TO.N,B3*%
X108790000Y-94700000D03*
X113124678Y-106748496D03*
%TO.N,R3*%
X110812965Y-104027035D03*
X108482447Y-95188203D03*
%TO.N,I2C_SCL_4*%
X114579267Y-98982038D03*
X114720943Y-119111947D03*
%TO.N,I2C_SDA_4*%
X115151651Y-99355795D03*
X115128945Y-118703945D03*
%TO.N,G4*%
X108250000Y-96810000D03*
X111021558Y-106178000D03*
%TO.N,B4*%
X109388702Y-102374620D03*
X109581954Y-98361257D03*
%TO.N,R4*%
X109792127Y-97823813D03*
X111400000Y-105730000D03*
%TO.N,G5*%
X112332162Y-108644058D03*
X108484701Y-102160000D03*
%TO.N,B5*%
X112329878Y-109221055D03*
X108250000Y-100575000D03*
%TO.N,R5*%
X112324558Y-108067106D03*
X107947663Y-102370999D03*
%TO.N,R8*%
X114205712Y-110965712D03*
X109520000Y-110960000D03*
%TO.N,B8*%
X113433744Y-111869712D03*
X108833149Y-111869712D03*
%TO.N,G8*%
X113837234Y-111417712D03*
X108265517Y-111699786D03*
%TO.N,G9*%
X108240000Y-115600000D03*
X116980063Y-111630094D03*
%TO.N,B9*%
X109510000Y-116460000D03*
X117570000Y-112220000D03*
%TO.N,R9*%
X109510000Y-114750000D03*
X116660000Y-111150000D03*
%TO.N,G10*%
X118460421Y-105064950D03*
X108240000Y-119350000D03*
%TO.N,B10*%
X118817875Y-104612007D03*
X109510000Y-120200000D03*
%TO.N,R10*%
X118022812Y-105441021D03*
X109510000Y-118500000D03*
%TD*%
D16*
%TO.N,GND*%
X112325000Y-114200000D02*
X114100000Y-114200000D01*
D17*
%TO.N,+3V3*%
X111750000Y-93100000D02*
X109950000Y-91300000D01*
X109950000Y-91300000D02*
X107025000Y-91300000D01*
X107025000Y-91300000D02*
X106691642Y-91633358D01*
X106691642Y-91633358D02*
X106691642Y-93816642D01*
X106691642Y-97733358D02*
X106691642Y-98758358D01*
X106691642Y-98758358D02*
X106691642Y-102920995D01*
X106691642Y-102920995D02*
X106691642Y-108908358D01*
X106691642Y-120191642D02*
X106691642Y-120541642D01*
X106691642Y-116491642D02*
X106691642Y-120191642D01*
X106691642Y-113808358D02*
X106691642Y-116491642D01*
D16*
X107199999Y-112449999D02*
X106691642Y-111941642D01*
X114975001Y-112449999D02*
X107199999Y-112449999D01*
D17*
X106691642Y-111941642D02*
X106691642Y-112691642D01*
X106691642Y-108908358D02*
X106691642Y-111941642D01*
D16*
X114891642Y-113308358D02*
X106691642Y-113308358D01*
X115925000Y-112275000D02*
X114891642Y-113308358D01*
D17*
X106691642Y-113308358D02*
X106691642Y-113808358D01*
X106691642Y-112691642D02*
X106691642Y-113308358D01*
X106691642Y-90216642D02*
X106691642Y-89508358D01*
X106691642Y-91633358D02*
X106691642Y-90216642D01*
D16*
X115099999Y-112449999D02*
X115100000Y-112450000D01*
X114975001Y-112449999D02*
X115099999Y-112449999D01*
D17*
X106691642Y-93816642D02*
X106691642Y-94583358D01*
X106620000Y-96380000D02*
X106691642Y-96308358D01*
X104700000Y-96380000D02*
X106620000Y-96380000D01*
X106691642Y-96308358D02*
X106691642Y-97733358D01*
X106026642Y-95166642D02*
X106691642Y-95166642D01*
X104700000Y-93840000D02*
X106026642Y-95166642D01*
X106691642Y-95166642D02*
X106691642Y-96308358D01*
X106691642Y-94583358D02*
X106691642Y-95166642D01*
D18*
%TO.N,G1*%
X110846020Y-95116954D02*
X110625556Y-95116954D01*
X112304109Y-95116954D02*
X110846020Y-95116954D01*
X113837052Y-93584011D02*
X112304109Y-95116954D01*
X113645492Y-87847952D02*
X113837052Y-88039511D01*
X104739767Y-88276647D02*
X106274202Y-88276647D01*
X106702897Y-87847952D02*
X113645492Y-87847952D01*
X106274202Y-88276647D02*
X106702897Y-87847952D01*
X113837052Y-88039511D02*
X113837052Y-93584011D01*
%TO.N,B1*%
X110846020Y-95693957D02*
X110563333Y-95693957D01*
X114164062Y-93719462D02*
X114164062Y-87904062D01*
X113780942Y-87520942D02*
X106360945Y-87520942D01*
X114164062Y-87904062D02*
X113780942Y-87520942D01*
X112189567Y-95693957D02*
X114164062Y-93719462D01*
X110846020Y-95693957D02*
X112189567Y-95693957D01*
%TO.N,R1*%
X106160388Y-88852921D02*
X104710808Y-88852922D01*
X106167079Y-88852921D02*
X106160388Y-88852921D01*
X106845038Y-88174962D02*
X106167079Y-88852921D01*
X112418651Y-94539951D02*
X113510042Y-93448560D01*
X113510042Y-88174962D02*
X106845038Y-88174962D01*
X113510042Y-93448560D02*
X113510042Y-88174962D01*
X110846020Y-94539951D02*
X112418651Y-94539951D01*
%TO.N,G3*%
X110360964Y-104355048D02*
X110360964Y-97753424D01*
X111087808Y-105081892D02*
X110360964Y-104355048D01*
X111406006Y-105081892D02*
X111087808Y-105081892D01*
X108030446Y-95422906D02*
X108030446Y-94894554D01*
X110360964Y-97753424D02*
X108030446Y-95422906D01*
X108250000Y-94675000D02*
X108250000Y-93100000D01*
X108030446Y-94894554D02*
X108250000Y-94675000D01*
%TO.N,B3*%
X111464966Y-97374966D02*
X111464966Y-104443996D01*
X108790000Y-94700000D02*
X111464966Y-97374966D01*
X113124678Y-106103708D02*
X111464966Y-104443996D01*
X113124678Y-106748496D02*
X113124678Y-106103708D01*
%TO.N,R3*%
X111037864Y-103802136D02*
X111037864Y-97967864D01*
X110812965Y-104027035D02*
X111037864Y-103802136D01*
X111037864Y-97743620D02*
X108482447Y-95188203D01*
X111037864Y-97967864D02*
X111037864Y-97743620D01*
%TO.N,I2C_SCL_4*%
X115603652Y-99138834D02*
X115603652Y-99345336D01*
X115368612Y-98903794D02*
X115603652Y-99138834D01*
X114657511Y-98903794D02*
X115368612Y-98903794D01*
X114579267Y-98982038D02*
X114657511Y-98903794D01*
X115603652Y-99345336D02*
X115928307Y-99669991D01*
X115928307Y-99669991D02*
X117625000Y-99669991D01*
X121344011Y-114812412D02*
X120533424Y-115622999D01*
X121344011Y-98730049D02*
X121344011Y-114812412D01*
X120456961Y-97842999D02*
X121344011Y-98730049D01*
X119423039Y-97842999D02*
X120456961Y-97842999D01*
X117625000Y-99641038D02*
X119423039Y-97842999D01*
X117625000Y-99669991D02*
X117625000Y-99641038D01*
X120533424Y-115622999D02*
X119147999Y-115622999D01*
X119147999Y-115622999D02*
X119020963Y-115622999D01*
X116660175Y-117635175D02*
X115735175Y-118560175D01*
X115735175Y-118766677D02*
X115345906Y-119155946D01*
X119147999Y-115622999D02*
X118672351Y-115622999D01*
X115345906Y-119155946D02*
X114764942Y-119155946D01*
X117647675Y-116647675D02*
X116660175Y-117635175D01*
X114764942Y-119155946D02*
X114720943Y-119111947D01*
X115735175Y-118560175D02*
X115735175Y-118766677D01*
X118672351Y-115622999D02*
X117647675Y-116647675D01*
%TO.N,I2C_SDA_4*%
X115792857Y-99997001D02*
X115151651Y-99355795D01*
X120070963Y-99997001D02*
X115792857Y-99997001D01*
X121017001Y-100943039D02*
X120070963Y-99997001D01*
X121017001Y-114676961D02*
X121017001Y-100943039D01*
X120456961Y-115237001D02*
X121017001Y-114676961D01*
X118737999Y-115237001D02*
X120456961Y-115237001D01*
X118595889Y-115237001D02*
X115128945Y-118703945D01*
X118737999Y-115237001D02*
X118595889Y-115237001D01*
%TO.N,G4*%
X110947999Y-105867005D02*
X110947999Y-105946961D01*
X111021558Y-106020520D02*
X111021558Y-106178000D01*
X110947999Y-105946961D02*
X111021558Y-106020520D01*
X109706944Y-104625950D02*
X110947999Y-105867005D01*
X109706944Y-103361824D02*
X109706944Y-104625950D01*
X108936701Y-102591581D02*
X109706944Y-103361824D01*
X108936701Y-97496701D02*
X108936701Y-102591581D01*
X108250000Y-96810000D02*
X108936701Y-97496701D01*
%TO.N,B4*%
X109388702Y-102374620D02*
X109388702Y-101251298D01*
X109388702Y-98554509D02*
X109581954Y-98361257D01*
X109388702Y-101251298D02*
X109388702Y-98554509D01*
%TO.N,R4*%
X110033954Y-98065640D02*
X110033954Y-104490499D01*
X110033954Y-104490499D02*
X111273456Y-105730000D01*
X109792127Y-97823813D02*
X110033954Y-98065640D01*
X111273456Y-105730000D02*
X111400000Y-105730000D01*
%TO.N,G5*%
X112227272Y-108644058D02*
X112332162Y-108644058D01*
X107495662Y-102154038D02*
X107730702Y-101918998D01*
X107620653Y-102712951D02*
X107495662Y-102587960D01*
X108164624Y-101918998D02*
X108405626Y-102160000D01*
X107495662Y-102587960D02*
X107495662Y-102154038D01*
X107620653Y-104037440D02*
X107620653Y-102712951D01*
X108405626Y-102160000D02*
X108484701Y-102160000D01*
X112227271Y-108644058D02*
X107620653Y-104037440D01*
X107730702Y-101918998D02*
X108164624Y-101918998D01*
X112332162Y-108644058D02*
X112227271Y-108644058D01*
%TO.N,B5*%
X112240197Y-109221055D02*
X112329878Y-109221055D01*
X108200000Y-100625000D02*
X108250000Y-100575000D01*
X111880161Y-109089536D02*
X112011680Y-109221055D01*
X107168652Y-102723411D02*
X107293643Y-102848402D01*
X112011680Y-109221055D02*
X112329878Y-109221055D01*
X107168652Y-101656348D02*
X107168652Y-102723411D01*
X111880161Y-108759408D02*
X111880161Y-109089536D01*
X107293643Y-104172891D02*
X111880161Y-108759408D01*
X107293643Y-102848402D02*
X107293643Y-104172891D01*
X108250000Y-100575000D02*
X107168652Y-101656348D01*
%TO.N,R5*%
X112112780Y-108067106D02*
X112324558Y-108067106D01*
X112324558Y-108067106D02*
X112241702Y-108067106D01*
X107947663Y-103773067D02*
X107947663Y-102370999D01*
X112241702Y-108067106D02*
X107947663Y-103773067D01*
%TO.N,R8*%
X109525712Y-110965712D02*
X109520000Y-110960000D01*
X114205712Y-110965712D02*
X109525712Y-110965712D01*
%TO.N,B8*%
X113433744Y-111869712D02*
X108833149Y-111869712D01*
%TO.N,G8*%
X108547591Y-111417712D02*
X108265517Y-111699786D01*
X113837234Y-111417712D02*
X108547591Y-111417712D01*
%TO.N,G9*%
X115210834Y-116132990D02*
X116980000Y-114363824D01*
X116980000Y-114363824D02*
X116980000Y-111630157D01*
X116980000Y-111630157D02*
X116980063Y-111630094D01*
X109851952Y-116132990D02*
X115210834Y-116132990D01*
X109318962Y-115600000D02*
X109851952Y-116132990D01*
X108240000Y-115600000D02*
X109318962Y-115600000D01*
%TO.N,B9*%
X115346284Y-116460000D02*
X109510000Y-116460000D01*
X117570812Y-114235472D02*
X115346284Y-116460000D01*
X117570000Y-114234660D02*
X117570812Y-114235472D01*
X117570000Y-112220000D02*
X117570000Y-114234660D01*
%TO.N,R9*%
X116528062Y-114353302D02*
X116131364Y-114750000D01*
X116528062Y-111281938D02*
X116528062Y-114353302D01*
X116660000Y-111150000D02*
X116528062Y-111281938D01*
X109510000Y-114750000D02*
X109510000Y-115328578D01*
X109510000Y-115328578D02*
X109987402Y-115805980D01*
X109987402Y-115805980D02*
X115075384Y-115805980D01*
X115075384Y-115805980D02*
X116528062Y-114353302D01*
%TO.N,G10*%
X118685420Y-105289949D02*
X118685420Y-105714580D01*
X118685420Y-105714580D02*
X118349822Y-106050178D01*
X118460421Y-105064950D02*
X118685420Y-105289949D01*
X118349822Y-106050178D02*
X118349822Y-107420000D01*
X118349822Y-107420000D02*
X118349822Y-114381382D01*
X108240000Y-119350000D02*
X109477010Y-119350000D01*
X113904194Y-118827010D02*
X114128102Y-118603102D01*
X110000000Y-118827010D02*
X113904194Y-118827010D01*
X109477010Y-119350000D02*
X110000000Y-118827010D01*
X118349822Y-114381382D02*
X114128102Y-118603102D01*
%TO.N,B10*%
X119012430Y-104947997D02*
X119012430Y-105850030D01*
X118817875Y-104753442D02*
X119012430Y-104947997D01*
X118817875Y-104612007D02*
X118817875Y-104753442D01*
X119012430Y-105850030D02*
X118676832Y-106185628D01*
X118676832Y-106185628D02*
X118676832Y-107370000D01*
X118676832Y-107370000D02*
X118676832Y-114516832D01*
X109510000Y-120200000D02*
X110555980Y-119154020D01*
X114284332Y-118909333D02*
X114284332Y-118909332D01*
X114039645Y-119154020D02*
X114284332Y-118909333D01*
X110555980Y-119154020D02*
X114039645Y-119154020D01*
X118676832Y-114516832D02*
X114284332Y-118909332D01*
%TO.N,R10*%
X118022812Y-105441021D02*
X118022812Y-107462812D01*
X118022812Y-107462812D02*
X118022812Y-114245932D01*
X118022812Y-114245932D02*
X113794372Y-118474372D01*
X113768744Y-118500000D02*
X109510000Y-118500000D01*
X113794372Y-118474372D02*
X113768744Y-118500000D01*
%TD*%
D19*
%TO.N,GND*%
X116047063Y-114154064D02*
X114876148Y-115324980D01*
X110186639Y-115324980D01*
X109991000Y-115129342D01*
X109991000Y-115120903D01*
X110047030Y-115037049D01*
X110092712Y-114926764D01*
X110116000Y-114809686D01*
X110116000Y-114690314D01*
X110092712Y-114573236D01*
X110047030Y-114462951D01*
X109980711Y-114363698D01*
X109896302Y-114279289D01*
X109797049Y-114212970D01*
X109686764Y-114167288D01*
X109569686Y-114144000D01*
X109450314Y-114144000D01*
X109333236Y-114167288D01*
X109222951Y-114212970D01*
X109123698Y-114279289D01*
X109039289Y-114363698D01*
X108972970Y-114462951D01*
X108927288Y-114573236D01*
X108904000Y-114690314D01*
X108904000Y-114809686D01*
X108927288Y-114926764D01*
X108972970Y-115037049D01*
X109027728Y-115119000D01*
X108610903Y-115119000D01*
X108527049Y-115062970D01*
X108416764Y-115017288D01*
X108299686Y-114994000D01*
X108180314Y-114994000D01*
X108063236Y-115017288D01*
X107952951Y-115062970D01*
X107853698Y-115129289D01*
X107769289Y-115213698D01*
X107702970Y-115312951D01*
X107657288Y-115423236D01*
X107634000Y-115540314D01*
X107634000Y-115659686D01*
X107657288Y-115776764D01*
X107702970Y-115887049D01*
X107769289Y-115986302D01*
X107853698Y-116070711D01*
X107952951Y-116137030D01*
X108063236Y-116182712D01*
X108180314Y-116206000D01*
X108299686Y-116206000D01*
X108416764Y-116182712D01*
X108527049Y-116137030D01*
X108610903Y-116081000D01*
X109034410Y-116081000D01*
X108972970Y-116172951D01*
X108927288Y-116283236D01*
X108904000Y-116400314D01*
X108904000Y-116519686D01*
X108927288Y-116636764D01*
X108972970Y-116747049D01*
X109039289Y-116846302D01*
X109123698Y-116930711D01*
X109222951Y-116997030D01*
X109333236Y-117042712D01*
X109450314Y-117066000D01*
X109569686Y-117066000D01*
X109686764Y-117042712D01*
X109797049Y-116997030D01*
X109880903Y-116941000D01*
X114647508Y-116941000D01*
X113569508Y-118019000D01*
X109880903Y-118019000D01*
X109797049Y-117962970D01*
X109686764Y-117917288D01*
X109569686Y-117894000D01*
X109450314Y-117894000D01*
X109333236Y-117917288D01*
X109222951Y-117962970D01*
X109123698Y-118029289D01*
X109039289Y-118113698D01*
X108972970Y-118212951D01*
X108927288Y-118323236D01*
X108904000Y-118440314D01*
X108904000Y-118559686D01*
X108927288Y-118676764D01*
X108972970Y-118787049D01*
X109027728Y-118869000D01*
X108610903Y-118869000D01*
X108527049Y-118812970D01*
X108416764Y-118767288D01*
X108299686Y-118744000D01*
X108180314Y-118744000D01*
X108063236Y-118767288D01*
X107952951Y-118812970D01*
X107853698Y-118879289D01*
X107769289Y-118963698D01*
X107702970Y-119062951D01*
X107657288Y-119173236D01*
X107634000Y-119290314D01*
X107634000Y-119409686D01*
X107657288Y-119526764D01*
X107702970Y-119637049D01*
X107769289Y-119736302D01*
X107853698Y-119820711D01*
X107952951Y-119887030D01*
X108063236Y-119932712D01*
X108180314Y-119956000D01*
X108299686Y-119956000D01*
X108416764Y-119932712D01*
X108527049Y-119887030D01*
X108610903Y-119831000D01*
X109027728Y-119831000D01*
X108972970Y-119912951D01*
X108927288Y-120023236D01*
X108904000Y-120140314D01*
X108904000Y-120259686D01*
X108927288Y-120376764D01*
X108972970Y-120487049D01*
X109039289Y-120586302D01*
X109123698Y-120670711D01*
X109158552Y-120694000D01*
X107304818Y-120694000D01*
X107313512Y-120665339D01*
X107322642Y-120572639D01*
X107322642Y-113814358D01*
X114866796Y-113814358D01*
X114891642Y-113816805D01*
X114916488Y-113814358D01*
X114916496Y-113814358D01*
X114990835Y-113807036D01*
X115086217Y-113778103D01*
X115174121Y-113731117D01*
X115251169Y-113667885D01*
X115267018Y-113648573D01*
X116046983Y-112868608D01*
X116047063Y-112868593D01*
X116047063Y-114154064D01*
%TA.AperFunction,Conductor*%
D20*
G36*
X116047063Y-114154064D02*
G01*
X114876148Y-115324980D01*
X110186639Y-115324980D01*
X109991000Y-115129342D01*
X109991000Y-115120903D01*
X110047030Y-115037049D01*
X110092712Y-114926764D01*
X110116000Y-114809686D01*
X110116000Y-114690314D01*
X110092712Y-114573236D01*
X110047030Y-114462951D01*
X109980711Y-114363698D01*
X109896302Y-114279289D01*
X109797049Y-114212970D01*
X109686764Y-114167288D01*
X109569686Y-114144000D01*
X109450314Y-114144000D01*
X109333236Y-114167288D01*
X109222951Y-114212970D01*
X109123698Y-114279289D01*
X109039289Y-114363698D01*
X108972970Y-114462951D01*
X108927288Y-114573236D01*
X108904000Y-114690314D01*
X108904000Y-114809686D01*
X108927288Y-114926764D01*
X108972970Y-115037049D01*
X109027728Y-115119000D01*
X108610903Y-115119000D01*
X108527049Y-115062970D01*
X108416764Y-115017288D01*
X108299686Y-114994000D01*
X108180314Y-114994000D01*
X108063236Y-115017288D01*
X107952951Y-115062970D01*
X107853698Y-115129289D01*
X107769289Y-115213698D01*
X107702970Y-115312951D01*
X107657288Y-115423236D01*
X107634000Y-115540314D01*
X107634000Y-115659686D01*
X107657288Y-115776764D01*
X107702970Y-115887049D01*
X107769289Y-115986302D01*
X107853698Y-116070711D01*
X107952951Y-116137030D01*
X108063236Y-116182712D01*
X108180314Y-116206000D01*
X108299686Y-116206000D01*
X108416764Y-116182712D01*
X108527049Y-116137030D01*
X108610903Y-116081000D01*
X109034410Y-116081000D01*
X108972970Y-116172951D01*
X108927288Y-116283236D01*
X108904000Y-116400314D01*
X108904000Y-116519686D01*
X108927288Y-116636764D01*
X108972970Y-116747049D01*
X109039289Y-116846302D01*
X109123698Y-116930711D01*
X109222951Y-116997030D01*
X109333236Y-117042712D01*
X109450314Y-117066000D01*
X109569686Y-117066000D01*
X109686764Y-117042712D01*
X109797049Y-116997030D01*
X109880903Y-116941000D01*
X114647508Y-116941000D01*
X113569508Y-118019000D01*
X109880903Y-118019000D01*
X109797049Y-117962970D01*
X109686764Y-117917288D01*
X109569686Y-117894000D01*
X109450314Y-117894000D01*
X109333236Y-117917288D01*
X109222951Y-117962970D01*
X109123698Y-118029289D01*
X109039289Y-118113698D01*
X108972970Y-118212951D01*
X108927288Y-118323236D01*
X108904000Y-118440314D01*
X108904000Y-118559686D01*
X108927288Y-118676764D01*
X108972970Y-118787049D01*
X109027728Y-118869000D01*
X108610903Y-118869000D01*
X108527049Y-118812970D01*
X108416764Y-118767288D01*
X108299686Y-118744000D01*
X108180314Y-118744000D01*
X108063236Y-118767288D01*
X107952951Y-118812970D01*
X107853698Y-118879289D01*
X107769289Y-118963698D01*
X107702970Y-119062951D01*
X107657288Y-119173236D01*
X107634000Y-119290314D01*
X107634000Y-119409686D01*
X107657288Y-119526764D01*
X107702970Y-119637049D01*
X107769289Y-119736302D01*
X107853698Y-119820711D01*
X107952951Y-119887030D01*
X108063236Y-119932712D01*
X108180314Y-119956000D01*
X108299686Y-119956000D01*
X108416764Y-119932712D01*
X108527049Y-119887030D01*
X108610903Y-119831000D01*
X109027728Y-119831000D01*
X108972970Y-119912951D01*
X108927288Y-120023236D01*
X108904000Y-120140314D01*
X108904000Y-120259686D01*
X108927288Y-120376764D01*
X108972970Y-120487049D01*
X109039289Y-120586302D01*
X109123698Y-120670711D01*
X109158552Y-120694000D01*
X107304818Y-120694000D01*
X107313512Y-120665339D01*
X107322642Y-120572639D01*
X107322642Y-113814358D01*
X114866796Y-113814358D01*
X114891642Y-113816805D01*
X114916488Y-113814358D01*
X114916496Y-113814358D01*
X114990835Y-113807036D01*
X115086217Y-113778103D01*
X115174121Y-113731117D01*
X115251169Y-113667885D01*
X115267018Y-113648573D01*
X116046983Y-112868608D01*
X116047063Y-112868593D01*
X116047063Y-114154064D01*
G37*
%TD.AperFunction*%
D19*
X121817881Y-66709700D02*
X121835078Y-66714892D01*
X121850943Y-66723328D01*
X121864861Y-66734680D01*
X121876317Y-66748528D01*
X121884861Y-66764330D01*
X121890173Y-66781489D01*
X121894000Y-66817901D01*
X121894000Y-76207179D01*
X121798556Y-76064338D01*
X121659662Y-75925444D01*
X121496340Y-75816315D01*
X121314865Y-75741146D01*
X121122213Y-75702825D01*
X120925787Y-75702825D01*
X120733135Y-75741146D01*
X120551660Y-75816315D01*
X120388338Y-75925444D01*
X120249444Y-76064338D01*
X120140315Y-76227660D01*
X120065146Y-76409135D01*
X120026825Y-76601787D01*
X120026825Y-76798213D01*
X120065146Y-76990865D01*
X120140315Y-77172340D01*
X120249444Y-77335662D01*
X120388338Y-77474556D01*
X120551660Y-77583685D01*
X120733135Y-77658854D01*
X120925787Y-77697175D01*
X121122213Y-77697175D01*
X121314865Y-77658854D01*
X121496340Y-77583685D01*
X121659662Y-77474556D01*
X121798556Y-77335662D01*
X121894000Y-77192821D01*
X121894001Y-119362150D01*
X121770865Y-119311146D01*
X121578213Y-119272825D01*
X121381787Y-119272825D01*
X121189135Y-119311146D01*
X121171000Y-119318658D01*
X121171000Y-119118757D01*
X121123693Y-118880931D01*
X121030898Y-118656903D01*
X120896180Y-118455283D01*
X120724717Y-118283820D01*
X120523097Y-118149102D01*
X120299069Y-118056307D01*
X120061243Y-118009000D01*
X119818757Y-118009000D01*
X119580931Y-118056307D01*
X119356903Y-118149102D01*
X119155283Y-118283820D01*
X118983820Y-118455283D01*
X118849102Y-118656903D01*
X118756307Y-118880931D01*
X118709000Y-119118757D01*
X118709000Y-119361243D01*
X118756307Y-119599069D01*
X118849102Y-119823097D01*
X118983820Y-120024717D01*
X119155283Y-120196180D01*
X119356903Y-120330898D01*
X119580931Y-120423693D01*
X119818757Y-120471000D01*
X120061243Y-120471000D01*
X120299069Y-120423693D01*
X120482825Y-120347579D01*
X120482825Y-120368213D01*
X120521146Y-120560865D01*
X120576292Y-120694000D01*
X109861448Y-120694000D01*
X109896302Y-120670711D01*
X109980711Y-120586302D01*
X110047030Y-120487049D01*
X110092712Y-120376764D01*
X110112387Y-120277849D01*
X110755217Y-119635020D01*
X114016019Y-119635020D01*
X114039645Y-119637347D01*
X114063271Y-119635020D01*
X114070196Y-119634338D01*
X114133937Y-119628060D01*
X114224606Y-119600556D01*
X114307977Y-119555994D01*
X114334641Y-119582658D01*
X114433894Y-119648977D01*
X114544179Y-119694659D01*
X114661257Y-119717947D01*
X114780629Y-119717947D01*
X114897707Y-119694659D01*
X115007992Y-119648977D01*
X115025998Y-119636946D01*
X115322280Y-119636946D01*
X115345906Y-119639273D01*
X115369532Y-119636946D01*
X115396012Y-119634338D01*
X115440198Y-119629986D01*
X115446547Y-119628060D01*
X115530867Y-119602482D01*
X115614428Y-119557818D01*
X115687670Y-119497710D01*
X115702736Y-119479353D01*
X116058586Y-119123503D01*
X116076939Y-119108441D01*
X116137047Y-119035199D01*
X116181711Y-118951638D01*
X116209215Y-118860969D01*
X116216175Y-118790302D01*
X116216175Y-118790294D01*
X116218501Y-118766678D01*
X116217641Y-118757945D01*
X117016999Y-117958587D01*
X118004499Y-116971088D01*
X118004503Y-116971083D01*
X118842327Y-116133260D01*
X118756307Y-116340931D01*
X118709000Y-116578757D01*
X118709000Y-116821243D01*
X118756307Y-117059069D01*
X118849102Y-117283097D01*
X118983820Y-117484717D01*
X119155283Y-117656180D01*
X119356903Y-117790898D01*
X119580931Y-117883693D01*
X119818757Y-117931000D01*
X120061243Y-117931000D01*
X120299069Y-117883693D01*
X120523097Y-117790898D01*
X120724717Y-117656180D01*
X120896180Y-117484717D01*
X121030898Y-117283097D01*
X121123693Y-117059069D01*
X121171000Y-116821243D01*
X121171000Y-116578757D01*
X121123693Y-116340931D01*
X121030898Y-116116903D01*
X120906272Y-115930387D01*
X121667422Y-115169238D01*
X121685775Y-115154176D01*
X121745883Y-115080934D01*
X121790547Y-114997373D01*
X121814411Y-114918704D01*
X121818051Y-114906705D01*
X121827338Y-114812413D01*
X121825011Y-114788786D01*
X121825011Y-98753675D01*
X121827338Y-98730048D01*
X121818051Y-98635756D01*
X121801621Y-98581594D01*
X121790547Y-98545088D01*
X121745883Y-98461527D01*
X121685775Y-98388285D01*
X121667422Y-98373224D01*
X120813791Y-97519593D01*
X120798725Y-97501235D01*
X120725483Y-97441127D01*
X120641922Y-97396463D01*
X120636815Y-97394914D01*
X120724717Y-97336180D01*
X120896180Y-97164717D01*
X121030898Y-96963097D01*
X121123693Y-96739069D01*
X121171000Y-96501243D01*
X121171000Y-96258757D01*
X121123693Y-96020931D01*
X121030898Y-95796903D01*
X120896180Y-95595283D01*
X120724717Y-95423820D01*
X120523097Y-95289102D01*
X120299069Y-95196307D01*
X120061243Y-95149000D01*
X119818757Y-95149000D01*
X119580931Y-95196307D01*
X119356903Y-95289102D01*
X119155283Y-95423820D01*
X118983820Y-95595283D01*
X118849102Y-95796903D01*
X118756307Y-96020931D01*
X118709000Y-96258757D01*
X118709000Y-96501243D01*
X118756307Y-96739069D01*
X118849102Y-96963097D01*
X118983820Y-97164717D01*
X119155283Y-97336180D01*
X119243185Y-97394914D01*
X119238078Y-97396463D01*
X119154517Y-97441127D01*
X119081275Y-97501235D01*
X119066214Y-97519587D01*
X117396811Y-99188991D01*
X116127543Y-99188991D01*
X116086119Y-99147567D01*
X116086979Y-99138834D01*
X116077692Y-99044541D01*
X116063600Y-98998086D01*
X116050188Y-98953873D01*
X116005524Y-98870312D01*
X115945416Y-98797070D01*
X115927058Y-98782004D01*
X115725442Y-98580388D01*
X115710376Y-98562030D01*
X115637134Y-98501922D01*
X115553573Y-98457258D01*
X115462904Y-98429754D01*
X115392238Y-98422794D01*
X115368612Y-98420467D01*
X115344986Y-98422794D01*
X114812687Y-98422794D01*
X114756031Y-98399326D01*
X114638953Y-98376038D01*
X114519581Y-98376038D01*
X114402503Y-98399326D01*
X114292218Y-98445008D01*
X114192965Y-98511327D01*
X114108556Y-98595736D01*
X114042237Y-98694989D01*
X113996555Y-98805274D01*
X113973267Y-98922352D01*
X113973267Y-99041724D01*
X113996555Y-99158802D01*
X114042237Y-99269087D01*
X114108556Y-99368340D01*
X114192965Y-99452749D01*
X114292218Y-99519068D01*
X114402503Y-99564750D01*
X114519581Y-99588038D01*
X114591919Y-99588038D01*
X114614621Y-99642844D01*
X114680940Y-99742097D01*
X114765349Y-99826506D01*
X114864602Y-99892825D01*
X114974887Y-99938507D01*
X115073802Y-99958182D01*
X115436031Y-100320412D01*
X115451093Y-100338765D01*
X115524335Y-100398873D01*
X115607896Y-100443537D01*
X115698565Y-100471041D01*
X115769231Y-100478001D01*
X115769232Y-100478001D01*
X115792856Y-100480328D01*
X115816480Y-100478001D01*
X118828785Y-100478001D01*
X118668359Y-100693080D01*
X118543175Y-100955901D01*
X118498524Y-101103110D01*
X118619845Y-101333000D01*
X119813000Y-101333000D01*
X119813000Y-101313000D01*
X120067000Y-101313000D01*
X120067000Y-101333000D01*
X120087000Y-101333000D01*
X120087000Y-101587000D01*
X120067000Y-101587000D01*
X120067000Y-103873000D01*
X120087000Y-103873000D01*
X120087000Y-104127000D01*
X120067000Y-104127000D01*
X120067000Y-104147000D01*
X119813000Y-104147000D01*
X119813000Y-104127000D01*
X119182782Y-104127000D01*
X119104924Y-104074977D01*
X118994639Y-104029295D01*
X118877561Y-104006007D01*
X118758189Y-104006007D01*
X118641111Y-104029295D01*
X118530826Y-104074977D01*
X118431573Y-104141296D01*
X118347164Y-104225705D01*
X118280845Y-104324958D01*
X118235163Y-104435243D01*
X118220622Y-104508348D01*
X118173372Y-104527920D01*
X118074119Y-104594239D01*
X117989710Y-104678648D01*
X117923391Y-104777901D01*
X117894039Y-104848763D01*
X117846048Y-104858309D01*
X117735763Y-104903991D01*
X117636510Y-104970310D01*
X117552101Y-105054719D01*
X117485782Y-105153972D01*
X117440100Y-105264257D01*
X117416812Y-105381335D01*
X117416812Y-105500707D01*
X117440100Y-105617785D01*
X117485782Y-105728070D01*
X117541812Y-105811925D01*
X117541813Y-107439177D01*
X117541812Y-107439187D01*
X117541813Y-111402723D01*
X117517093Y-111343045D01*
X117450774Y-111243792D01*
X117366365Y-111159383D01*
X117267112Y-111093064D01*
X117266000Y-111092603D01*
X117266000Y-111090314D01*
X117242712Y-110973236D01*
X117197030Y-110862951D01*
X117130711Y-110763698D01*
X117046302Y-110679289D01*
X116947049Y-110612970D01*
X116836764Y-110567288D01*
X116719686Y-110544000D01*
X116600314Y-110544000D01*
X116483236Y-110567288D01*
X116372951Y-110612970D01*
X116273698Y-110679289D01*
X116189289Y-110763698D01*
X116122970Y-110862951D01*
X116077288Y-110973236D01*
X116054000Y-111090314D01*
X116054000Y-111187869D01*
X116044735Y-111281938D01*
X116047062Y-111305564D01*
X116047062Y-111681407D01*
X115984686Y-111669000D01*
X115865314Y-111669000D01*
X115748236Y-111692288D01*
X115637951Y-111737970D01*
X115538698Y-111804289D01*
X115454289Y-111888698D01*
X115422322Y-111936539D01*
X115387049Y-111912970D01*
X115276764Y-111867288D01*
X115159686Y-111844000D01*
X115040314Y-111844000D01*
X114923236Y-111867288D01*
X114812951Y-111912970D01*
X114766513Y-111943999D01*
X114140361Y-111943999D01*
X114223536Y-111888423D01*
X114307945Y-111804014D01*
X114374264Y-111704761D01*
X114419946Y-111594476D01*
X114433293Y-111527375D01*
X114492761Y-111502742D01*
X114592014Y-111436423D01*
X114676423Y-111352014D01*
X114742742Y-111252761D01*
X114788424Y-111142476D01*
X114811712Y-111025398D01*
X114811712Y-110906026D01*
X114788424Y-110788948D01*
X114742742Y-110678663D01*
X114676423Y-110579410D01*
X114592014Y-110495001D01*
X114492761Y-110428682D01*
X114382476Y-110383000D01*
X114265398Y-110359712D01*
X114146026Y-110359712D01*
X114028948Y-110383000D01*
X113918663Y-110428682D01*
X113834809Y-110484712D01*
X109899452Y-110484712D01*
X109807049Y-110422970D01*
X109696764Y-110377288D01*
X109579686Y-110354000D01*
X109460314Y-110354000D01*
X109343236Y-110377288D01*
X109232951Y-110422970D01*
X109133698Y-110489289D01*
X109049289Y-110573698D01*
X108982970Y-110672951D01*
X108937288Y-110783236D01*
X108914000Y-110900314D01*
X108914000Y-110936712D01*
X108571217Y-110936712D01*
X108547591Y-110934385D01*
X108453298Y-110943672D01*
X108425794Y-110952016D01*
X108362630Y-110971176D01*
X108279069Y-111015840D01*
X108205827Y-111075948D01*
X108190761Y-111094306D01*
X108187668Y-111097399D01*
X108088753Y-111117074D01*
X107978468Y-111162756D01*
X107879215Y-111229075D01*
X107794806Y-111313484D01*
X107728487Y-111412737D01*
X107682805Y-111523022D01*
X107659517Y-111640100D01*
X107659517Y-111759472D01*
X107682805Y-111876550D01*
X107710744Y-111943999D01*
X107409591Y-111943999D01*
X107322642Y-111857050D01*
X107322642Y-104882126D01*
X111399161Y-108958645D01*
X111399161Y-109065910D01*
X111396834Y-109089536D01*
X111399161Y-109113161D01*
X111399161Y-109113162D01*
X111406121Y-109183828D01*
X111433626Y-109274497D01*
X111478290Y-109358058D01*
X111538398Y-109431300D01*
X111556750Y-109446361D01*
X111654850Y-109544461D01*
X111669916Y-109562819D01*
X111743158Y-109622927D01*
X111826719Y-109667591D01*
X111896285Y-109688693D01*
X111917387Y-109695095D01*
X111953947Y-109698696D01*
X112042829Y-109758085D01*
X112153114Y-109803767D01*
X112270192Y-109827055D01*
X112389564Y-109827055D01*
X112506642Y-109803767D01*
X112616927Y-109758085D01*
X112716180Y-109691766D01*
X112800589Y-109607357D01*
X112866908Y-109508104D01*
X112912590Y-109397819D01*
X112935878Y-109280741D01*
X112935878Y-109161369D01*
X112912590Y-109044291D01*
X112867041Y-108934327D01*
X112869192Y-108931107D01*
X112914874Y-108820822D01*
X112938162Y-108703744D01*
X112938162Y-108584372D01*
X112914874Y-108467294D01*
X112869192Y-108357009D01*
X112863768Y-108348892D01*
X112907270Y-108243870D01*
X112930558Y-108126792D01*
X112930558Y-108007420D01*
X112907270Y-107890342D01*
X112861588Y-107780057D01*
X112795269Y-107680804D01*
X112710860Y-107596395D01*
X112611607Y-107530076D01*
X112501322Y-107484394D01*
X112384244Y-107461106D01*
X112315939Y-107461106D01*
X111455702Y-106600869D01*
X111492269Y-106564302D01*
X111558588Y-106465049D01*
X111604270Y-106354764D01*
X111615855Y-106296520D01*
X111687049Y-106267030D01*
X111786302Y-106200711D01*
X111870711Y-106116302D01*
X111937030Y-106017049D01*
X111982712Y-105906764D01*
X112006000Y-105789686D01*
X112006000Y-105670314D01*
X112004747Y-105664013D01*
X112643679Y-106302946D01*
X112643679Y-106377592D01*
X112587648Y-106461447D01*
X112541966Y-106571732D01*
X112518678Y-106688810D01*
X112518678Y-106808182D01*
X112541966Y-106925260D01*
X112587648Y-107035545D01*
X112653967Y-107134798D01*
X112738376Y-107219207D01*
X112837629Y-107285526D01*
X112947914Y-107331208D01*
X113064992Y-107354496D01*
X113184364Y-107354496D01*
X113301442Y-107331208D01*
X113411727Y-107285526D01*
X113510980Y-107219207D01*
X113595389Y-107134798D01*
X113661708Y-107035545D01*
X113707390Y-106925260D01*
X113730678Y-106808182D01*
X113730678Y-106688810D01*
X113707390Y-106571732D01*
X113661708Y-106461447D01*
X113605678Y-106377593D01*
X113605678Y-106127331D01*
X113608005Y-106103707D01*
X113604859Y-106071764D01*
X113598718Y-106009416D01*
X113571214Y-105918747D01*
X113526550Y-105835186D01*
X113466442Y-105761944D01*
X113448090Y-105746883D01*
X111945966Y-104244760D01*
X111945966Y-101816890D01*
X118498524Y-101816890D01*
X118543175Y-101964099D01*
X118668359Y-102226920D01*
X118842412Y-102460269D01*
X119058645Y-102655178D01*
X119184255Y-102730000D01*
X119058645Y-102804822D01*
X118842412Y-102999731D01*
X118668359Y-103233080D01*
X118543175Y-103495901D01*
X118498524Y-103643110D01*
X118619845Y-103873000D01*
X119813000Y-103873000D01*
X119813000Y-101587000D01*
X118619845Y-101587000D01*
X118498524Y-101816890D01*
X111945966Y-101816890D01*
X111945966Y-97398592D01*
X111948293Y-97374965D01*
X111939006Y-97280673D01*
X111923082Y-97228179D01*
X111911502Y-97190005D01*
X111866838Y-97106444D01*
X111806730Y-97033202D01*
X111788378Y-97018141D01*
X111039841Y-96269604D01*
X111133069Y-96230987D01*
X111216923Y-96174957D01*
X112165941Y-96174957D01*
X112189567Y-96177284D01*
X112213193Y-96174957D01*
X112283859Y-96167997D01*
X112374528Y-96140493D01*
X112458089Y-96095829D01*
X112531331Y-96035721D01*
X112546397Y-96017363D01*
X113566870Y-94996890D01*
X114508524Y-94996890D01*
X114553175Y-95144099D01*
X114678359Y-95406920D01*
X114852412Y-95640269D01*
X115068645Y-95835178D01*
X115318748Y-95984157D01*
X115593109Y-96081481D01*
X115823000Y-95960814D01*
X115823000Y-94767000D01*
X116077000Y-94767000D01*
X116077000Y-95960814D01*
X116306891Y-96081481D01*
X116581252Y-95984157D01*
X116831355Y-95835178D01*
X117047588Y-95640269D01*
X117221641Y-95406920D01*
X117346825Y-95144099D01*
X117391476Y-94996890D01*
X117270155Y-94767000D01*
X116077000Y-94767000D01*
X115823000Y-94767000D01*
X114629845Y-94767000D01*
X114508524Y-94996890D01*
X113566870Y-94996890D01*
X114487468Y-94076292D01*
X114505826Y-94061226D01*
X114565934Y-93987984D01*
X114599185Y-93925775D01*
X114610598Y-93904424D01*
X114638102Y-93813755D01*
X114647389Y-93719462D01*
X114645062Y-93695836D01*
X114645062Y-93396612D01*
X114648815Y-93401185D01*
X114745506Y-93480537D01*
X114855820Y-93539502D01*
X114936466Y-93563966D01*
X114852412Y-93639731D01*
X114678359Y-93873080D01*
X114553175Y-94135901D01*
X114508524Y-94283110D01*
X114629845Y-94513000D01*
X115823000Y-94513000D01*
X115823000Y-92227000D01*
X116077000Y-92227000D01*
X116077000Y-94513000D01*
X117270155Y-94513000D01*
X117391476Y-94283110D01*
X117346825Y-94135901D01*
X117221641Y-93873080D01*
X117047588Y-93639731D01*
X116963534Y-93563966D01*
X117044180Y-93539502D01*
X117154494Y-93480537D01*
X117251185Y-93401185D01*
X117330537Y-93304494D01*
X117389502Y-93194180D01*
X117425812Y-93074482D01*
X117438072Y-92950000D01*
X117435000Y-92385750D01*
X117276250Y-92227000D01*
X116077000Y-92227000D01*
X115823000Y-92227000D01*
X115803000Y-92227000D01*
X115803000Y-92150000D01*
X118451928Y-92150000D01*
X118464188Y-92274482D01*
X118500498Y-92394180D01*
X118559463Y-92504494D01*
X118638815Y-92601185D01*
X118735506Y-92680537D01*
X118845820Y-92739502D01*
X118965518Y-92775812D01*
X119090000Y-92788072D01*
X119300294Y-92786927D01*
X119155283Y-92883820D01*
X118983820Y-93055283D01*
X118849102Y-93256903D01*
X118756307Y-93480931D01*
X118709000Y-93718757D01*
X118709000Y-93961243D01*
X118756307Y-94199069D01*
X118849102Y-94423097D01*
X118983820Y-94624717D01*
X119155283Y-94796180D01*
X119356903Y-94930898D01*
X119580931Y-95023693D01*
X119818757Y-95071000D01*
X120061243Y-95071000D01*
X120299069Y-95023693D01*
X120523097Y-94930898D01*
X120724717Y-94796180D01*
X120896180Y-94624717D01*
X121030898Y-94423097D01*
X121123693Y-94199069D01*
X121171000Y-93961243D01*
X121171000Y-93718757D01*
X121123693Y-93480931D01*
X121030898Y-93256903D01*
X120896180Y-93055283D01*
X120724717Y-92883820D01*
X120579706Y-92786927D01*
X120790000Y-92788072D01*
X120914482Y-92775812D01*
X121034180Y-92739502D01*
X121144494Y-92680537D01*
X121241185Y-92601185D01*
X121320537Y-92504494D01*
X121379502Y-92394180D01*
X121415812Y-92274482D01*
X121428072Y-92150000D01*
X121425000Y-91585750D01*
X121266250Y-91427000D01*
X120067000Y-91427000D01*
X120067000Y-91447000D01*
X119813000Y-91447000D01*
X119813000Y-91427000D01*
X118613750Y-91427000D01*
X118455000Y-91585750D01*
X118451928Y-92150000D01*
X115803000Y-92150000D01*
X115803000Y-91973000D01*
X115823000Y-91973000D01*
X115823000Y-90773750D01*
X116077000Y-90773750D01*
X116077000Y-91973000D01*
X117276250Y-91973000D01*
X117435000Y-91814250D01*
X117438072Y-91250000D01*
X117425812Y-91125518D01*
X117389502Y-91005820D01*
X117330537Y-90895506D01*
X117251185Y-90798815D01*
X117154494Y-90719463D01*
X117044180Y-90660498D01*
X116924482Y-90624188D01*
X116800000Y-90611928D01*
X116235750Y-90615000D01*
X116077000Y-90773750D01*
X115823000Y-90773750D01*
X115664250Y-90615000D01*
X115100000Y-90611928D01*
X114975518Y-90624188D01*
X114855820Y-90660498D01*
X114745506Y-90719463D01*
X114648815Y-90798815D01*
X114645062Y-90803388D01*
X114645062Y-90450000D01*
X118451928Y-90450000D01*
X118455000Y-91014250D01*
X118613750Y-91173000D01*
X119813000Y-91173000D01*
X119813000Y-89973750D01*
X120067000Y-89973750D01*
X120067000Y-91173000D01*
X121266250Y-91173000D01*
X121425000Y-91014250D01*
X121428072Y-90450000D01*
X121415812Y-90325518D01*
X121379502Y-90205820D01*
X121320537Y-90095506D01*
X121241185Y-89998815D01*
X121144494Y-89919463D01*
X121034180Y-89860498D01*
X120914482Y-89824188D01*
X120790000Y-89811928D01*
X120225750Y-89815000D01*
X120067000Y-89973750D01*
X119813000Y-89973750D01*
X119654250Y-89815000D01*
X119090000Y-89811928D01*
X118965518Y-89824188D01*
X118845820Y-89860498D01*
X118735506Y-89919463D01*
X118638815Y-89998815D01*
X118559463Y-90095506D01*
X118500498Y-90205820D01*
X118464188Y-90325518D01*
X118451928Y-90450000D01*
X114645062Y-90450000D01*
X114645062Y-87927689D01*
X114647389Y-87904062D01*
X114638102Y-87809769D01*
X114610598Y-87719100D01*
X114580607Y-87662991D01*
X114565934Y-87635540D01*
X114505826Y-87562298D01*
X114487468Y-87547232D01*
X114137772Y-87197536D01*
X114122706Y-87179178D01*
X114049464Y-87119070D01*
X113965903Y-87074406D01*
X113875234Y-87046902D01*
X113804568Y-87039942D01*
X113780942Y-87037615D01*
X113757316Y-87039942D01*
X106731848Y-87039942D01*
X106647994Y-86983912D01*
X106537709Y-86938230D01*
X106420631Y-86914942D01*
X106301259Y-86914942D01*
X106184181Y-86938230D01*
X106073896Y-86983912D01*
X105974643Y-87050231D01*
X105890234Y-87134640D01*
X105823915Y-87233893D01*
X105778233Y-87344178D01*
X105754945Y-87461256D01*
X105754945Y-87580628D01*
X105778233Y-87697706D01*
X105818802Y-87795647D01*
X105110670Y-87795647D01*
X105026816Y-87739617D01*
X104916531Y-87693935D01*
X104799453Y-87670647D01*
X104680081Y-87670647D01*
X104563003Y-87693935D01*
X104452718Y-87739617D01*
X104353465Y-87805936D01*
X104269056Y-87890345D01*
X104202737Y-87989598D01*
X104157055Y-88099883D01*
X104133767Y-88216961D01*
X104133767Y-88336333D01*
X104157055Y-88453411D01*
X104192211Y-88538285D01*
X104173778Y-88565873D01*
X104128096Y-88676158D01*
X104104808Y-88793236D01*
X104104808Y-88912608D01*
X104128096Y-89029686D01*
X104173778Y-89139971D01*
X104240097Y-89239224D01*
X104324506Y-89323633D01*
X104423759Y-89389952D01*
X104534044Y-89435634D01*
X104651122Y-89458922D01*
X104770494Y-89458922D01*
X104887572Y-89435634D01*
X104997857Y-89389952D01*
X105081712Y-89333921D01*
X106085164Y-89333920D01*
X106069772Y-89384660D01*
X106060642Y-89477360D01*
X106060642Y-90071264D01*
X106001185Y-89998815D01*
X105904494Y-89919463D01*
X105794180Y-89860498D01*
X105674482Y-89824188D01*
X105550000Y-89811928D01*
X104985750Y-89815000D01*
X104827000Y-89973750D01*
X104827000Y-91173000D01*
X104847000Y-91173000D01*
X104847000Y-91427000D01*
X104827000Y-91427000D01*
X104827000Y-91447000D01*
X104573000Y-91447000D01*
X104573000Y-91427000D01*
X103373750Y-91427000D01*
X103215000Y-91585750D01*
X103211928Y-92150000D01*
X103224188Y-92274482D01*
X103260498Y-92394180D01*
X103319463Y-92504494D01*
X103398815Y-92601185D01*
X103495506Y-92680537D01*
X103605820Y-92739502D01*
X103725518Y-92775812D01*
X103850000Y-92788072D01*
X104060294Y-92786927D01*
X103915283Y-92883820D01*
X103743820Y-93055283D01*
X103609102Y-93256903D01*
X103516307Y-93480931D01*
X103469000Y-93718757D01*
X103469000Y-93961243D01*
X103516307Y-94199069D01*
X103609102Y-94423097D01*
X103743820Y-94624717D01*
X103915283Y-94796180D01*
X104116903Y-94930898D01*
X104340931Y-95023693D01*
X104578757Y-95071000D01*
X104821243Y-95071000D01*
X105002564Y-95034933D01*
X105238091Y-95270460D01*
X105059069Y-95196307D01*
X104821243Y-95149000D01*
X104578757Y-95149000D01*
X104340931Y-95196307D01*
X104116903Y-95289102D01*
X103915283Y-95423820D01*
X103743820Y-95595283D01*
X103609102Y-95796903D01*
X103516307Y-96020931D01*
X103469000Y-96258757D01*
X103469000Y-96501243D01*
X103516307Y-96739069D01*
X103609102Y-96963097D01*
X103743820Y-97164717D01*
X103915283Y-97336180D01*
X104116903Y-97470898D01*
X104231168Y-97518228D01*
X104068748Y-97575843D01*
X103818645Y-97724822D01*
X103602412Y-97919731D01*
X103428359Y-98153080D01*
X103303175Y-98415901D01*
X103258524Y-98563110D01*
X103379845Y-98793000D01*
X104573000Y-98793000D01*
X104573000Y-98773000D01*
X104827000Y-98773000D01*
X104827000Y-98793000D01*
X104847000Y-98793000D01*
X104847000Y-99047000D01*
X104827000Y-99047000D01*
X104827000Y-101333000D01*
X104847000Y-101333000D01*
X104847000Y-101587000D01*
X104827000Y-101587000D01*
X104827000Y-103873000D01*
X104847000Y-103873000D01*
X104847000Y-104127000D01*
X104827000Y-104127000D01*
X104827000Y-106413000D01*
X104847000Y-106413000D01*
X104847000Y-106667000D01*
X104827000Y-106667000D01*
X104827000Y-108953000D01*
X104847000Y-108953000D01*
X104847000Y-109207000D01*
X104827000Y-109207000D01*
X104827000Y-111493000D01*
X104847000Y-111493000D01*
X104847000Y-111747000D01*
X104827000Y-111747000D01*
X104827000Y-111767000D01*
X104573000Y-111767000D01*
X104573000Y-111747000D01*
X103379845Y-111747000D01*
X103258524Y-111976890D01*
X103303175Y-112124099D01*
X103428359Y-112386920D01*
X103602412Y-112620269D01*
X103818645Y-112815178D01*
X104068748Y-112964157D01*
X104231168Y-113021772D01*
X104116903Y-113069102D01*
X103915283Y-113203820D01*
X103743820Y-113375283D01*
X103609102Y-113576903D01*
X103516307Y-113800931D01*
X103469000Y-114038757D01*
X103469000Y-114281243D01*
X103516307Y-114519069D01*
X103609102Y-114743097D01*
X103743820Y-114944717D01*
X103915283Y-115116180D01*
X104116903Y-115250898D01*
X104340931Y-115343693D01*
X104578757Y-115391000D01*
X104821243Y-115391000D01*
X105059069Y-115343693D01*
X105283097Y-115250898D01*
X105484717Y-115116180D01*
X105656180Y-114944717D01*
X105790898Y-114743097D01*
X105883693Y-114519069D01*
X105931000Y-114281243D01*
X105931000Y-114038757D01*
X105883693Y-113800931D01*
X105790898Y-113576903D01*
X105656180Y-113375283D01*
X105484717Y-113203820D01*
X105283097Y-113069102D01*
X105168832Y-113021772D01*
X105331252Y-112964157D01*
X105581355Y-112815178D01*
X105797588Y-112620269D01*
X105971641Y-112386920D01*
X106060642Y-112200064D01*
X106060642Y-113777361D01*
X106060643Y-116460635D01*
X106060642Y-116460645D01*
X106060643Y-120160635D01*
X106060642Y-120160645D01*
X106060642Y-120572640D01*
X106069772Y-120665340D01*
X106078466Y-120694000D01*
X104139566Y-120694000D01*
X104198854Y-120550865D01*
X104233040Y-120379003D01*
X104340931Y-120423693D01*
X104578757Y-120471000D01*
X104821243Y-120471000D01*
X105059069Y-120423693D01*
X105283097Y-120330898D01*
X105484717Y-120196180D01*
X105656180Y-120024717D01*
X105790898Y-119823097D01*
X105883693Y-119599069D01*
X105931000Y-119361243D01*
X105931000Y-119118757D01*
X105883693Y-118880931D01*
X105790898Y-118656903D01*
X105656180Y-118455283D01*
X105484717Y-118283820D01*
X105283097Y-118149102D01*
X105059069Y-118056307D01*
X104821243Y-118009000D01*
X104578757Y-118009000D01*
X104340931Y-118056307D01*
X104116903Y-118149102D01*
X103915283Y-118283820D01*
X103743820Y-118455283D01*
X103609102Y-118656903D01*
X103516307Y-118880931D01*
X103469000Y-119118757D01*
X103469000Y-119288840D01*
X103338213Y-119262825D01*
X103141787Y-119262825D01*
X102949135Y-119301146D01*
X102767660Y-119376315D01*
X102706000Y-119417515D01*
X102706000Y-116578757D01*
X103469000Y-116578757D01*
X103469000Y-116821243D01*
X103516307Y-117059069D01*
X103609102Y-117283097D01*
X103743820Y-117484717D01*
X103915283Y-117656180D01*
X104116903Y-117790898D01*
X104340931Y-117883693D01*
X104578757Y-117931000D01*
X104821243Y-117931000D01*
X105059069Y-117883693D01*
X105283097Y-117790898D01*
X105484717Y-117656180D01*
X105656180Y-117484717D01*
X105790898Y-117283097D01*
X105883693Y-117059069D01*
X105931000Y-116821243D01*
X105931000Y-116578757D01*
X105883693Y-116340931D01*
X105790898Y-116116903D01*
X105656180Y-115915283D01*
X105484717Y-115743820D01*
X105283097Y-115609102D01*
X105059069Y-115516307D01*
X104821243Y-115469000D01*
X104578757Y-115469000D01*
X104340931Y-115516307D01*
X104116903Y-115609102D01*
X103915283Y-115743820D01*
X103743820Y-115915283D01*
X103609102Y-116116903D01*
X103516307Y-116340931D01*
X103469000Y-116578757D01*
X102706000Y-116578757D01*
X102706000Y-109436890D01*
X103258524Y-109436890D01*
X103303175Y-109584099D01*
X103428359Y-109846920D01*
X103602412Y-110080269D01*
X103818645Y-110275178D01*
X103944255Y-110350000D01*
X103818645Y-110424822D01*
X103602412Y-110619731D01*
X103428359Y-110853080D01*
X103303175Y-111115901D01*
X103258524Y-111263110D01*
X103379845Y-111493000D01*
X104573000Y-111493000D01*
X104573000Y-109207000D01*
X103379845Y-109207000D01*
X103258524Y-109436890D01*
X102706000Y-109436890D01*
X102706000Y-106896890D01*
X103258524Y-106896890D01*
X103303175Y-107044099D01*
X103428359Y-107306920D01*
X103602412Y-107540269D01*
X103818645Y-107735178D01*
X103944255Y-107810000D01*
X103818645Y-107884822D01*
X103602412Y-108079731D01*
X103428359Y-108313080D01*
X103303175Y-108575901D01*
X103258524Y-108723110D01*
X103379845Y-108953000D01*
X104573000Y-108953000D01*
X104573000Y-106667000D01*
X103379845Y-106667000D01*
X103258524Y-106896890D01*
X102706000Y-106896890D01*
X102706000Y-104356890D01*
X103258524Y-104356890D01*
X103303175Y-104504099D01*
X103428359Y-104766920D01*
X103602412Y-105000269D01*
X103818645Y-105195178D01*
X103944255Y-105270000D01*
X103818645Y-105344822D01*
X103602412Y-105539731D01*
X103428359Y-105773080D01*
X103303175Y-106035901D01*
X103258524Y-106183110D01*
X103379845Y-106413000D01*
X104573000Y-106413000D01*
X104573000Y-104127000D01*
X103379845Y-104127000D01*
X103258524Y-104356890D01*
X102706000Y-104356890D01*
X102706000Y-101816890D01*
X103258524Y-101816890D01*
X103303175Y-101964099D01*
X103428359Y-102226920D01*
X103602412Y-102460269D01*
X103818645Y-102655178D01*
X103944255Y-102730000D01*
X103818645Y-102804822D01*
X103602412Y-102999731D01*
X103428359Y-103233080D01*
X103303175Y-103495901D01*
X103258524Y-103643110D01*
X103379845Y-103873000D01*
X104573000Y-103873000D01*
X104573000Y-101587000D01*
X103379845Y-101587000D01*
X103258524Y-101816890D01*
X102706000Y-101816890D01*
X102706000Y-99276890D01*
X103258524Y-99276890D01*
X103303175Y-99424099D01*
X103428359Y-99686920D01*
X103602412Y-99920269D01*
X103818645Y-100115178D01*
X103944255Y-100190000D01*
X103818645Y-100264822D01*
X103602412Y-100459731D01*
X103428359Y-100693080D01*
X103303175Y-100955901D01*
X103258524Y-101103110D01*
X103379845Y-101333000D01*
X104573000Y-101333000D01*
X104573000Y-99047000D01*
X103379845Y-99047000D01*
X103258524Y-99276890D01*
X102706000Y-99276890D01*
X102706000Y-90450000D01*
X103211928Y-90450000D01*
X103215000Y-91014250D01*
X103373750Y-91173000D01*
X104573000Y-91173000D01*
X104573000Y-89973750D01*
X104414250Y-89815000D01*
X103850000Y-89811928D01*
X103725518Y-89824188D01*
X103605820Y-89860498D01*
X103495506Y-89919463D01*
X103398815Y-89998815D01*
X103319463Y-90095506D01*
X103260498Y-90205820D01*
X103224188Y-90325518D01*
X103211928Y-90450000D01*
X102706000Y-90450000D01*
X102706000Y-79446890D01*
X103508524Y-79446890D01*
X103553175Y-79594099D01*
X103678359Y-79856920D01*
X103852412Y-80090269D01*
X104068645Y-80285178D01*
X104318748Y-80434157D01*
X104593109Y-80531481D01*
X104823000Y-80410814D01*
X104823000Y-79217000D01*
X105077000Y-79217000D01*
X105077000Y-80410814D01*
X105306891Y-80531481D01*
X105581252Y-80434157D01*
X105831355Y-80285178D01*
X106047588Y-80090269D01*
X106221641Y-79856920D01*
X106346825Y-79594099D01*
X106391476Y-79446890D01*
X106270155Y-79217000D01*
X105077000Y-79217000D01*
X104823000Y-79217000D01*
X103629845Y-79217000D01*
X103508524Y-79446890D01*
X102706000Y-79446890D01*
X102706000Y-77400000D01*
X103461928Y-77400000D01*
X103474188Y-77524482D01*
X103510498Y-77644180D01*
X103569463Y-77754494D01*
X103648815Y-77851185D01*
X103745506Y-77930537D01*
X103855820Y-77989502D01*
X103936466Y-78013966D01*
X103852412Y-78089731D01*
X103678359Y-78323080D01*
X103553175Y-78585901D01*
X103508524Y-78733110D01*
X103629845Y-78963000D01*
X104823000Y-78963000D01*
X104823000Y-76677000D01*
X105077000Y-76677000D01*
X105077000Y-78963000D01*
X106270155Y-78963000D01*
X106391476Y-78733110D01*
X106346825Y-78585901D01*
X106221641Y-78323080D01*
X106047588Y-78089731D01*
X105963534Y-78013966D01*
X106044180Y-77989502D01*
X106154494Y-77930537D01*
X106251185Y-77851185D01*
X106330537Y-77754494D01*
X106389502Y-77644180D01*
X106425812Y-77524482D01*
X106438072Y-77400000D01*
X106435000Y-76835750D01*
X106276250Y-76677000D01*
X105077000Y-76677000D01*
X104823000Y-76677000D01*
X103623750Y-76677000D01*
X103465000Y-76835750D01*
X103461928Y-77400000D01*
X102706000Y-77400000D01*
X102706000Y-75700000D01*
X103461928Y-75700000D01*
X103465000Y-76264250D01*
X103623750Y-76423000D01*
X104823000Y-76423000D01*
X104823000Y-75223750D01*
X105077000Y-75223750D01*
X105077000Y-76423000D01*
X106276250Y-76423000D01*
X106435000Y-76264250D01*
X106438072Y-75700000D01*
X106425812Y-75575518D01*
X106389502Y-75455820D01*
X106330537Y-75345506D01*
X106251185Y-75248815D01*
X106154494Y-75169463D01*
X106044180Y-75110498D01*
X105924482Y-75074188D01*
X105800000Y-75061928D01*
X105235750Y-75065000D01*
X105077000Y-75223750D01*
X104823000Y-75223750D01*
X104664250Y-75065000D01*
X104100000Y-75061928D01*
X103975518Y-75074188D01*
X103855820Y-75110498D01*
X103745506Y-75169463D01*
X103648815Y-75248815D01*
X103569463Y-75345506D01*
X103510498Y-75455820D01*
X103474188Y-75575518D01*
X103461928Y-75700000D01*
X102706000Y-75700000D01*
X102706000Y-72896890D01*
X118333524Y-72896890D01*
X118378175Y-73044099D01*
X118503359Y-73306920D01*
X118677412Y-73540269D01*
X118893645Y-73735178D01*
X119143748Y-73884157D01*
X119418109Y-73981481D01*
X119648000Y-73860814D01*
X119648000Y-72667000D01*
X119902000Y-72667000D01*
X119902000Y-73860814D01*
X120131891Y-73981481D01*
X120406252Y-73884157D01*
X120656355Y-73735178D01*
X120872588Y-73540269D01*
X121046641Y-73306920D01*
X121171825Y-73044099D01*
X121216476Y-72896890D01*
X121095155Y-72667000D01*
X119902000Y-72667000D01*
X119648000Y-72667000D01*
X118454845Y-72667000D01*
X118333524Y-72896890D01*
X102706000Y-72896890D01*
X102706000Y-69000000D01*
X103873000Y-69000000D01*
X103873000Y-70000000D01*
X103875440Y-70024776D01*
X103882667Y-70048601D01*
X103894403Y-70070557D01*
X103910197Y-70089803D01*
X103929443Y-70105597D01*
X103951399Y-70117333D01*
X103975224Y-70124560D01*
X104000000Y-70127000D01*
X105000000Y-70127000D01*
X105024776Y-70124560D01*
X105048601Y-70117333D01*
X105070557Y-70105597D01*
X105089803Y-70089803D01*
X105105597Y-70070557D01*
X105117333Y-70048601D01*
X105124560Y-70024776D01*
X105127000Y-70000000D01*
X105127000Y-69000000D01*
X105124560Y-68975224D01*
X105117333Y-68951399D01*
X105105597Y-68929443D01*
X105089803Y-68910197D01*
X105070557Y-68894403D01*
X105048601Y-68882667D01*
X105024776Y-68875440D01*
X105020309Y-68875000D01*
X107917157Y-68875000D01*
X107917157Y-71875000D01*
X107924513Y-71949689D01*
X107946299Y-72021508D01*
X107981678Y-72087696D01*
X108029289Y-72145711D01*
X108087304Y-72193322D01*
X108153492Y-72228701D01*
X108225311Y-72250487D01*
X108300000Y-72257843D01*
X111300000Y-72257843D01*
X111374689Y-72250487D01*
X111446508Y-72228701D01*
X111512696Y-72193322D01*
X111570711Y-72145711D01*
X111618322Y-72087696D01*
X111653701Y-72021508D01*
X111675487Y-71949689D01*
X111682843Y-71875000D01*
X111682843Y-71866653D01*
X113567952Y-71866653D01*
X113723962Y-72182214D01*
X114098745Y-72373020D01*
X114503551Y-72487044D01*
X114922824Y-72519902D01*
X115340451Y-72470334D01*
X115740383Y-72340243D01*
X116036038Y-72182214D01*
X116192048Y-71866653D01*
X114880000Y-70554605D01*
X113567952Y-71866653D01*
X111682843Y-71866653D01*
X111682843Y-70417824D01*
X112735098Y-70417824D01*
X112784666Y-70835451D01*
X112914757Y-71235383D01*
X113072786Y-71531038D01*
X113388347Y-71687048D01*
X114700395Y-70375000D01*
X115059605Y-70375000D01*
X116371653Y-71687048D01*
X116687214Y-71531038D01*
X116878020Y-71156255D01*
X116964284Y-70850000D01*
X118286928Y-70850000D01*
X118299188Y-70974482D01*
X118335498Y-71094180D01*
X118394463Y-71204494D01*
X118473815Y-71301185D01*
X118570506Y-71380537D01*
X118680820Y-71439502D01*
X118761466Y-71463966D01*
X118677412Y-71539731D01*
X118503359Y-71773080D01*
X118378175Y-72035901D01*
X118333524Y-72183110D01*
X118454845Y-72413000D01*
X119648000Y-72413000D01*
X119648000Y-70127000D01*
X119902000Y-70127000D01*
X119902000Y-72413000D01*
X121095155Y-72413000D01*
X121216476Y-72183110D01*
X121171825Y-72035901D01*
X121046641Y-71773080D01*
X120872588Y-71539731D01*
X120788534Y-71463966D01*
X120869180Y-71439502D01*
X120979494Y-71380537D01*
X121076185Y-71301185D01*
X121155537Y-71204494D01*
X121214502Y-71094180D01*
X121250812Y-70974482D01*
X121263072Y-70850000D01*
X121260000Y-70285750D01*
X121101250Y-70127000D01*
X119902000Y-70127000D01*
X119648000Y-70127000D01*
X118448750Y-70127000D01*
X118290000Y-70285750D01*
X118286928Y-70850000D01*
X116964284Y-70850000D01*
X116992044Y-70751449D01*
X117024902Y-70332176D01*
X116975334Y-69914549D01*
X116845243Y-69514617D01*
X116687214Y-69218962D01*
X116547725Y-69150000D01*
X118286928Y-69150000D01*
X118290000Y-69714250D01*
X118448750Y-69873000D01*
X119648000Y-69873000D01*
X119648000Y-68673750D01*
X119902000Y-68673750D01*
X119902000Y-69873000D01*
X121101250Y-69873000D01*
X121260000Y-69714250D01*
X121263072Y-69150000D01*
X121250812Y-69025518D01*
X121214502Y-68905820D01*
X121155537Y-68795506D01*
X121076185Y-68698815D01*
X120979494Y-68619463D01*
X120869180Y-68560498D01*
X120749482Y-68524188D01*
X120625000Y-68511928D01*
X120060750Y-68515000D01*
X119902000Y-68673750D01*
X119648000Y-68673750D01*
X119489250Y-68515000D01*
X118925000Y-68511928D01*
X118800518Y-68524188D01*
X118680820Y-68560498D01*
X118570506Y-68619463D01*
X118473815Y-68698815D01*
X118394463Y-68795506D01*
X118335498Y-68905820D01*
X118299188Y-69025518D01*
X118286928Y-69150000D01*
X116547725Y-69150000D01*
X116371653Y-69062952D01*
X115059605Y-70375000D01*
X114700395Y-70375000D01*
X113388347Y-69062952D01*
X113072786Y-69218962D01*
X112881980Y-69593745D01*
X112767956Y-69998551D01*
X112735098Y-70417824D01*
X111682843Y-70417824D01*
X111682843Y-68883347D01*
X113567952Y-68883347D01*
X114880000Y-70195395D01*
X116192048Y-68883347D01*
X116036038Y-68567786D01*
X115661255Y-68376980D01*
X115256449Y-68262956D01*
X114837176Y-68230098D01*
X114419549Y-68279666D01*
X114019617Y-68409757D01*
X113723962Y-68567786D01*
X113567952Y-68883347D01*
X111682843Y-68883347D01*
X111682843Y-68875000D01*
X111675487Y-68800311D01*
X111653701Y-68728492D01*
X111618322Y-68662304D01*
X111570711Y-68604289D01*
X111512696Y-68556678D01*
X111446508Y-68521299D01*
X111374689Y-68499513D01*
X111300000Y-68492157D01*
X108300000Y-68492157D01*
X108225311Y-68499513D01*
X108153492Y-68521299D01*
X108087304Y-68556678D01*
X108029289Y-68604289D01*
X107981678Y-68662304D01*
X107946299Y-68728492D01*
X107924513Y-68800311D01*
X107917157Y-68875000D01*
X105020309Y-68875000D01*
X105000000Y-68873000D01*
X104000000Y-68873000D01*
X103975224Y-68875440D01*
X103951399Y-68882667D01*
X103929443Y-68894403D01*
X103910197Y-68910197D01*
X103894403Y-68929443D01*
X103882667Y-68951399D01*
X103875440Y-68975224D01*
X103873000Y-69000000D01*
X102706000Y-69000000D01*
X102706000Y-68040134D01*
X102809135Y-68082854D01*
X103001787Y-68121175D01*
X103198213Y-68121175D01*
X103390865Y-68082854D01*
X103572340Y-68007685D01*
X103735662Y-67898556D01*
X103874556Y-67759662D01*
X103983685Y-67596340D01*
X104058854Y-67414865D01*
X104097175Y-67222213D01*
X104097175Y-67025787D01*
X104058854Y-66833135D01*
X104006193Y-66706000D01*
X121780147Y-66706000D01*
X121817881Y-66709700D01*
%TA.AperFunction,Conductor*%
D20*
G36*
X121817881Y-66709700D02*
G01*
X121835078Y-66714892D01*
X121850943Y-66723328D01*
X121864861Y-66734680D01*
X121876317Y-66748528D01*
X121884861Y-66764330D01*
X121890173Y-66781489D01*
X121894000Y-66817901D01*
X121894000Y-76207179D01*
X121798556Y-76064338D01*
X121659662Y-75925444D01*
X121496340Y-75816315D01*
X121314865Y-75741146D01*
X121122213Y-75702825D01*
X120925787Y-75702825D01*
X120733135Y-75741146D01*
X120551660Y-75816315D01*
X120388338Y-75925444D01*
X120249444Y-76064338D01*
X120140315Y-76227660D01*
X120065146Y-76409135D01*
X120026825Y-76601787D01*
X120026825Y-76798213D01*
X120065146Y-76990865D01*
X120140315Y-77172340D01*
X120249444Y-77335662D01*
X120388338Y-77474556D01*
X120551660Y-77583685D01*
X120733135Y-77658854D01*
X120925787Y-77697175D01*
X121122213Y-77697175D01*
X121314865Y-77658854D01*
X121496340Y-77583685D01*
X121659662Y-77474556D01*
X121798556Y-77335662D01*
X121894000Y-77192821D01*
X121894001Y-119362150D01*
X121770865Y-119311146D01*
X121578213Y-119272825D01*
X121381787Y-119272825D01*
X121189135Y-119311146D01*
X121171000Y-119318658D01*
X121171000Y-119118757D01*
X121123693Y-118880931D01*
X121030898Y-118656903D01*
X120896180Y-118455283D01*
X120724717Y-118283820D01*
X120523097Y-118149102D01*
X120299069Y-118056307D01*
X120061243Y-118009000D01*
X119818757Y-118009000D01*
X119580931Y-118056307D01*
X119356903Y-118149102D01*
X119155283Y-118283820D01*
X118983820Y-118455283D01*
X118849102Y-118656903D01*
X118756307Y-118880931D01*
X118709000Y-119118757D01*
X118709000Y-119361243D01*
X118756307Y-119599069D01*
X118849102Y-119823097D01*
X118983820Y-120024717D01*
X119155283Y-120196180D01*
X119356903Y-120330898D01*
X119580931Y-120423693D01*
X119818757Y-120471000D01*
X120061243Y-120471000D01*
X120299069Y-120423693D01*
X120482825Y-120347579D01*
X120482825Y-120368213D01*
X120521146Y-120560865D01*
X120576292Y-120694000D01*
X109861448Y-120694000D01*
X109896302Y-120670711D01*
X109980711Y-120586302D01*
X110047030Y-120487049D01*
X110092712Y-120376764D01*
X110112387Y-120277849D01*
X110755217Y-119635020D01*
X114016019Y-119635020D01*
X114039645Y-119637347D01*
X114063271Y-119635020D01*
X114070196Y-119634338D01*
X114133937Y-119628060D01*
X114224606Y-119600556D01*
X114307977Y-119555994D01*
X114334641Y-119582658D01*
X114433894Y-119648977D01*
X114544179Y-119694659D01*
X114661257Y-119717947D01*
X114780629Y-119717947D01*
X114897707Y-119694659D01*
X115007992Y-119648977D01*
X115025998Y-119636946D01*
X115322280Y-119636946D01*
X115345906Y-119639273D01*
X115369532Y-119636946D01*
X115396012Y-119634338D01*
X115440198Y-119629986D01*
X115446547Y-119628060D01*
X115530867Y-119602482D01*
X115614428Y-119557818D01*
X115687670Y-119497710D01*
X115702736Y-119479353D01*
X116058586Y-119123503D01*
X116076939Y-119108441D01*
X116137047Y-119035199D01*
X116181711Y-118951638D01*
X116209215Y-118860969D01*
X116216175Y-118790302D01*
X116216175Y-118790294D01*
X116218501Y-118766678D01*
X116217641Y-118757945D01*
X117016999Y-117958587D01*
X118004499Y-116971088D01*
X118004503Y-116971083D01*
X118842327Y-116133260D01*
X118756307Y-116340931D01*
X118709000Y-116578757D01*
X118709000Y-116821243D01*
X118756307Y-117059069D01*
X118849102Y-117283097D01*
X118983820Y-117484717D01*
X119155283Y-117656180D01*
X119356903Y-117790898D01*
X119580931Y-117883693D01*
X119818757Y-117931000D01*
X120061243Y-117931000D01*
X120299069Y-117883693D01*
X120523097Y-117790898D01*
X120724717Y-117656180D01*
X120896180Y-117484717D01*
X121030898Y-117283097D01*
X121123693Y-117059069D01*
X121171000Y-116821243D01*
X121171000Y-116578757D01*
X121123693Y-116340931D01*
X121030898Y-116116903D01*
X120906272Y-115930387D01*
X121667422Y-115169238D01*
X121685775Y-115154176D01*
X121745883Y-115080934D01*
X121790547Y-114997373D01*
X121814411Y-114918704D01*
X121818051Y-114906705D01*
X121827338Y-114812413D01*
X121825011Y-114788786D01*
X121825011Y-98753675D01*
X121827338Y-98730048D01*
X121818051Y-98635756D01*
X121801621Y-98581594D01*
X121790547Y-98545088D01*
X121745883Y-98461527D01*
X121685775Y-98388285D01*
X121667422Y-98373224D01*
X120813791Y-97519593D01*
X120798725Y-97501235D01*
X120725483Y-97441127D01*
X120641922Y-97396463D01*
X120636815Y-97394914D01*
X120724717Y-97336180D01*
X120896180Y-97164717D01*
X121030898Y-96963097D01*
X121123693Y-96739069D01*
X121171000Y-96501243D01*
X121171000Y-96258757D01*
X121123693Y-96020931D01*
X121030898Y-95796903D01*
X120896180Y-95595283D01*
X120724717Y-95423820D01*
X120523097Y-95289102D01*
X120299069Y-95196307D01*
X120061243Y-95149000D01*
X119818757Y-95149000D01*
X119580931Y-95196307D01*
X119356903Y-95289102D01*
X119155283Y-95423820D01*
X118983820Y-95595283D01*
X118849102Y-95796903D01*
X118756307Y-96020931D01*
X118709000Y-96258757D01*
X118709000Y-96501243D01*
X118756307Y-96739069D01*
X118849102Y-96963097D01*
X118983820Y-97164717D01*
X119155283Y-97336180D01*
X119243185Y-97394914D01*
X119238078Y-97396463D01*
X119154517Y-97441127D01*
X119081275Y-97501235D01*
X119066214Y-97519587D01*
X117396811Y-99188991D01*
X116127543Y-99188991D01*
X116086119Y-99147567D01*
X116086979Y-99138834D01*
X116077692Y-99044541D01*
X116063600Y-98998086D01*
X116050188Y-98953873D01*
X116005524Y-98870312D01*
X115945416Y-98797070D01*
X115927058Y-98782004D01*
X115725442Y-98580388D01*
X115710376Y-98562030D01*
X115637134Y-98501922D01*
X115553573Y-98457258D01*
X115462904Y-98429754D01*
X115392238Y-98422794D01*
X115368612Y-98420467D01*
X115344986Y-98422794D01*
X114812687Y-98422794D01*
X114756031Y-98399326D01*
X114638953Y-98376038D01*
X114519581Y-98376038D01*
X114402503Y-98399326D01*
X114292218Y-98445008D01*
X114192965Y-98511327D01*
X114108556Y-98595736D01*
X114042237Y-98694989D01*
X113996555Y-98805274D01*
X113973267Y-98922352D01*
X113973267Y-99041724D01*
X113996555Y-99158802D01*
X114042237Y-99269087D01*
X114108556Y-99368340D01*
X114192965Y-99452749D01*
X114292218Y-99519068D01*
X114402503Y-99564750D01*
X114519581Y-99588038D01*
X114591919Y-99588038D01*
X114614621Y-99642844D01*
X114680940Y-99742097D01*
X114765349Y-99826506D01*
X114864602Y-99892825D01*
X114974887Y-99938507D01*
X115073802Y-99958182D01*
X115436031Y-100320412D01*
X115451093Y-100338765D01*
X115524335Y-100398873D01*
X115607896Y-100443537D01*
X115698565Y-100471041D01*
X115769231Y-100478001D01*
X115769232Y-100478001D01*
X115792856Y-100480328D01*
X115816480Y-100478001D01*
X118828785Y-100478001D01*
X118668359Y-100693080D01*
X118543175Y-100955901D01*
X118498524Y-101103110D01*
X118619845Y-101333000D01*
X119813000Y-101333000D01*
X119813000Y-101313000D01*
X120067000Y-101313000D01*
X120067000Y-101333000D01*
X120087000Y-101333000D01*
X120087000Y-101587000D01*
X120067000Y-101587000D01*
X120067000Y-103873000D01*
X120087000Y-103873000D01*
X120087000Y-104127000D01*
X120067000Y-104127000D01*
X120067000Y-104147000D01*
X119813000Y-104147000D01*
X119813000Y-104127000D01*
X119182782Y-104127000D01*
X119104924Y-104074977D01*
X118994639Y-104029295D01*
X118877561Y-104006007D01*
X118758189Y-104006007D01*
X118641111Y-104029295D01*
X118530826Y-104074977D01*
X118431573Y-104141296D01*
X118347164Y-104225705D01*
X118280845Y-104324958D01*
X118235163Y-104435243D01*
X118220622Y-104508348D01*
X118173372Y-104527920D01*
X118074119Y-104594239D01*
X117989710Y-104678648D01*
X117923391Y-104777901D01*
X117894039Y-104848763D01*
X117846048Y-104858309D01*
X117735763Y-104903991D01*
X117636510Y-104970310D01*
X117552101Y-105054719D01*
X117485782Y-105153972D01*
X117440100Y-105264257D01*
X117416812Y-105381335D01*
X117416812Y-105500707D01*
X117440100Y-105617785D01*
X117485782Y-105728070D01*
X117541812Y-105811925D01*
X117541813Y-107439177D01*
X117541812Y-107439187D01*
X117541813Y-111402723D01*
X117517093Y-111343045D01*
X117450774Y-111243792D01*
X117366365Y-111159383D01*
X117267112Y-111093064D01*
X117266000Y-111092603D01*
X117266000Y-111090314D01*
X117242712Y-110973236D01*
X117197030Y-110862951D01*
X117130711Y-110763698D01*
X117046302Y-110679289D01*
X116947049Y-110612970D01*
X116836764Y-110567288D01*
X116719686Y-110544000D01*
X116600314Y-110544000D01*
X116483236Y-110567288D01*
X116372951Y-110612970D01*
X116273698Y-110679289D01*
X116189289Y-110763698D01*
X116122970Y-110862951D01*
X116077288Y-110973236D01*
X116054000Y-111090314D01*
X116054000Y-111187869D01*
X116044735Y-111281938D01*
X116047062Y-111305564D01*
X116047062Y-111681407D01*
X115984686Y-111669000D01*
X115865314Y-111669000D01*
X115748236Y-111692288D01*
X115637951Y-111737970D01*
X115538698Y-111804289D01*
X115454289Y-111888698D01*
X115422322Y-111936539D01*
X115387049Y-111912970D01*
X115276764Y-111867288D01*
X115159686Y-111844000D01*
X115040314Y-111844000D01*
X114923236Y-111867288D01*
X114812951Y-111912970D01*
X114766513Y-111943999D01*
X114140361Y-111943999D01*
X114223536Y-111888423D01*
X114307945Y-111804014D01*
X114374264Y-111704761D01*
X114419946Y-111594476D01*
X114433293Y-111527375D01*
X114492761Y-111502742D01*
X114592014Y-111436423D01*
X114676423Y-111352014D01*
X114742742Y-111252761D01*
X114788424Y-111142476D01*
X114811712Y-111025398D01*
X114811712Y-110906026D01*
X114788424Y-110788948D01*
X114742742Y-110678663D01*
X114676423Y-110579410D01*
X114592014Y-110495001D01*
X114492761Y-110428682D01*
X114382476Y-110383000D01*
X114265398Y-110359712D01*
X114146026Y-110359712D01*
X114028948Y-110383000D01*
X113918663Y-110428682D01*
X113834809Y-110484712D01*
X109899452Y-110484712D01*
X109807049Y-110422970D01*
X109696764Y-110377288D01*
X109579686Y-110354000D01*
X109460314Y-110354000D01*
X109343236Y-110377288D01*
X109232951Y-110422970D01*
X109133698Y-110489289D01*
X109049289Y-110573698D01*
X108982970Y-110672951D01*
X108937288Y-110783236D01*
X108914000Y-110900314D01*
X108914000Y-110936712D01*
X108571217Y-110936712D01*
X108547591Y-110934385D01*
X108453298Y-110943672D01*
X108425794Y-110952016D01*
X108362630Y-110971176D01*
X108279069Y-111015840D01*
X108205827Y-111075948D01*
X108190761Y-111094306D01*
X108187668Y-111097399D01*
X108088753Y-111117074D01*
X107978468Y-111162756D01*
X107879215Y-111229075D01*
X107794806Y-111313484D01*
X107728487Y-111412737D01*
X107682805Y-111523022D01*
X107659517Y-111640100D01*
X107659517Y-111759472D01*
X107682805Y-111876550D01*
X107710744Y-111943999D01*
X107409591Y-111943999D01*
X107322642Y-111857050D01*
X107322642Y-104882126D01*
X111399161Y-108958645D01*
X111399161Y-109065910D01*
X111396834Y-109089536D01*
X111399161Y-109113161D01*
X111399161Y-109113162D01*
X111406121Y-109183828D01*
X111433626Y-109274497D01*
X111478290Y-109358058D01*
X111538398Y-109431300D01*
X111556750Y-109446361D01*
X111654850Y-109544461D01*
X111669916Y-109562819D01*
X111743158Y-109622927D01*
X111826719Y-109667591D01*
X111896285Y-109688693D01*
X111917387Y-109695095D01*
X111953947Y-109698696D01*
X112042829Y-109758085D01*
X112153114Y-109803767D01*
X112270192Y-109827055D01*
X112389564Y-109827055D01*
X112506642Y-109803767D01*
X112616927Y-109758085D01*
X112716180Y-109691766D01*
X112800589Y-109607357D01*
X112866908Y-109508104D01*
X112912590Y-109397819D01*
X112935878Y-109280741D01*
X112935878Y-109161369D01*
X112912590Y-109044291D01*
X112867041Y-108934327D01*
X112869192Y-108931107D01*
X112914874Y-108820822D01*
X112938162Y-108703744D01*
X112938162Y-108584372D01*
X112914874Y-108467294D01*
X112869192Y-108357009D01*
X112863768Y-108348892D01*
X112907270Y-108243870D01*
X112930558Y-108126792D01*
X112930558Y-108007420D01*
X112907270Y-107890342D01*
X112861588Y-107780057D01*
X112795269Y-107680804D01*
X112710860Y-107596395D01*
X112611607Y-107530076D01*
X112501322Y-107484394D01*
X112384244Y-107461106D01*
X112315939Y-107461106D01*
X111455702Y-106600869D01*
X111492269Y-106564302D01*
X111558588Y-106465049D01*
X111604270Y-106354764D01*
X111615855Y-106296520D01*
X111687049Y-106267030D01*
X111786302Y-106200711D01*
X111870711Y-106116302D01*
X111937030Y-106017049D01*
X111982712Y-105906764D01*
X112006000Y-105789686D01*
X112006000Y-105670314D01*
X112004747Y-105664013D01*
X112643679Y-106302946D01*
X112643679Y-106377592D01*
X112587648Y-106461447D01*
X112541966Y-106571732D01*
X112518678Y-106688810D01*
X112518678Y-106808182D01*
X112541966Y-106925260D01*
X112587648Y-107035545D01*
X112653967Y-107134798D01*
X112738376Y-107219207D01*
X112837629Y-107285526D01*
X112947914Y-107331208D01*
X113064992Y-107354496D01*
X113184364Y-107354496D01*
X113301442Y-107331208D01*
X113411727Y-107285526D01*
X113510980Y-107219207D01*
X113595389Y-107134798D01*
X113661708Y-107035545D01*
X113707390Y-106925260D01*
X113730678Y-106808182D01*
X113730678Y-106688810D01*
X113707390Y-106571732D01*
X113661708Y-106461447D01*
X113605678Y-106377593D01*
X113605678Y-106127331D01*
X113608005Y-106103707D01*
X113604859Y-106071764D01*
X113598718Y-106009416D01*
X113571214Y-105918747D01*
X113526550Y-105835186D01*
X113466442Y-105761944D01*
X113448090Y-105746883D01*
X111945966Y-104244760D01*
X111945966Y-101816890D01*
X118498524Y-101816890D01*
X118543175Y-101964099D01*
X118668359Y-102226920D01*
X118842412Y-102460269D01*
X119058645Y-102655178D01*
X119184255Y-102730000D01*
X119058645Y-102804822D01*
X118842412Y-102999731D01*
X118668359Y-103233080D01*
X118543175Y-103495901D01*
X118498524Y-103643110D01*
X118619845Y-103873000D01*
X119813000Y-103873000D01*
X119813000Y-101587000D01*
X118619845Y-101587000D01*
X118498524Y-101816890D01*
X111945966Y-101816890D01*
X111945966Y-97398592D01*
X111948293Y-97374965D01*
X111939006Y-97280673D01*
X111923082Y-97228179D01*
X111911502Y-97190005D01*
X111866838Y-97106444D01*
X111806730Y-97033202D01*
X111788378Y-97018141D01*
X111039841Y-96269604D01*
X111133069Y-96230987D01*
X111216923Y-96174957D01*
X112165941Y-96174957D01*
X112189567Y-96177284D01*
X112213193Y-96174957D01*
X112283859Y-96167997D01*
X112374528Y-96140493D01*
X112458089Y-96095829D01*
X112531331Y-96035721D01*
X112546397Y-96017363D01*
X113566870Y-94996890D01*
X114508524Y-94996890D01*
X114553175Y-95144099D01*
X114678359Y-95406920D01*
X114852412Y-95640269D01*
X115068645Y-95835178D01*
X115318748Y-95984157D01*
X115593109Y-96081481D01*
X115823000Y-95960814D01*
X115823000Y-94767000D01*
X116077000Y-94767000D01*
X116077000Y-95960814D01*
X116306891Y-96081481D01*
X116581252Y-95984157D01*
X116831355Y-95835178D01*
X117047588Y-95640269D01*
X117221641Y-95406920D01*
X117346825Y-95144099D01*
X117391476Y-94996890D01*
X117270155Y-94767000D01*
X116077000Y-94767000D01*
X115823000Y-94767000D01*
X114629845Y-94767000D01*
X114508524Y-94996890D01*
X113566870Y-94996890D01*
X114487468Y-94076292D01*
X114505826Y-94061226D01*
X114565934Y-93987984D01*
X114599185Y-93925775D01*
X114610598Y-93904424D01*
X114638102Y-93813755D01*
X114647389Y-93719462D01*
X114645062Y-93695836D01*
X114645062Y-93396612D01*
X114648815Y-93401185D01*
X114745506Y-93480537D01*
X114855820Y-93539502D01*
X114936466Y-93563966D01*
X114852412Y-93639731D01*
X114678359Y-93873080D01*
X114553175Y-94135901D01*
X114508524Y-94283110D01*
X114629845Y-94513000D01*
X115823000Y-94513000D01*
X115823000Y-92227000D01*
X116077000Y-92227000D01*
X116077000Y-94513000D01*
X117270155Y-94513000D01*
X117391476Y-94283110D01*
X117346825Y-94135901D01*
X117221641Y-93873080D01*
X117047588Y-93639731D01*
X116963534Y-93563966D01*
X117044180Y-93539502D01*
X117154494Y-93480537D01*
X117251185Y-93401185D01*
X117330537Y-93304494D01*
X117389502Y-93194180D01*
X117425812Y-93074482D01*
X117438072Y-92950000D01*
X117435000Y-92385750D01*
X117276250Y-92227000D01*
X116077000Y-92227000D01*
X115823000Y-92227000D01*
X115803000Y-92227000D01*
X115803000Y-92150000D01*
X118451928Y-92150000D01*
X118464188Y-92274482D01*
X118500498Y-92394180D01*
X118559463Y-92504494D01*
X118638815Y-92601185D01*
X118735506Y-92680537D01*
X118845820Y-92739502D01*
X118965518Y-92775812D01*
X119090000Y-92788072D01*
X119300294Y-92786927D01*
X119155283Y-92883820D01*
X118983820Y-93055283D01*
X118849102Y-93256903D01*
X118756307Y-93480931D01*
X118709000Y-93718757D01*
X118709000Y-93961243D01*
X118756307Y-94199069D01*
X118849102Y-94423097D01*
X118983820Y-94624717D01*
X119155283Y-94796180D01*
X119356903Y-94930898D01*
X119580931Y-95023693D01*
X119818757Y-95071000D01*
X120061243Y-95071000D01*
X120299069Y-95023693D01*
X120523097Y-94930898D01*
X120724717Y-94796180D01*
X120896180Y-94624717D01*
X121030898Y-94423097D01*
X121123693Y-94199069D01*
X121171000Y-93961243D01*
X121171000Y-93718757D01*
X121123693Y-93480931D01*
X121030898Y-93256903D01*
X120896180Y-93055283D01*
X120724717Y-92883820D01*
X120579706Y-92786927D01*
X120790000Y-92788072D01*
X120914482Y-92775812D01*
X121034180Y-92739502D01*
X121144494Y-92680537D01*
X121241185Y-92601185D01*
X121320537Y-92504494D01*
X121379502Y-92394180D01*
X121415812Y-92274482D01*
X121428072Y-92150000D01*
X121425000Y-91585750D01*
X121266250Y-91427000D01*
X120067000Y-91427000D01*
X120067000Y-91447000D01*
X119813000Y-91447000D01*
X119813000Y-91427000D01*
X118613750Y-91427000D01*
X118455000Y-91585750D01*
X118451928Y-92150000D01*
X115803000Y-92150000D01*
X115803000Y-91973000D01*
X115823000Y-91973000D01*
X115823000Y-90773750D01*
X116077000Y-90773750D01*
X116077000Y-91973000D01*
X117276250Y-91973000D01*
X117435000Y-91814250D01*
X117438072Y-91250000D01*
X117425812Y-91125518D01*
X117389502Y-91005820D01*
X117330537Y-90895506D01*
X117251185Y-90798815D01*
X117154494Y-90719463D01*
X117044180Y-90660498D01*
X116924482Y-90624188D01*
X116800000Y-90611928D01*
X116235750Y-90615000D01*
X116077000Y-90773750D01*
X115823000Y-90773750D01*
X115664250Y-90615000D01*
X115100000Y-90611928D01*
X114975518Y-90624188D01*
X114855820Y-90660498D01*
X114745506Y-90719463D01*
X114648815Y-90798815D01*
X114645062Y-90803388D01*
X114645062Y-90450000D01*
X118451928Y-90450000D01*
X118455000Y-91014250D01*
X118613750Y-91173000D01*
X119813000Y-91173000D01*
X119813000Y-89973750D01*
X120067000Y-89973750D01*
X120067000Y-91173000D01*
X121266250Y-91173000D01*
X121425000Y-91014250D01*
X121428072Y-90450000D01*
X121415812Y-90325518D01*
X121379502Y-90205820D01*
X121320537Y-90095506D01*
X121241185Y-89998815D01*
X121144494Y-89919463D01*
X121034180Y-89860498D01*
X120914482Y-89824188D01*
X120790000Y-89811928D01*
X120225750Y-89815000D01*
X120067000Y-89973750D01*
X119813000Y-89973750D01*
X119654250Y-89815000D01*
X119090000Y-89811928D01*
X118965518Y-89824188D01*
X118845820Y-89860498D01*
X118735506Y-89919463D01*
X118638815Y-89998815D01*
X118559463Y-90095506D01*
X118500498Y-90205820D01*
X118464188Y-90325518D01*
X118451928Y-90450000D01*
X114645062Y-90450000D01*
X114645062Y-87927689D01*
X114647389Y-87904062D01*
X114638102Y-87809769D01*
X114610598Y-87719100D01*
X114580607Y-87662991D01*
X114565934Y-87635540D01*
X114505826Y-87562298D01*
X114487468Y-87547232D01*
X114137772Y-87197536D01*
X114122706Y-87179178D01*
X114049464Y-87119070D01*
X113965903Y-87074406D01*
X113875234Y-87046902D01*
X113804568Y-87039942D01*
X113780942Y-87037615D01*
X113757316Y-87039942D01*
X106731848Y-87039942D01*
X106647994Y-86983912D01*
X106537709Y-86938230D01*
X106420631Y-86914942D01*
X106301259Y-86914942D01*
X106184181Y-86938230D01*
X106073896Y-86983912D01*
X105974643Y-87050231D01*
X105890234Y-87134640D01*
X105823915Y-87233893D01*
X105778233Y-87344178D01*
X105754945Y-87461256D01*
X105754945Y-87580628D01*
X105778233Y-87697706D01*
X105818802Y-87795647D01*
X105110670Y-87795647D01*
X105026816Y-87739617D01*
X104916531Y-87693935D01*
X104799453Y-87670647D01*
X104680081Y-87670647D01*
X104563003Y-87693935D01*
X104452718Y-87739617D01*
X104353465Y-87805936D01*
X104269056Y-87890345D01*
X104202737Y-87989598D01*
X104157055Y-88099883D01*
X104133767Y-88216961D01*
X104133767Y-88336333D01*
X104157055Y-88453411D01*
X104192211Y-88538285D01*
X104173778Y-88565873D01*
X104128096Y-88676158D01*
X104104808Y-88793236D01*
X104104808Y-88912608D01*
X104128096Y-89029686D01*
X104173778Y-89139971D01*
X104240097Y-89239224D01*
X104324506Y-89323633D01*
X104423759Y-89389952D01*
X104534044Y-89435634D01*
X104651122Y-89458922D01*
X104770494Y-89458922D01*
X104887572Y-89435634D01*
X104997857Y-89389952D01*
X105081712Y-89333921D01*
X106085164Y-89333920D01*
X106069772Y-89384660D01*
X106060642Y-89477360D01*
X106060642Y-90071264D01*
X106001185Y-89998815D01*
X105904494Y-89919463D01*
X105794180Y-89860498D01*
X105674482Y-89824188D01*
X105550000Y-89811928D01*
X104985750Y-89815000D01*
X104827000Y-89973750D01*
X104827000Y-91173000D01*
X104847000Y-91173000D01*
X104847000Y-91427000D01*
X104827000Y-91427000D01*
X104827000Y-91447000D01*
X104573000Y-91447000D01*
X104573000Y-91427000D01*
X103373750Y-91427000D01*
X103215000Y-91585750D01*
X103211928Y-92150000D01*
X103224188Y-92274482D01*
X103260498Y-92394180D01*
X103319463Y-92504494D01*
X103398815Y-92601185D01*
X103495506Y-92680537D01*
X103605820Y-92739502D01*
X103725518Y-92775812D01*
X103850000Y-92788072D01*
X104060294Y-92786927D01*
X103915283Y-92883820D01*
X103743820Y-93055283D01*
X103609102Y-93256903D01*
X103516307Y-93480931D01*
X103469000Y-93718757D01*
X103469000Y-93961243D01*
X103516307Y-94199069D01*
X103609102Y-94423097D01*
X103743820Y-94624717D01*
X103915283Y-94796180D01*
X104116903Y-94930898D01*
X104340931Y-95023693D01*
X104578757Y-95071000D01*
X104821243Y-95071000D01*
X105002564Y-95034933D01*
X105238091Y-95270460D01*
X105059069Y-95196307D01*
X104821243Y-95149000D01*
X104578757Y-95149000D01*
X104340931Y-95196307D01*
X104116903Y-95289102D01*
X103915283Y-95423820D01*
X103743820Y-95595283D01*
X103609102Y-95796903D01*
X103516307Y-96020931D01*
X103469000Y-96258757D01*
X103469000Y-96501243D01*
X103516307Y-96739069D01*
X103609102Y-96963097D01*
X103743820Y-97164717D01*
X103915283Y-97336180D01*
X104116903Y-97470898D01*
X104231168Y-97518228D01*
X104068748Y-97575843D01*
X103818645Y-97724822D01*
X103602412Y-97919731D01*
X103428359Y-98153080D01*
X103303175Y-98415901D01*
X103258524Y-98563110D01*
X103379845Y-98793000D01*
X104573000Y-98793000D01*
X104573000Y-98773000D01*
X104827000Y-98773000D01*
X104827000Y-98793000D01*
X104847000Y-98793000D01*
X104847000Y-99047000D01*
X104827000Y-99047000D01*
X104827000Y-101333000D01*
X104847000Y-101333000D01*
X104847000Y-101587000D01*
X104827000Y-101587000D01*
X104827000Y-103873000D01*
X104847000Y-103873000D01*
X104847000Y-104127000D01*
X104827000Y-104127000D01*
X104827000Y-106413000D01*
X104847000Y-106413000D01*
X104847000Y-106667000D01*
X104827000Y-106667000D01*
X104827000Y-108953000D01*
X104847000Y-108953000D01*
X104847000Y-109207000D01*
X104827000Y-109207000D01*
X104827000Y-111493000D01*
X104847000Y-111493000D01*
X104847000Y-111747000D01*
X104827000Y-111747000D01*
X104827000Y-111767000D01*
X104573000Y-111767000D01*
X104573000Y-111747000D01*
X103379845Y-111747000D01*
X103258524Y-111976890D01*
X103303175Y-112124099D01*
X103428359Y-112386920D01*
X103602412Y-112620269D01*
X103818645Y-112815178D01*
X104068748Y-112964157D01*
X104231168Y-113021772D01*
X104116903Y-113069102D01*
X103915283Y-113203820D01*
X103743820Y-113375283D01*
X103609102Y-113576903D01*
X103516307Y-113800931D01*
X103469000Y-114038757D01*
X103469000Y-114281243D01*
X103516307Y-114519069D01*
X103609102Y-114743097D01*
X103743820Y-114944717D01*
X103915283Y-115116180D01*
X104116903Y-115250898D01*
X104340931Y-115343693D01*
X104578757Y-115391000D01*
X104821243Y-115391000D01*
X105059069Y-115343693D01*
X105283097Y-115250898D01*
X105484717Y-115116180D01*
X105656180Y-114944717D01*
X105790898Y-114743097D01*
X105883693Y-114519069D01*
X105931000Y-114281243D01*
X105931000Y-114038757D01*
X105883693Y-113800931D01*
X105790898Y-113576903D01*
X105656180Y-113375283D01*
X105484717Y-113203820D01*
X105283097Y-113069102D01*
X105168832Y-113021772D01*
X105331252Y-112964157D01*
X105581355Y-112815178D01*
X105797588Y-112620269D01*
X105971641Y-112386920D01*
X106060642Y-112200064D01*
X106060642Y-113777361D01*
X106060643Y-116460635D01*
X106060642Y-116460645D01*
X106060643Y-120160635D01*
X106060642Y-120160645D01*
X106060642Y-120572640D01*
X106069772Y-120665340D01*
X106078466Y-120694000D01*
X104139566Y-120694000D01*
X104198854Y-120550865D01*
X104233040Y-120379003D01*
X104340931Y-120423693D01*
X104578757Y-120471000D01*
X104821243Y-120471000D01*
X105059069Y-120423693D01*
X105283097Y-120330898D01*
X105484717Y-120196180D01*
X105656180Y-120024717D01*
X105790898Y-119823097D01*
X105883693Y-119599069D01*
X105931000Y-119361243D01*
X105931000Y-119118757D01*
X105883693Y-118880931D01*
X105790898Y-118656903D01*
X105656180Y-118455283D01*
X105484717Y-118283820D01*
X105283097Y-118149102D01*
X105059069Y-118056307D01*
X104821243Y-118009000D01*
X104578757Y-118009000D01*
X104340931Y-118056307D01*
X104116903Y-118149102D01*
X103915283Y-118283820D01*
X103743820Y-118455283D01*
X103609102Y-118656903D01*
X103516307Y-118880931D01*
X103469000Y-119118757D01*
X103469000Y-119288840D01*
X103338213Y-119262825D01*
X103141787Y-119262825D01*
X102949135Y-119301146D01*
X102767660Y-119376315D01*
X102706000Y-119417515D01*
X102706000Y-116578757D01*
X103469000Y-116578757D01*
X103469000Y-116821243D01*
X103516307Y-117059069D01*
X103609102Y-117283097D01*
X103743820Y-117484717D01*
X103915283Y-117656180D01*
X104116903Y-117790898D01*
X104340931Y-117883693D01*
X104578757Y-117931000D01*
X104821243Y-117931000D01*
X105059069Y-117883693D01*
X105283097Y-117790898D01*
X105484717Y-117656180D01*
X105656180Y-117484717D01*
X105790898Y-117283097D01*
X105883693Y-117059069D01*
X105931000Y-116821243D01*
X105931000Y-116578757D01*
X105883693Y-116340931D01*
X105790898Y-116116903D01*
X105656180Y-115915283D01*
X105484717Y-115743820D01*
X105283097Y-115609102D01*
X105059069Y-115516307D01*
X104821243Y-115469000D01*
X104578757Y-115469000D01*
X104340931Y-115516307D01*
X104116903Y-115609102D01*
X103915283Y-115743820D01*
X103743820Y-115915283D01*
X103609102Y-116116903D01*
X103516307Y-116340931D01*
X103469000Y-116578757D01*
X102706000Y-116578757D01*
X102706000Y-109436890D01*
X103258524Y-109436890D01*
X103303175Y-109584099D01*
X103428359Y-109846920D01*
X103602412Y-110080269D01*
X103818645Y-110275178D01*
X103944255Y-110350000D01*
X103818645Y-110424822D01*
X103602412Y-110619731D01*
X103428359Y-110853080D01*
X103303175Y-111115901D01*
X103258524Y-111263110D01*
X103379845Y-111493000D01*
X104573000Y-111493000D01*
X104573000Y-109207000D01*
X103379845Y-109207000D01*
X103258524Y-109436890D01*
X102706000Y-109436890D01*
X102706000Y-106896890D01*
X103258524Y-106896890D01*
X103303175Y-107044099D01*
X103428359Y-107306920D01*
X103602412Y-107540269D01*
X103818645Y-107735178D01*
X103944255Y-107810000D01*
X103818645Y-107884822D01*
X103602412Y-108079731D01*
X103428359Y-108313080D01*
X103303175Y-108575901D01*
X103258524Y-108723110D01*
X103379845Y-108953000D01*
X104573000Y-108953000D01*
X104573000Y-106667000D01*
X103379845Y-106667000D01*
X103258524Y-106896890D01*
X102706000Y-106896890D01*
X102706000Y-104356890D01*
X103258524Y-104356890D01*
X103303175Y-104504099D01*
X103428359Y-104766920D01*
X103602412Y-105000269D01*
X103818645Y-105195178D01*
X103944255Y-105270000D01*
X103818645Y-105344822D01*
X103602412Y-105539731D01*
X103428359Y-105773080D01*
X103303175Y-106035901D01*
X103258524Y-106183110D01*
X103379845Y-106413000D01*
X104573000Y-106413000D01*
X104573000Y-104127000D01*
X103379845Y-104127000D01*
X103258524Y-104356890D01*
X102706000Y-104356890D01*
X102706000Y-101816890D01*
X103258524Y-101816890D01*
X103303175Y-101964099D01*
X103428359Y-102226920D01*
X103602412Y-102460269D01*
X103818645Y-102655178D01*
X103944255Y-102730000D01*
X103818645Y-102804822D01*
X103602412Y-102999731D01*
X103428359Y-103233080D01*
X103303175Y-103495901D01*
X103258524Y-103643110D01*
X103379845Y-103873000D01*
X104573000Y-103873000D01*
X104573000Y-101587000D01*
X103379845Y-101587000D01*
X103258524Y-101816890D01*
X102706000Y-101816890D01*
X102706000Y-99276890D01*
X103258524Y-99276890D01*
X103303175Y-99424099D01*
X103428359Y-99686920D01*
X103602412Y-99920269D01*
X103818645Y-100115178D01*
X103944255Y-100190000D01*
X103818645Y-100264822D01*
X103602412Y-100459731D01*
X103428359Y-100693080D01*
X103303175Y-100955901D01*
X103258524Y-101103110D01*
X103379845Y-101333000D01*
X104573000Y-101333000D01*
X104573000Y-99047000D01*
X103379845Y-99047000D01*
X103258524Y-99276890D01*
X102706000Y-99276890D01*
X102706000Y-90450000D01*
X103211928Y-90450000D01*
X103215000Y-91014250D01*
X103373750Y-91173000D01*
X104573000Y-91173000D01*
X104573000Y-89973750D01*
X104414250Y-89815000D01*
X103850000Y-89811928D01*
X103725518Y-89824188D01*
X103605820Y-89860498D01*
X103495506Y-89919463D01*
X103398815Y-89998815D01*
X103319463Y-90095506D01*
X103260498Y-90205820D01*
X103224188Y-90325518D01*
X103211928Y-90450000D01*
X102706000Y-90450000D01*
X102706000Y-79446890D01*
X103508524Y-79446890D01*
X103553175Y-79594099D01*
X103678359Y-79856920D01*
X103852412Y-80090269D01*
X104068645Y-80285178D01*
X104318748Y-80434157D01*
X104593109Y-80531481D01*
X104823000Y-80410814D01*
X104823000Y-79217000D01*
X105077000Y-79217000D01*
X105077000Y-80410814D01*
X105306891Y-80531481D01*
X105581252Y-80434157D01*
X105831355Y-80285178D01*
X106047588Y-80090269D01*
X106221641Y-79856920D01*
X106346825Y-79594099D01*
X106391476Y-79446890D01*
X106270155Y-79217000D01*
X105077000Y-79217000D01*
X104823000Y-79217000D01*
X103629845Y-79217000D01*
X103508524Y-79446890D01*
X102706000Y-79446890D01*
X102706000Y-77400000D01*
X103461928Y-77400000D01*
X103474188Y-77524482D01*
X103510498Y-77644180D01*
X103569463Y-77754494D01*
X103648815Y-77851185D01*
X103745506Y-77930537D01*
X103855820Y-77989502D01*
X103936466Y-78013966D01*
X103852412Y-78089731D01*
X103678359Y-78323080D01*
X103553175Y-78585901D01*
X103508524Y-78733110D01*
X103629845Y-78963000D01*
X104823000Y-78963000D01*
X104823000Y-76677000D01*
X105077000Y-76677000D01*
X105077000Y-78963000D01*
X106270155Y-78963000D01*
X106391476Y-78733110D01*
X106346825Y-78585901D01*
X106221641Y-78323080D01*
X106047588Y-78089731D01*
X105963534Y-78013966D01*
X106044180Y-77989502D01*
X106154494Y-77930537D01*
X106251185Y-77851185D01*
X106330537Y-77754494D01*
X106389502Y-77644180D01*
X106425812Y-77524482D01*
X106438072Y-77400000D01*
X106435000Y-76835750D01*
X106276250Y-76677000D01*
X105077000Y-76677000D01*
X104823000Y-76677000D01*
X103623750Y-76677000D01*
X103465000Y-76835750D01*
X103461928Y-77400000D01*
X102706000Y-77400000D01*
X102706000Y-75700000D01*
X103461928Y-75700000D01*
X103465000Y-76264250D01*
X103623750Y-76423000D01*
X104823000Y-76423000D01*
X104823000Y-75223750D01*
X105077000Y-75223750D01*
X105077000Y-76423000D01*
X106276250Y-76423000D01*
X106435000Y-76264250D01*
X106438072Y-75700000D01*
X106425812Y-75575518D01*
X106389502Y-75455820D01*
X106330537Y-75345506D01*
X106251185Y-75248815D01*
X106154494Y-75169463D01*
X106044180Y-75110498D01*
X105924482Y-75074188D01*
X105800000Y-75061928D01*
X105235750Y-75065000D01*
X105077000Y-75223750D01*
X104823000Y-75223750D01*
X104664250Y-75065000D01*
X104100000Y-75061928D01*
X103975518Y-75074188D01*
X103855820Y-75110498D01*
X103745506Y-75169463D01*
X103648815Y-75248815D01*
X103569463Y-75345506D01*
X103510498Y-75455820D01*
X103474188Y-75575518D01*
X103461928Y-75700000D01*
X102706000Y-75700000D01*
X102706000Y-72896890D01*
X118333524Y-72896890D01*
X118378175Y-73044099D01*
X118503359Y-73306920D01*
X118677412Y-73540269D01*
X118893645Y-73735178D01*
X119143748Y-73884157D01*
X119418109Y-73981481D01*
X119648000Y-73860814D01*
X119648000Y-72667000D01*
X119902000Y-72667000D01*
X119902000Y-73860814D01*
X120131891Y-73981481D01*
X120406252Y-73884157D01*
X120656355Y-73735178D01*
X120872588Y-73540269D01*
X121046641Y-73306920D01*
X121171825Y-73044099D01*
X121216476Y-72896890D01*
X121095155Y-72667000D01*
X119902000Y-72667000D01*
X119648000Y-72667000D01*
X118454845Y-72667000D01*
X118333524Y-72896890D01*
X102706000Y-72896890D01*
X102706000Y-69000000D01*
X103873000Y-69000000D01*
X103873000Y-70000000D01*
X103875440Y-70024776D01*
X103882667Y-70048601D01*
X103894403Y-70070557D01*
X103910197Y-70089803D01*
X103929443Y-70105597D01*
X103951399Y-70117333D01*
X103975224Y-70124560D01*
X104000000Y-70127000D01*
X105000000Y-70127000D01*
X105024776Y-70124560D01*
X105048601Y-70117333D01*
X105070557Y-70105597D01*
X105089803Y-70089803D01*
X105105597Y-70070557D01*
X105117333Y-70048601D01*
X105124560Y-70024776D01*
X105127000Y-70000000D01*
X105127000Y-69000000D01*
X105124560Y-68975224D01*
X105117333Y-68951399D01*
X105105597Y-68929443D01*
X105089803Y-68910197D01*
X105070557Y-68894403D01*
X105048601Y-68882667D01*
X105024776Y-68875440D01*
X105020309Y-68875000D01*
X107917157Y-68875000D01*
X107917157Y-71875000D01*
X107924513Y-71949689D01*
X107946299Y-72021508D01*
X107981678Y-72087696D01*
X108029289Y-72145711D01*
X108087304Y-72193322D01*
X108153492Y-72228701D01*
X108225311Y-72250487D01*
X108300000Y-72257843D01*
X111300000Y-72257843D01*
X111374689Y-72250487D01*
X111446508Y-72228701D01*
X111512696Y-72193322D01*
X111570711Y-72145711D01*
X111618322Y-72087696D01*
X111653701Y-72021508D01*
X111675487Y-71949689D01*
X111682843Y-71875000D01*
X111682843Y-71866653D01*
X113567952Y-71866653D01*
X113723962Y-72182214D01*
X114098745Y-72373020D01*
X114503551Y-72487044D01*
X114922824Y-72519902D01*
X115340451Y-72470334D01*
X115740383Y-72340243D01*
X116036038Y-72182214D01*
X116192048Y-71866653D01*
X114880000Y-70554605D01*
X113567952Y-71866653D01*
X111682843Y-71866653D01*
X111682843Y-70417824D01*
X112735098Y-70417824D01*
X112784666Y-70835451D01*
X112914757Y-71235383D01*
X113072786Y-71531038D01*
X113388347Y-71687048D01*
X114700395Y-70375000D01*
X115059605Y-70375000D01*
X116371653Y-71687048D01*
X116687214Y-71531038D01*
X116878020Y-71156255D01*
X116964284Y-70850000D01*
X118286928Y-70850000D01*
X118299188Y-70974482D01*
X118335498Y-71094180D01*
X118394463Y-71204494D01*
X118473815Y-71301185D01*
X118570506Y-71380537D01*
X118680820Y-71439502D01*
X118761466Y-71463966D01*
X118677412Y-71539731D01*
X118503359Y-71773080D01*
X118378175Y-72035901D01*
X118333524Y-72183110D01*
X118454845Y-72413000D01*
X119648000Y-72413000D01*
X119648000Y-70127000D01*
X119902000Y-70127000D01*
X119902000Y-72413000D01*
X121095155Y-72413000D01*
X121216476Y-72183110D01*
X121171825Y-72035901D01*
X121046641Y-71773080D01*
X120872588Y-71539731D01*
X120788534Y-71463966D01*
X120869180Y-71439502D01*
X120979494Y-71380537D01*
X121076185Y-71301185D01*
X121155537Y-71204494D01*
X121214502Y-71094180D01*
X121250812Y-70974482D01*
X121263072Y-70850000D01*
X121260000Y-70285750D01*
X121101250Y-70127000D01*
X119902000Y-70127000D01*
X119648000Y-70127000D01*
X118448750Y-70127000D01*
X118290000Y-70285750D01*
X118286928Y-70850000D01*
X116964284Y-70850000D01*
X116992044Y-70751449D01*
X117024902Y-70332176D01*
X116975334Y-69914549D01*
X116845243Y-69514617D01*
X116687214Y-69218962D01*
X116547725Y-69150000D01*
X118286928Y-69150000D01*
X118290000Y-69714250D01*
X118448750Y-69873000D01*
X119648000Y-69873000D01*
X119648000Y-68673750D01*
X119902000Y-68673750D01*
X119902000Y-69873000D01*
X121101250Y-69873000D01*
X121260000Y-69714250D01*
X121263072Y-69150000D01*
X121250812Y-69025518D01*
X121214502Y-68905820D01*
X121155537Y-68795506D01*
X121076185Y-68698815D01*
X120979494Y-68619463D01*
X120869180Y-68560498D01*
X120749482Y-68524188D01*
X120625000Y-68511928D01*
X120060750Y-68515000D01*
X119902000Y-68673750D01*
X119648000Y-68673750D01*
X119489250Y-68515000D01*
X118925000Y-68511928D01*
X118800518Y-68524188D01*
X118680820Y-68560498D01*
X118570506Y-68619463D01*
X118473815Y-68698815D01*
X118394463Y-68795506D01*
X118335498Y-68905820D01*
X118299188Y-69025518D01*
X118286928Y-69150000D01*
X116547725Y-69150000D01*
X116371653Y-69062952D01*
X115059605Y-70375000D01*
X114700395Y-70375000D01*
X113388347Y-69062952D01*
X113072786Y-69218962D01*
X112881980Y-69593745D01*
X112767956Y-69998551D01*
X112735098Y-70417824D01*
X111682843Y-70417824D01*
X111682843Y-68883347D01*
X113567952Y-68883347D01*
X114880000Y-70195395D01*
X116192048Y-68883347D01*
X116036038Y-68567786D01*
X115661255Y-68376980D01*
X115256449Y-68262956D01*
X114837176Y-68230098D01*
X114419549Y-68279666D01*
X114019617Y-68409757D01*
X113723962Y-68567786D01*
X113567952Y-68883347D01*
X111682843Y-68883347D01*
X111682843Y-68875000D01*
X111675487Y-68800311D01*
X111653701Y-68728492D01*
X111618322Y-68662304D01*
X111570711Y-68604289D01*
X111512696Y-68556678D01*
X111446508Y-68521299D01*
X111374689Y-68499513D01*
X111300000Y-68492157D01*
X108300000Y-68492157D01*
X108225311Y-68499513D01*
X108153492Y-68521299D01*
X108087304Y-68556678D01*
X108029289Y-68604289D01*
X107981678Y-68662304D01*
X107946299Y-68728492D01*
X107924513Y-68800311D01*
X107917157Y-68875000D01*
X105020309Y-68875000D01*
X105000000Y-68873000D01*
X104000000Y-68873000D01*
X103975224Y-68875440D01*
X103951399Y-68882667D01*
X103929443Y-68894403D01*
X103910197Y-68910197D01*
X103894403Y-68929443D01*
X103882667Y-68951399D01*
X103875440Y-68975224D01*
X103873000Y-69000000D01*
X102706000Y-69000000D01*
X102706000Y-68040134D01*
X102809135Y-68082854D01*
X103001787Y-68121175D01*
X103198213Y-68121175D01*
X103390865Y-68082854D01*
X103572340Y-68007685D01*
X103735662Y-67898556D01*
X103874556Y-67759662D01*
X103983685Y-67596340D01*
X104058854Y-67414865D01*
X104097175Y-67222213D01*
X104097175Y-67025787D01*
X104058854Y-66833135D01*
X104006193Y-66706000D01*
X121780147Y-66706000D01*
X121817881Y-66709700D01*
G37*
%TD.AperFunction*%
D19*
X110517157Y-92759525D02*
X110517157Y-93950000D01*
X110524513Y-94024689D01*
X110524830Y-94025733D01*
X110459718Y-94069240D01*
X110375309Y-94153649D01*
X110308990Y-94252902D01*
X110263308Y-94363187D01*
X110240020Y-94480265D01*
X110240020Y-94599637D01*
X110263308Y-94716715D01*
X110286581Y-94772901D01*
X110283792Y-94775190D01*
X110223684Y-94848432D01*
X110179020Y-94931993D01*
X110151516Y-95022662D01*
X110142229Y-95116954D01*
X110151516Y-95211246D01*
X110179020Y-95301915D01*
X110212076Y-95363760D01*
X110176881Y-95406645D01*
X109392387Y-94622151D01*
X109372712Y-94523236D01*
X109327030Y-94412951D01*
X109260711Y-94313698D01*
X109176302Y-94229289D01*
X109077049Y-94162970D01*
X108966764Y-94117288D01*
X108849686Y-94094000D01*
X108731000Y-94094000D01*
X108731000Y-93470903D01*
X108787030Y-93387049D01*
X108832712Y-93276764D01*
X108856000Y-93159686D01*
X108856000Y-93040314D01*
X108832712Y-92923236D01*
X108787030Y-92812951D01*
X108720711Y-92713698D01*
X108636302Y-92629289D01*
X108537049Y-92562970D01*
X108426764Y-92517288D01*
X108309686Y-92494000D01*
X108190314Y-92494000D01*
X108073236Y-92517288D01*
X107962951Y-92562970D01*
X107863698Y-92629289D01*
X107779289Y-92713698D01*
X107712970Y-92812951D01*
X107667288Y-92923236D01*
X107644000Y-93040314D01*
X107644000Y-93159686D01*
X107667288Y-93276764D01*
X107712970Y-93387049D01*
X107769001Y-93470905D01*
X107769000Y-94475764D01*
X107707035Y-94537729D01*
X107688683Y-94552790D01*
X107673622Y-94571142D01*
X107628575Y-94626032D01*
X107583911Y-94709593D01*
X107556406Y-94800262D01*
X107547119Y-94894554D01*
X107549447Y-94918190D01*
X107549446Y-95399279D01*
X107547119Y-95422906D01*
X107556406Y-95517198D01*
X107564750Y-95544702D01*
X107583910Y-95607866D01*
X107628574Y-95691428D01*
X107688682Y-95764670D01*
X107707040Y-95779736D01*
X108141094Y-96213790D01*
X108073236Y-96227288D01*
X107962951Y-96272970D01*
X107863698Y-96339289D01*
X107779289Y-96423698D01*
X107712970Y-96522951D01*
X107667288Y-96633236D01*
X107644000Y-96750314D01*
X107644000Y-96869686D01*
X107667288Y-96986764D01*
X107712970Y-97097049D01*
X107779289Y-97196302D01*
X107863698Y-97280711D01*
X107962951Y-97347030D01*
X108073236Y-97392712D01*
X108172151Y-97412387D01*
X108455701Y-97695938D01*
X108455701Y-100004274D01*
X108426764Y-99992288D01*
X108309686Y-99969000D01*
X108190314Y-99969000D01*
X108073236Y-99992288D01*
X107962951Y-100037970D01*
X107863698Y-100104289D01*
X107779289Y-100188698D01*
X107712970Y-100287951D01*
X107667288Y-100398236D01*
X107647613Y-100497150D01*
X107322642Y-100822122D01*
X107322642Y-96339346D01*
X107325694Y-96308359D01*
X107322642Y-96277371D01*
X107322642Y-95197640D01*
X107325695Y-95166642D01*
X107322642Y-95135644D01*
X107322642Y-91931000D01*
X109688632Y-91931000D01*
X110517157Y-92759525D01*
%TA.AperFunction,Conductor*%
D20*
G36*
X110517157Y-92759525D02*
G01*
X110517157Y-93950000D01*
X110524513Y-94024689D01*
X110524830Y-94025733D01*
X110459718Y-94069240D01*
X110375309Y-94153649D01*
X110308990Y-94252902D01*
X110263308Y-94363187D01*
X110240020Y-94480265D01*
X110240020Y-94599637D01*
X110263308Y-94716715D01*
X110286581Y-94772901D01*
X110283792Y-94775190D01*
X110223684Y-94848432D01*
X110179020Y-94931993D01*
X110151516Y-95022662D01*
X110142229Y-95116954D01*
X110151516Y-95211246D01*
X110179020Y-95301915D01*
X110212076Y-95363760D01*
X110176881Y-95406645D01*
X109392387Y-94622151D01*
X109372712Y-94523236D01*
X109327030Y-94412951D01*
X109260711Y-94313698D01*
X109176302Y-94229289D01*
X109077049Y-94162970D01*
X108966764Y-94117288D01*
X108849686Y-94094000D01*
X108731000Y-94094000D01*
X108731000Y-93470903D01*
X108787030Y-93387049D01*
X108832712Y-93276764D01*
X108856000Y-93159686D01*
X108856000Y-93040314D01*
X108832712Y-92923236D01*
X108787030Y-92812951D01*
X108720711Y-92713698D01*
X108636302Y-92629289D01*
X108537049Y-92562970D01*
X108426764Y-92517288D01*
X108309686Y-92494000D01*
X108190314Y-92494000D01*
X108073236Y-92517288D01*
X107962951Y-92562970D01*
X107863698Y-92629289D01*
X107779289Y-92713698D01*
X107712970Y-92812951D01*
X107667288Y-92923236D01*
X107644000Y-93040314D01*
X107644000Y-93159686D01*
X107667288Y-93276764D01*
X107712970Y-93387049D01*
X107769001Y-93470905D01*
X107769000Y-94475764D01*
X107707035Y-94537729D01*
X107688683Y-94552790D01*
X107673622Y-94571142D01*
X107628575Y-94626032D01*
X107583911Y-94709593D01*
X107556406Y-94800262D01*
X107547119Y-94894554D01*
X107549447Y-94918190D01*
X107549446Y-95399279D01*
X107547119Y-95422906D01*
X107556406Y-95517198D01*
X107564750Y-95544702D01*
X107583910Y-95607866D01*
X107628574Y-95691428D01*
X107688682Y-95764670D01*
X107707040Y-95779736D01*
X108141094Y-96213790D01*
X108073236Y-96227288D01*
X107962951Y-96272970D01*
X107863698Y-96339289D01*
X107779289Y-96423698D01*
X107712970Y-96522951D01*
X107667288Y-96633236D01*
X107644000Y-96750314D01*
X107644000Y-96869686D01*
X107667288Y-96986764D01*
X107712970Y-97097049D01*
X107779289Y-97196302D01*
X107863698Y-97280711D01*
X107962951Y-97347030D01*
X108073236Y-97392712D01*
X108172151Y-97412387D01*
X108455701Y-97695938D01*
X108455701Y-100004274D01*
X108426764Y-99992288D01*
X108309686Y-99969000D01*
X108190314Y-99969000D01*
X108073236Y-99992288D01*
X107962951Y-100037970D01*
X107863698Y-100104289D01*
X107779289Y-100188698D01*
X107712970Y-100287951D01*
X107667288Y-100398236D01*
X107647613Y-100497150D01*
X107322642Y-100822122D01*
X107322642Y-96339346D01*
X107325694Y-96308359D01*
X107322642Y-96277371D01*
X107322642Y-95197640D01*
X107325695Y-95166642D01*
X107322642Y-95135644D01*
X107322642Y-91931000D01*
X109688632Y-91931000D01*
X110517157Y-92759525D01*
G37*
%TD.AperFunction*%
D19*
X120067000Y-98793000D02*
X120087000Y-98793000D01*
X120087000Y-99047000D01*
X120067000Y-99047000D01*
X120067000Y-99067000D01*
X119813000Y-99067000D01*
X119813000Y-99047000D01*
X119793000Y-99047000D01*
X119793000Y-98793000D01*
X119813000Y-98793000D01*
X119813000Y-98773000D01*
X120067000Y-98773000D01*
X120067000Y-98793000D01*
%TA.AperFunction,Conductor*%
D20*
G36*
X120067000Y-98793000D02*
G01*
X120087000Y-98793000D01*
X120087000Y-99047000D01*
X120067000Y-99047000D01*
X120067000Y-99067000D01*
X119813000Y-99067000D01*
X119813000Y-99047000D01*
X119793000Y-99047000D01*
X119793000Y-98793000D01*
X119813000Y-98793000D01*
X119813000Y-98773000D01*
X120067000Y-98773000D01*
X120067000Y-98793000D01*
G37*
%TD.AperFunction*%
D19*
X113029042Y-93249323D02*
X112982843Y-93295522D01*
X112982843Y-92250000D01*
X112975487Y-92175311D01*
X112953701Y-92103492D01*
X112918322Y-92037304D01*
X112870711Y-91979289D01*
X112812696Y-91931678D01*
X112746508Y-91896299D01*
X112674689Y-91874513D01*
X112600000Y-91867157D01*
X111409525Y-91867157D01*
X111211907Y-91669539D01*
X111390931Y-91743693D01*
X111628757Y-91791000D01*
X111871243Y-91791000D01*
X112109069Y-91743693D01*
X112333097Y-91650898D01*
X112534717Y-91516180D01*
X112706180Y-91344717D01*
X112840898Y-91143097D01*
X112933693Y-90919069D01*
X112981000Y-90681243D01*
X112981000Y-90438757D01*
X112933693Y-90200931D01*
X112840898Y-89976903D01*
X112706180Y-89775283D01*
X112534717Y-89603820D01*
X112333097Y-89469102D01*
X112109069Y-89376307D01*
X111871243Y-89329000D01*
X111628757Y-89329000D01*
X111390931Y-89376307D01*
X111166903Y-89469102D01*
X110965283Y-89603820D01*
X110793820Y-89775283D01*
X110659102Y-89976903D01*
X110566307Y-90200931D01*
X110519000Y-90438757D01*
X110519000Y-90681243D01*
X110566307Y-90919069D01*
X110640461Y-91098093D01*
X110418105Y-90875737D01*
X110398343Y-90851657D01*
X110302261Y-90772804D01*
X110192642Y-90714211D01*
X110073698Y-90678130D01*
X109980998Y-90669000D01*
X109980990Y-90669000D01*
X109950000Y-90665948D01*
X109919010Y-90669000D01*
X107322642Y-90669000D01*
X107322642Y-89477360D01*
X107313512Y-89384660D01*
X107277431Y-89265716D01*
X107218838Y-89156097D01*
X107139985Y-89060015D01*
X107043903Y-88981162D01*
X106934284Y-88922569D01*
X106815340Y-88886488D01*
X106813891Y-88886345D01*
X107044275Y-88655962D01*
X113029043Y-88655962D01*
X113029042Y-93249323D01*
%TA.AperFunction,Conductor*%
D20*
G36*
X113029042Y-93249323D02*
G01*
X112982843Y-93295522D01*
X112982843Y-92250000D01*
X112975487Y-92175311D01*
X112953701Y-92103492D01*
X112918322Y-92037304D01*
X112870711Y-91979289D01*
X112812696Y-91931678D01*
X112746508Y-91896299D01*
X112674689Y-91874513D01*
X112600000Y-91867157D01*
X111409525Y-91867157D01*
X111211907Y-91669539D01*
X111390931Y-91743693D01*
X111628757Y-91791000D01*
X111871243Y-91791000D01*
X112109069Y-91743693D01*
X112333097Y-91650898D01*
X112534717Y-91516180D01*
X112706180Y-91344717D01*
X112840898Y-91143097D01*
X112933693Y-90919069D01*
X112981000Y-90681243D01*
X112981000Y-90438757D01*
X112933693Y-90200931D01*
X112840898Y-89976903D01*
X112706180Y-89775283D01*
X112534717Y-89603820D01*
X112333097Y-89469102D01*
X112109069Y-89376307D01*
X111871243Y-89329000D01*
X111628757Y-89329000D01*
X111390931Y-89376307D01*
X111166903Y-89469102D01*
X110965283Y-89603820D01*
X110793820Y-89775283D01*
X110659102Y-89976903D01*
X110566307Y-90200931D01*
X110519000Y-90438757D01*
X110519000Y-90681243D01*
X110566307Y-90919069D01*
X110640461Y-91098093D01*
X110418105Y-90875737D01*
X110398343Y-90851657D01*
X110302261Y-90772804D01*
X110192642Y-90714211D01*
X110073698Y-90678130D01*
X109980998Y-90669000D01*
X109980990Y-90669000D01*
X109950000Y-90665948D01*
X109919010Y-90669000D01*
X107322642Y-90669000D01*
X107322642Y-89477360D01*
X107313512Y-89384660D01*
X107277431Y-89265716D01*
X107218838Y-89156097D01*
X107139985Y-89060015D01*
X107043903Y-88981162D01*
X106934284Y-88922569D01*
X106815340Y-88886488D01*
X106813891Y-88886345D01*
X107044275Y-88655962D01*
X113029043Y-88655962D01*
X113029042Y-93249323D01*
G37*
%TD.AperFunction*%
%TD*%
M02*
